<svg id="Layer_2" data-name="Layer 2" xmlns="http://www.w3.org/2000/svg" width="182.437" height="213.954" viewBox="0 0 182.437 213.954">
  <g id="Layer_1" data-name="Layer 1">
    <path id="Path_321" data-name="Path 321" d="M63.1,98.944c3.984,1.048,9.059,0,10.841-3.1,2.1-3.586-.336-12.582-4.739-13.5-3.733-.839-10.149,6.291-11.072,9.122-1.279,3.984,1.4,6.543,4.97,7.486Z" transform="translate(63.411 90.245)" fill="#553982"/>
    <path id="Path_322" data-name="Path 322" d="M32.1,98.944c-4.005,1.048-9.059,0-10.841-3.1-1.992-3.586.315-12.582,4.739-13.5,3.712-.839,10.128,6.291,11.072,9.122,1.279,3.984-1.426,6.543-4.97,7.486Z" transform="translate(22.527 90.245)" fill="#553982"/>
    <path id="Path_323" data-name="Path 323" d="M43.209,119.183c-4.194-3.586-25.164-22.06-25.919-32.545C16.515,75.629,38.428,60.426,42.832,57.49l3.712,5.557C35.408,70.47,23.6,81.416,23.938,86.114c.419,5.683,14.05,19.774,23.612,27.974l-4.341,5.054Z" transform="translate(18.945 63.065)" fill="#231f20"/>
    <path id="Path_324" data-name="Path 324" d="M61.191,119.161l-4.341-5.054c9.562-8.2,23.213-22.291,23.612-27.974.377-5.242-13.253-16.9-22.584-23.067l3.691-5.557c4.4,2.936,26.338,18.139,25.541,29.148-.734,10.485-21.725,28.959-25.919,32.545Z" transform="translate(62.363 63.087)" fill="#231f20"/>
    <path id="Path_325" data-name="Path 325" d="M113.024,64.91A45.064,45.064,0,1,1,67.96,19.07a45.064,45.064,0,0,1,45.064,45.84Z" transform="translate(25.124 20.919)" fill="#9366ab"/>
    <path id="Path_326" data-name="Path 326" d="M108.794,186.405a9.9,9.9,0,0,0-9.1,4.739,285.188,285.188,0,0,0,6.291-61.965c0-60.812-16.44-110.049-36.7-110.049S32.716,68.409,32.716,129.179a283.677,283.677,0,0,0,6.459,62.28,9.73,9.73,0,0,0-9.269-5.054c-5.117,0-9.311,2.873-9.646,6.5H39.552c6.647-12.288,17.552-20.3,29.861-20.3s23.067,7.968,29.8,20.173a.608.608,0,0,1,0,.189H118.5c-.336-3.628-4.529-6.5-9.646-6.5Z" transform="translate(22.225 20.985)" fill="#9366ab"/>
    <path id="Path_327" data-name="Path 327" d="M181.242,59.848c0,33.069-40.43,59.848-90.316,59.848S.63,92.917.63,59.848,41.06,0,90.926,0,181.242,26.8,181.242,59.848Z" transform="translate(0.691)" fill="#9366ab"/>
    <path id="Path_328" data-name="Path 328" d="M85.068,56.977a29.777,29.777,0,0,1-52.236-2.1,190.365,190.365,0,0,0-2.747,33.153c0,12.079-2.558,30.763,12.582,34.327,4.068.965,11.345-4.047,16.21-4.047,7.088,0,14.888,6.878,21.683,3.607a9.2,9.2,0,0,0,2.1-1.489c6.857-6.5,4.886-24.576,4.886-32.4a191.516,191.516,0,0,0-2.453-31.056Z" transform="translate(32.824 60.202)" fill="#b193c4"/>
    <path id="Path_329" data-name="Path 329" d="M125.087,37.989a36.382,36.382,0,1,1-10.73-25.717,36.4,36.4,0,0,1,10.73,25.717Z" transform="translate(57.35 1.854)" fill="#9366ab"/>
    <path id="Path_330" data-name="Path 330" d="M72.9,37.989A36.382,36.382,0,1,1,36.522,1.69,36.382,36.382,0,0,1,72.9,37.989Z" transform="translate(0.154 1.854)" fill="#9366ab"/>
    <path id="Path_331" data-name="Path 331" d="M53.516,54.325a5.725,5.725,0,0,1-6.291,5.159,5.725,5.725,0,0,1-6.165-5.159,5.725,5.725,0,0,1,6.165-5.159,5.725,5.725,0,0,1,6.291,5.159Z" transform="translate(45.042 53.9)" fill="#b193c4"/>
    <path id="Path_332" data-name="Path 332" d="M51.887,55.054a3.745,3.745,0,1,0-.063.1Z" transform="translate(45.601 54.848)" fill="#28324e"/>
    <path id="Path_333" data-name="Path 333" d="M52.641,5.19,4.18,36.917A33.426,33.426,0,1,0,52.641,5.19Z" transform="translate(4.585 5.693)" fill="#fff"/>
    <path id="Path_334" data-name="Path 334" d="M44.177,6.93,6.83,31.36V33.1A27.89,27.89,0,1,0,44.177,6.93Z" transform="translate(7.492 7.602)" fill="#f9a028"/>
    <path id="Path_335" data-name="Path 335" d="M29.184,43.328a27.785,27.785,0,0,0,17.363-6.081,17.719,17.719,0,0,0-34.747,0,27.785,27.785,0,0,0,17.384,6.081Z" transform="translate(12.944 25.243)"/>
    <path id="Path_336" data-name="Path 336" d="M.43,45.823,70.867.78.43,45.823Z" transform="translate(0.472 0.856)"/>
    <path id="Path_337" data-name="Path 337" d="M0,44.418,71.339.78,1.8,47.228,0,44.418Z" transform="translate(0 0.856)"/>
    <path id="Path_338" data-name="Path 338" d="M33.485,26.927A5.788,5.788,0,1,1,27.7,21.16a5.788,5.788,0,0,1,5.788,5.767Z" transform="translate(24.035 23.212)" fill="#fff"/>
    <path id="Path_339" data-name="Path 339" d="M69.266,5.19a33.426,33.426,0,1,0,48.44,31.727Z" transform="translate(55.839 5.693)" fill="#fff"/>
    <path id="Path_340" data-name="Path 340" d="M71.9,6.93A27.869,27.869,0,1,0,109.31,33.1V31.36Z" transform="translate(58.762 7.602)" fill="#f9a028"/>
    <path id="Path_341" data-name="Path 341" d="M75.954,43.328A27.827,27.827,0,0,1,58.57,37.247a17.719,17.719,0,0,1,34.747,0A27.785,27.785,0,0,1,75.954,43.328Z" transform="translate(64.25 25.243)"/>
    <path id="Path_342" data-name="Path 342" d="M123.378,45.823,52.92.78l70.458,45.043Z" transform="translate(58.052 0.856)"/>
    <path id="Path_343" data-name="Path 343" d="M124.259,44.418,52.92.78l69.556,46.448,1.782-2.81Z" transform="translate(58.052 0.856)"/>
    <path id="Path_344" data-name="Path 344" d="M81.155,26.927a5.767,5.767,0,1,1-1.7-4.085,5.788,5.788,0,0,1,1.7,4.085Z" transform="translate(76.327 23.212)" fill="#fff"/>
  </g>
</svg>
