<svg xmlns="http://www.w3.org/2000/svg" width="37.861" height="37.902" viewBox="0 0 37.861 37.902">
  <g id="Page-1" transform="translate(-0.012 0)">
    <g id="_035---Creative-Thinking" data-name="035---Creative-Thinking" transform="translate(0.012 0)">
      <path id="Shape" d="M32.706,27.795a8.489,8.489,0,0,0-.015-3.222l2.893-6.982a.1.1,0,0,0,0-.014,11.863,11.863,0,0,1,2.031-3.526.942.942,0,0,0,.233-.862L36.662,8.065a.617.617,0,0,0-.063-.153c-.005-.009-.007-.021-.012-.03s-.027-.03-.04-.047a.638.638,0,0,0-.089-.1.587.587,0,0,0-.069-.042.644.644,0,0,0-.1-.059.624.624,0,0,0-.148-.036c-.015,0-.027-.009-.042-.011a.631.631,0,0,0-.348.078c-.009.005-.021.007-.03.013h-.006l-4.46,2.784a.943.943,0,0,0-.446.777,11.858,11.858,0,0,1-1.062,3.937v.007l-1.446,3.5a8.474,8.474,0,0,0-2.256-.815,34.13,34.13,0,0,0,.327-6.212,6.894,6.894,0,0,0,1.568-5.061C27.547,2.906,24.22.247,24.077.135a.632.632,0,0,0-1,.659c.325,1.222.044,2.511-2.359,5.162a3.7,3.7,0,0,0-.866,4.028,4.9,4.9,0,0,0,.9,1.453c-.153.976-.273,1.9-.356,2.8a31.636,31.636,0,0,0-.11,4.48,8.6,8.6,0,0,0-1.573,1.1l-3.064-13.1c0-.013-.013-.023-.016-.035a.6.6,0,0,0-.044-.122L12.458.776a1.459,1.459,0,0,0-2.74.642L9.48,7.985a.652.652,0,0,0,.016.141v.028l3.126,13.34a7.114,7.114,0,0,0-1.46.218l-3.438-8.3a1.277,1.277,0,0,0-1.649-.675L.819,14.908a1.267,1.267,0,0,0-.684,1.651L4.8,27.808A5.05,5.05,0,0,0,5.058,37.9H32.853a5.054,5.054,0,1,0-.147-10.107Zm-.644-16.351,2.648-1.653-.937,2.264a.632.632,0,1,0,1.167.484l.937-2.264.7,3.04a12.494,12.494,0,0,0-1.832,3.024,2.6,2.6,0,0,1-3.531-1.46A12.479,12.479,0,0,0,32.063,11.444ZM30.61,16.4a3.848,3.848,0,0,0,1.575,1.147,4.009,4.009,0,0,0,1.546.326,3.343,3.343,0,0,0,.383-.023L32.1,22.717a8.573,8.573,0,0,0-2.713-3.354Zm-8.654-4.512,3.174.194c.02.59.013,1.2-.007,1.82a13.28,13.28,0,0,1-3.165-.153l-.236-.031c.063-.6.14-1.2.233-1.83Zm-.3-5.087C23.331,4.954,24.2,3.531,24.4,2.193a8.449,8.449,0,0,1,2.28,4.528A5.66,5.66,0,0,1,25.4,10.835l-3.7-.227a2.635,2.635,0,0,1-.049-3.8Zm-.048,8.176.183.024a17.994,17.994,0,0,0,2.459.209c.262,0,.537-.021.813-.042-.057.813-.152,1.662-.271,2.539-.156-.008-.309-.023-.466-.023a8.461,8.461,0,0,0-2.8.482,30.482,30.482,0,0,1,.08-3.189ZM16.72,22.368l-1.807-7.7a.632.632,0,0,0-1.23.288l1.624,6.929a7.155,7.155,0,0,0-1.377-.343L11.157,9.712a2.994,2.994,0,0,0,1.237.269c.04,0,.082-.006.123-.008l.447,1.907a.632.632,0,1,0,1.23-.288l-.447-1.908a2.992,2.992,0,0,0,1.1-.84L17.668,20.9A8.475,8.475,0,0,0,16.72,22.368ZM12.86,8.66a2.1,2.1,0,0,1-2.109-.845l.08-2.225a3.717,3.717,0,0,0,.666.063,2.815,2.815,0,0,0,.642-.071A3.218,3.218,0,0,0,13.311,5l1.064,1.963a2.1,2.1,0,0,1-1.514,1.7ZM11.13,1.28a.2.2,0,0,1,.217.1l1.354,2.5a2.156,2.156,0,0,1-.853.474,2.148,2.148,0,0,1-.973-.046l.1-2.846A.2.2,0,0,1,11.13,1.28ZM6.558,13.9l.483,1.166L4.7,16.031a.632.632,0,0,0,.243,1.214.641.641,0,0,0,.242-.048l2.337-.968L8.009,17.4l-1.169.485A.632.632,0,0,0,7.083,19.1a.643.643,0,0,0,.241-.048l1.169-.485.483,1.167-2.339.97a.632.632,0,0,0,.243,1.215.64.64,0,0,0,.241-.048L9.459,20.9l.511,1.234a7.333,7.333,0,0,0-4.09,4.978L1.3,16.073ZM32.853,36.639H5.058a3.79,3.79,0,0,1,0-7.58,3.721,3.721,0,0,1,1.081.157.632.632,0,0,0,.814-.593,6,6,0,0,1,9.6-4.68.632.632,0,0,0,.968-.284,7.266,7.266,0,0,1,13.747,4.69.632.632,0,0,0,.739.8,3.944,3.944,0,0,1,.843-.092,3.79,3.79,0,0,1,0,7.58Z" transform="translate(-0.012 0)" fill="#fff"/>
      <path id="Shape-2" data-name="Shape" d="M38.319,13.1a.632.632,0,0,0,.505-.25,4.738,4.738,0,0,0,.84-3.719.632.632,0,1,0-1.22.325,3.509,3.509,0,0,1-.627,2.632.632.632,0,0,0,.505,1.011Z" transform="translate(-13.889 -3.186)" fill="#fff"/>
      <path id="Shape-3" data-name="Shape" d="M32.586,45.278a3.105,3.105,0,0,0-1.355.316,3.79,3.79,0,0,0-6.548,3.721.632.632,0,0,0,.581.384.625.625,0,0,0,.248-.051.632.632,0,0,0,.334-.829,2.573,2.573,0,0,1-.208-1.015,2.527,2.527,0,0,1,2.527-2.527,2.5,2.5,0,0,1,2.284,1.453.685.685,0,0,0,.044.059.642.642,0,0,0,.033.063c.011.014.028.02.04.033a.887.887,0,0,0,.2.145.629.629,0,0,0,.114.035.581.581,0,0,0,.119.018.776.776,0,0,0,.241-.04l.05-.012a.572.572,0,0,0,.059-.044.657.657,0,0,0,.066-.034,1.863,1.863,0,0,1,1.172-.414,1.9,1.9,0,0,1,1.718,1.1.632.632,0,1,0,1.15-.524A3.159,3.159,0,0,0,32.586,45.278Z" transform="translate(-8.987 -16.219)" fill="#fff"/>
      <path id="Shape-4" data-name="Shape" d="M16.327,39.03A3.428,3.428,0,0,0,14,42.156a.632.632,0,0,0,1.263,0,2.172,2.172,0,0,1,1.467-1.929.633.633,0,1,0-.4-1.2Z" transform="translate(-5.164 -14.361)" fill="#fff"/>
      <path id="Shape-5" data-name="Shape" d="M31.478,35.771a.616.616,0,0,0,.154.019.632.632,0,0,0,.612-.478,2.694,2.694,0,0,1,2.55-2.049.632.632,0,0,0,0-1.263,3.935,3.935,0,0,0-3.771,3.005A.632.632,0,0,0,31.478,35.771Z" transform="translate(-11.425 -11.785)" fill="#fff"/>
    </g>
  </g>
</svg>
