<svg xmlns="http://www.w3.org/2000/svg" width="205.239" height="195.04" viewBox="0 0 205.239 195.04">
  <g id="Layer_2" data-name="Layer 2" transform="translate(0.011)">
    <g id="Layer_1" data-name="Layer 1" transform="translate(-0.011)">
      <path id="Path_428" data-name="Path 428" d="M41.316,27.8A41.553,41.553,0,0,0,29.79,0,55.338,55.338,0,0,1,57.974,24.86a25.6,25.6,0,0,1,16.26-11.346,24.3,24.3,0,0,0-5.059,21.842A39.349,39.349,0,0,0,52.536,49.033c-2.746-7.118-5.691-14.453-11.328-19.6.108-1.283.235-2.547.343-3.812L41.389,27.8Z" transform="translate(24.051)" fill="#28324e"/>
      <path id="Path_429" data-name="Path 429" d="M127.335,115.127a34.489,34.489,0,0,0,16.4-14.2,5.2,5.2,0,0,1,1.626-1.807,3.234,3.234,0,0,1,4.191,1.7,7.769,7.769,0,0,1,.217,4.968c-2.349,11.581-11.436,21.011-22.168,25.962S104.68,137.62,92.9,136.843a30.714,30.714,0,0,1-9.919-1.807C74.4,131.423,70.155,121.6,68.89,112.363A61.065,61.065,0,0,1,75.177,76.23c2.746-5.275,9.142-11.292,14.453-5.167,2.132,2.421,2.529,5.854,3,9.033A103.413,103.413,0,0,0,98.5,102.625C103.343,114.748,114.689,120.005,127.335,115.127Z" transform="translate(55.158 55.241)" fill="#28324e"/>
      <path id="Path_430" data-name="Path 430" d="M149.438,80.31v-.885a13.043,13.043,0,0,0-.307-2.8c-1.7-11.906-11.039-22.475-25.058-29.9a21.062,21.062,0,0,0,.253-3.216c0-13.026-11.87-23.487-26.522-23.487a28.021,28.021,0,0,0-19.6,7.7A34.941,34.941,0,0,0,48.428,12.163c-18.825,0-34.092,13.568-34.092,30.316a27.461,27.461,0,0,0,2.258,10.84C8.248,59.913,2.846,67.953,1.6,76.805a12.918,12.918,0,0,0-.307,2.8c0,19.259-2.313,38.5-.777,57.813a88.635,88.635,0,0,0,6.107,27.533c2.855,6.612,9.033,18.97,17.073,20.271a12.647,12.647,0,0,0,7.588-2.132c2.674-1.427,4.878-4.39,7.8-5.131,3.848-.976,6.233,2.1,9.214,3.9a13.586,13.586,0,0,0,13.134-.163c4.571-2.439,8.22-7.1,13.387-7.5,4.625-.361,8.672,2.855,12.448,5.546s8.726,5.095,12.9,3.071c3.4-1.662,5.167-5.836,8.744-7.082,4.481-1.572,8.871,2.132,12.972,4.517a16.82,16.82,0,0,0,9.377,2.855c13.694-.849,13.315-29.738,14.291-39.927,1.933-20.2,3.722-41.932,3.812-62.294v-.614Z" transform="translate(0.011 9.806)" fill="#485677"/>
      <path id="Path_431" data-name="Path 431" d="M113.284,75.913a13.043,13.043,0,0,0-.307-2.8c-1.7-11.906-11.039-22.475-25.058-29.9A21.062,21.062,0,0,0,88.172,40c0-13.026-11.87-23.487-26.522-23.487a28.473,28.473,0,0,0-16.82,5.42V172.28a48.325,48.325,0,0,1,6.341,4.137c3.794,2.692,8.726,5.095,12.9,3.071,3.4-1.662,5.167-5.836,8.744-7.082,4.48-1.572,8.871,2.132,12.972,4.517a16.82,16.82,0,0,0,9.377,2.855c13.694-.849,13.315-29.738,14.291-39.927,1.933-20.2,3.722-41.933,3.812-62.294v-1.5Z" transform="translate(36.183 13.318)" fill="#3c4967"/>
      <path id="Path_432" data-name="Path 432" d="M62.609,40.624A24.534,24.534,0,1,1,38.092,16.09,24.534,24.534,0,0,1,62.609,40.624Z" transform="translate(10.943 12.979)" fill="#fff"/>
      <path id="Path_433" data-name="Path 433" d="M56.729,38.8A20.469,20.469,0,1,1,36.277,18.35,20.469,20.469,0,0,1,56.729,38.8Z" transform="translate(12.758 14.802)" fill="#53acd2"/>
      <path id="Path_434" data-name="Path 434" d="M74.626,36.6A14.688,14.688,0,1,1,59.938,21.93,14.688,14.688,0,0,1,74.626,36.6Z" transform="translate(36.522 17.69)" fill="#fff"/>
      <path id="Path_435" data-name="Path 435" d="M71.1,35.511a12.231,12.231,0,1,1-3.589-8.655A12.249,12.249,0,0,1,71.1,35.511Z" transform="translate(37.611 18.779)" fill="#53acd2"/>
      <path id="Path_436" data-name="Path 436" d="M63.791,29.5a2.517,2.517,0,1,0-.036,0Z" transform="translate(41.684 18.9)"/>
      <path id="Path_437" data-name="Path 437" d="M61.011,26.926a3.107,3.107,0,1,1-.9-2.209,3.125,3.125,0,0,1,.9,2.209Z" transform="translate(44.193 19.198)" fill="#fff"/>
      <path id="Path_438" data-name="Path 438" d="M38.955,39.347A10.117,10.117,0,1,1,28.837,29.23,10.117,10.117,0,0,1,38.955,39.347Z" transform="translate(15.121 23.579)"/>
      <path id="Path_439" data-name="Path 439" d="M34.342,35.061a5.221,5.221,0,1,1-5.221-5.221,5.221,5.221,0,0,1,5.221,5.221Z" transform="translate(19.3 24.071)" fill="#fff"/>
      <path id="Path_440" data-name="Path 440" d="M109.478,75.763C96.957,88.41,79.812,97.841,63.119,93.5,45.341,88.9,27.961,77.064,16.362,62.954a45.293,45.293,0,0,1-7.787-12.52c-.506-1.319-.813-3.017.271-3.939a3.613,3.613,0,0,1,3.089-.307c8.853,1.933,16.856,6.5,25.564,8.889,32.52,8.889,57.253,1.807,86.72-12.358a2.764,2.764,0,0,1,1.969-.379c1.138.343,1.319,1.807,1.174,3.053a35.067,35.067,0,0,1-4.589,12.647,82.419,82.419,0,0,1-13.351,17.705Z" transform="translate(6.567 34.118)" fill="#516288"/>
      <path id="Path_441" data-name="Path 441" d="M109.478,76.979C96.957,89.626,79.812,99.056,63.119,94.72,45.341,90.113,27.961,78.3,16.362,64.224a45.455,45.455,0,0,1-7.787-12.5c-.506-1.319-.813-3.035.271-3.957a3.613,3.613,0,0,1,3.089-.307c8.853,1.933,16.856,6.5,25.564,8.889,32.52,8.907,57.253,1.807,86.72-12.358a2.764,2.764,0,0,1,1.969-.379c1.138.361,1.319,1.807,1.174,3.053a35.158,35.158,0,0,1-4.589,12.647A82.33,82.33,0,0,1,109.423,77Z" transform="translate(6.567 35.142)" fill="#28324e"/>
      <path id="Path_442" data-name="Path 442" d="M55.691,67.508A28.491,28.491,0,0,1,68.934,73.29a10.641,10.641,0,0,1,2.71,2.909c2.078,3.613-.325,8.69-2.15,11.978a17.38,17.38,0,0,1-8.8,7.859,22.457,22.457,0,0,1-12.99.885,18.067,18.067,0,0,1-9.033-5.42c-4.228-4.029-10.244-11.2-6.034-17.037a14.851,14.851,0,0,1,5.546-4.39,28.906,28.906,0,0,1,17.543-2.565Z" transform="translate(25.195 54.134)" fill="#28324e"/>
      <path id="Path_443" data-name="Path 443" d="M60.115,64.211c.4-.271.723-.47.885-.56a17.9,17.9,0,0,1,7.425-1.21A24.047,24.047,0,0,1,84.035,69a37.937,37.937,0,0,0-4.3,2.674,5.745,5.745,0,0,0-1.5,1.373,6.468,6.468,0,0,0-.813,2.584c-1.445,9.033-3.613,18.067-12.99,21.68a23,23,0,0,1-13.152.885,18.319,18.319,0,0,1-9.033-5.42,31.038,31.038,0,0,1-9.214-16.26c-.379-2.005-.2-3.2-1.807-4.733-1.1-1.084-2.891-2.565-4.517-2.349,1.915-.795,3.92-1.373,5.8-2.258,1.012-.47,1.987-1.03,3.017-1.445,5.6-2.2,17.38-3.613,20.74,2.873-.47-.921,2.294-3.252,3.848-4.354Z" transform="translate(21.566 50.35)" fill="#9366ab"/>
      <path id="Path_444" data-name="Path 444" d="M42.87,68.089l.723,16.675s1.951-21.806-.723-16.675Z" transform="translate(34.602 54.294)" fill="#553982"/>
      <path id="Path_445" data-name="Path 445" d="M14.984,50.515s-4.914-2.168-5.113-.6S19.5,62.566,26.962,65.836,62.1,73.677,84.288,69.359s30.442-8.04,33.387-10.984,8.636-14.724,6.251-13.749A235.765,235.765,0,0,1,98.2,55.032c-15.122,5.095-37.94,11.779-83.251-4.517Z" transform="translate(7.981 35.951)" fill="#fff"/>
    </g>
  </g>
</svg>
