<svg xmlns="http://www.w3.org/2000/svg" width="34.47" height="38.367" viewBox="0 0 34.47 38.367">
  <g id="support" transform="translate(-26)">
    <g id="Group_116" data-name="Group 116" transform="translate(50.729 29.674)">
      <g id="Group_115" data-name="Group 115">
        <path id="Path_639" data-name="Path 639" d="M356.749,396a.749.749,0,1,0,.749.749A.75.75,0,0,0,356.749,396Z" transform="translate(-356 -396)" fill="#fff"/>
      </g>
    </g>
    <g id="Group_118" data-name="Group 118" transform="translate(26)">
      <g id="Group_117" data-name="Group 117">
        <path id="Path_640" data-name="Path 640" d="M53.323,27.251l-3.562-1.187-1.279-2.557A8.207,8.207,0,0,0,50.7,19.165l.159-.956h1.364a2.251,2.251,0,0,0,2.248-2.248V11.24a11.24,11.24,0,1,0-22.481,0v4.721a2.252,2.252,0,0,0,1.5,2.119v.878a2.251,2.251,0,0,0,2.248,2.248H36.4a8.129,8.129,0,0,0,1.257,1.946c.106.122.217.24.33.355l-1.278,2.556-3.562,1.187A11.045,11.045,0,0,0,26,37.617a.749.749,0,0,0,.749.749H59.721a.749.749,0,0,0,.749-.749A11.045,11.045,0,0,0,53.323,27.251Zm-.346-11.29a.75.75,0,0,1-.749.749H51.084c.19-1.475.317-3.046.368-4.592,0-.044,0-.086,0-.129h1.521Zm-18.734.749a.75.75,0,0,1-.749-.749V11.99h1.521q0,.117.008.236v.008h0c.052,1.5.178,3.033.364,4.476H34.243Zm1.5,3a.75.75,0,0,1-.749-.749v-.749h.614l.159.956c.03.182.068.363.111.543Zm-.748-9.217H33.522a9.742,9.742,0,0,1,19.426,0H51.477A7.59,7.59,0,0,0,43.906,3H42.564A7.59,7.59,0,0,0,34.993,10.491ZM42.564,4.5h1.341a6.093,6.093,0,0,1,6.073,6.1c0,.236,0,.441-.006.628,0,0,0,0,0,.007l-.937-.134a12.041,12.041,0,0,1-6.77-3.385.75.75,0,0,0-.53-.219,6.779,6.779,0,0,0-5.212,2.466A6.091,6.091,0,0,1,42.564,4.5ZM37.431,19.708a42.832,42.832,0,0,1-.9-7.273L37.54,11.09A5.275,5.275,0,0,1,41.44,9a13.554,13.554,0,0,0,7.384,3.581l1.1.158c-.074,1.565-.224,3.136-.44,4.58h0c-.069.464-.123.763-.261,1.6a6.365,6.365,0,0,1-4.518,5.119,5.9,5.9,0,0,1-6.619-2.831h1.528a2.252,2.252,0,0,0,2.119,1.5h1.5a2.248,2.248,0,1,0,0-4.5h-1.5a2.249,2.249,0,0,0-2.12,1.5Zm4.243,5.846a7.516,7.516,0,0,0,2.787.063l-1.324,1.4Zm.433,2.553L39.729,30.62a28.552,28.552,0,0,1-1.678-3.89l.893-1.785ZM47.4,24.691l1.019,2.039a28.544,28.544,0,0,1-1.678,3.892L44.2,28.077Zm-6.412-4.233a.749.749,0,0,1,.749-.749h1.5a.749.749,0,1,1,0,1.5h-1.5A.75.75,0,0,1,40.987,20.457ZM27.529,36.868a9.47,9.47,0,0,1,6.092-8.2l3.154-1.051a30.039,30.039,0,0,0,2.133,4.626l0,.008h0a30.048,30.048,0,0,0,2.051,3.132l.922,1.48ZM43.235,36.2l-1.016-1.632q-.017-.027-.036-.053a28.573,28.573,0,0,1-1.688-2.522l2.672-2.826,2.816,2.816a28.539,28.539,0,0,1-1.694,2.533C44.251,34.564,44.3,34.487,43.235,36.2Zm1.35.668.922-1.48a30.037,30.037,0,0,0,2.066-3.157l.011-.02v0a30.014,30.014,0,0,0,2.11-4.587l3.154,1.051a9.47,9.47,0,0,1,6.092,8.2H44.585Z" transform="translate(-26)" fill="#fff"/>
      </g>
    </g>
    <g id="Group_120" data-name="Group 120" transform="translate(53.362 31.105)">
      <g id="Group_119" data-name="Group 119">
        <path id="Path_641" data-name="Path 641" d="M394.467,417.819a7.492,7.492,0,0,0-2.121-2.575.749.749,0,0,0-.914,1.188,5.984,5.984,0,0,1,1.694,2.057.749.749,0,0,0,1.341-.67Z" transform="translate(-391.139 -415.088)" fill="#fff"/>
      </g>
    </g>
  </g>
</svg>
