<svg xmlns="http://www.w3.org/2000/svg" width="136.776" height="198.969" viewBox="0 0 136.776 198.969">
  <g id="Layer_2" data-name="Layer 2" transform="translate(0 -0.046)">
    <g id="Layer_1" data-name="Layer 1" transform="translate(0 0.046)">
      <path id="Path_643" data-name="Path 643" d="M49.954,84.959C50.132,68.085,35.32,59.709,21.5,68.511,13.769,73.419,9.466,82.505,8.328,92.143c-1.1,9.335,3.912,18.742,7.9,26.779,4.339,8.784,11.113,22.209,18.831,27.721,9.282,6.65,6.757-6.33,6.455-11.629a82.471,82.471,0,0,1,2.863-26.975c1.778-6.348,4.356-12.447,5.334-19.044a32.131,32.131,0,0,0,.32-4.036Z" transform="translate(6.36 50.472)" fill="#00a885"/>
      <path id="Path_644" data-name="Path 644" d="M45.266,84.959c-.178-16.875,14.634-25.25,28.45-16.448,7.735,4.908,12.038,13.994,13.176,23.632,1.1,9.335-3.912,18.742-7.9,26.779-4.3,8.784-11.06,22.209-18.8,27.721-9.282,6.65-6.757-6.33-6.455-11.629a82.471,82.471,0,0,0-2.863-26.975C49.106,101.692,46.528,95.593,45.55,89a32.134,32.134,0,0,1-.32-4.036Z" transform="translate(35.196 50.472)" fill="#00a885"/>
      <path id="Path_645" data-name="Path 645" d="M43.444,14.438c-2.489.462-4.765,1.974-7.308,2.258a37.449,37.449,0,0,1-6.917,0c-.765,0-1.671-.32-1.778-1.067a2.9,2.9,0,0,1,0-1.031c.213-2.881-3.112-2.792-5.032-3.094-.622-.089-1.4-.462-1.227-1.067a1.049,1.049,0,0,1,.427-.5,13.247,13.247,0,0,1,6.17-2.489c1.351-.178,4.765-.96,5.975-.462a13.176,13.176,0,0,1-3.467-2.152,1.778,1.778,0,0,1-.818-1.316,1.778,1.778,0,0,1,.693-1.049C33.486-.338,38.376-.374,42.608.693s8.126,3.2,12.358,4.2a33.911,33.911,0,0,1,2.543-2.738A9.78,9.78,0,0,1,61.332.5c1.423-.285,4.623-.2,5.334,1.387.622,1.3-3.112,4.57-1.156,5.334a1.6,1.6,0,0,0,.96,0,27.4,27.4,0,0,1,6.81-1.547A24.272,24.272,0,0,1,77.549,5.3c1.529,0,10.669,1.511,9.673,4.428-.213.6-.889.889-1.494,1.12-1.209.445-3.805.854-4.605,1.92s.249,2.916-.658,3.645a1.085,1.085,0,0,1-.711.16,153.849,153.849,0,0,1-21.231-1.085c-5.014-.711-10.1-1.938-15.079-1.014Z" transform="translate(16.462 -0.046)" fill="#28324e"/>
      <path id="Path_646" data-name="Path 646" d="M26.249,41.828c.711-1.067,1.476-2.116,2.258-3.13,4.908-6.366,10.135-11.594,13.6-19.026,1.174-2.525,4.036-13.265,8.215-12.447C42.91,5.856,35.14,7.687,28.17,10.159A97.584,97.584,0,0,0,17.5,14.8c-1.778.925-4.765,2.063-5.939,3.823C9.2,22.179,16.718,21.361,18.674,21.5c-1.191,0-4.534,3.556-5.441,4.428A37.768,37.768,0,0,0,8.752,30.2c-3.4,4.356,4.054,3.147,6.33,2.863a57.955,57.955,0,0,1-2.827,5.228,37.91,37.91,0,0,0-3.4,7.308c-.267.854-.32,2.1.551,2.312a1.618,1.618,0,0,0,1.12-.249l5.228-2.632c-1.28,5.334.3,10.669,1.867,16a62.591,62.591,0,0,1,8.713-19.1Z" transform="translate(6.131 5.176)" fill="#28324e"/>
      <path id="Path_647" data-name="Path 647" d="M67.986,41.828c-.711-1.067-1.476-2.116-2.258-3.13C60.82,32.332,55.592,27.1,52.143,19.672,50.952,17.147,48.089,6.407,43.91,7.225c7.415-1.369,15.185.462,22.156,2.934A99.343,99.343,0,0,1,76.841,14.8c1.778.925,4.748,2.063,5.921,3.823,2.383,3.556-5.157,2.738-7.113,2.881,1.191,0,4.552,3.556,5.441,4.428A37.768,37.768,0,0,1,85.572,30.2c3.414,4.356-4.054,3.147-6.312,2.863a57.81,57.81,0,0,0,2.809,5.228,36.879,36.879,0,0,1,3.4,7.308c.267.854.32,2.1-.551,2.312a1.618,1.618,0,0,1-1.12-.249l-5.228-2.685c1.28,5.334-.3,10.669-1.778,16a62.591,62.591,0,0,0-8.713-19.1Z" transform="translate(34.169 5.176)" fill="#28324e"/>
      <path id="Path_648" data-name="Path 648" d="M87.762,57.224c-1.067,2.258-2.134,4.5-3.005,6.828-2.045,5.37-3.041,11.451-.782,16.786.978,2.24,2.507,4.214,3.325,6.526,2.756,7.9-3.272,18.3-9.282,23.116a37.857,37.857,0,0,1-23.454,8.606c-9.744,0-17.6-4.57-25.659-9.478-7.219-4.392-6.259-13.354-4.428-20.84,1.778-7.113,4.09-14.865,1-21.516a51.745,51.745,0,0,0-4.072-6.33C5.558,36.918,27.732,5.8,54.564,5.8c20.4,0,43.583,20.858,36.932,42.427a68.976,68.976,0,0,1-3.734,9.033Z" transform="translate(12.526 4.431)" fill="#1abc9c"/>
      <path id="Path_649" data-name="Path 649" d="M68.388,132.133C30.62,132.133,0,112.467,0,88.213s30.62-43.9,68.388-43.9,68.388,19.666,68.388,43.9S106.156,132.133,68.388,132.133Z" transform="translate(0 34.398)" fill="#1abc9c"/>
      <path id="Path_650" data-name="Path 650" d="M11.478,61.794a2.116,2.116,0,1,1-.62-1.514,2.134,2.134,0,0,1,.62,1.514Z" transform="translate(5.611 46.343)" fill="#00a885"/>
      <path id="Path_651" data-name="Path 651" d="M16.951,63.683a3.2,3.2,0,1,1-3.2-3.183,3.2,3.2,0,0,1,3.2,3.183Z" transform="translate(8.21 46.996)" fill="#00a885"/>
      <path id="Path_652" data-name="Path 652" d="M14.051,59.17a1.6,1.6,0,1,1-1.583-1.6,1.6,1.6,0,0,1,1.583,1.6Z" transform="translate(8.443 44.716)" fill="#00a885"/>
      <path id="Path_653" data-name="Path 653" d="M82.423,38.867A31.047,31.047,0,1,1,51.377,7.82,31.047,31.047,0,0,1,82.423,38.867Z" transform="translate(15.82 6.003)" fill="#00a885"/>
      <path id="Path_654" data-name="Path 654" d="M75.8,36.851A26.441,26.441,0,1,1,49.361,10.41,26.441,26.441,0,0,1,75.8,36.851Z" transform="translate(17.835 8.019)" fill="#fff"/>
      <path id="Path_655" data-name="Path 655" d="M69.488,34.929A22.049,22.049,0,1,1,47.439,12.88,22.049,22.049,0,0,1,69.488,34.929Z" transform="translate(19.757 9.941)" fill="#fac51c"/>
      <path id="Path_656" data-name="Path 656" d="M57.934,31.412A14.012,14.012,0,1,1,43.922,17.4,14.012,14.012,0,0,1,57.934,31.412Z" transform="translate(23.275 13.458)"/>
      <path id="Path_657" data-name="Path 657" d="M57.638,22.959A10.669,10.669,0,1,1,46.969,12.29,10.669,10.669,0,0,1,57.638,22.959Z" transform="translate(28.247 9.482)" fill="#fff"/>
      <path id="Path_658" data-name="Path 658" d="M71.713,64.384A22.992,22.992,0,1,1,48.722,41.41,22.992,22.992,0,0,1,71.713,64.384Z" transform="translate(20.022 32.141)" fill="#00a885"/>
      <path id="Path_659" data-name="Path 659" d="M66.933,62.936A19.666,19.666,0,1,1,47.266,43.27,19.666,19.666,0,0,1,66.933,62.936Z" transform="translate(21.477 33.589)" fill="#fff"/>
      <path id="Path_660" data-name="Path 660" d="M62.229,61.5A16.395,16.395,0,1,1,45.835,45.11,16.395,16.395,0,0,1,62.229,61.5Z" transform="translate(22.909 35.021)" fill="#fac51c"/>
      <path id="Path_661" data-name="Path 661" d="M53.64,58.882a10.42,10.42,0,1,1-10.42-10.4,10.42,10.42,0,0,1,10.42,10.4Z" transform="translate(25.524 37.643)"/>
      <path id="Path_662" data-name="Path 662" d="M53.421,52.593a7.947,7.947,0,1,0-.036,0Z" transform="translate(29.228 34.686)" fill="#fff"/>
      <path id="Path_663" data-name="Path 663" d="M18.17,87.842a1.778,1.778,0,0,1,.213-.533c2.1-3.681,9.62-2.81,13.069-2.685A71.66,71.66,0,0,0,49.8,83.5,158.025,158.025,0,0,0,77.6,74.47c4.125-1.778,16.181-10.4,17.693-1.494C98.169,90.1,71.923,95.257,60.152,95.666a151.142,151.142,0,0,1-26.1-2.08,77.887,77.887,0,0,1-9.8-1.778c-1.689-.445-6.793-1.529-6.081-4.019Z" transform="translate(14.086 53.617)" fill="#00a885"/>
      <path id="Path_664" data-name="Path 664" d="M16.222,84.583a2.187,2.187,0,0,1,.231-.516c2.24-3.7,10.331-2.809,14.03-2.7a83.377,83.377,0,0,0,19.7-1.014A177.812,177.812,0,0,0,80.022,71.3c4.445-1.778,17.39-10.4,18.991-1.494,3.094,17.124-25.072,22.28-37.7,22.725a174.581,174.581,0,0,1-28.059-2.063A94.617,94.617,0,0,1,22.747,88.69c-1.778-.445-7.29-1.529-6.526-4.019Z" transform="translate(12.567 51.151)" fill="#f7da64"/>
      <path id="Path_665" data-name="Path 665" d="M18.17,86.35a1.778,1.778,0,0,1,.213-.516c2.1-3.7,9.62-2.809,13.069-2.685A72.479,72.479,0,0,0,49.8,82.029,158.022,158.022,0,0,0,77.6,73c4.125-1.778,16.181-10.42,17.693-1.511,2.881,17.141-23.365,22.3-35.136,22.725a151.143,151.143,0,0,1-26.1-2.063,81.229,81.229,0,0,1-9.8-1.778c-1.689-.462-6.793-1.529-6.081-4.036Z" transform="translate(14.086 52.46)" fill="#28324e"/>
      <path id="Path_666" data-name="Path 666" d="M70.475,65.562a15.257,15.257,0,0,1,3.076,3.983,13.442,13.442,0,0,1,1.4,3.805c.178.889.658,3.272.124,4.036a8.215,8.215,0,0,0,1.334-4.534,11.54,11.54,0,0,0-4.677-9.406A14.012,14.012,0,0,0,59.29,61.668a13.585,13.585,0,0,1,11.149,3.805Z" transform="translate(46.137 47.34)" fill="#1abc9c"/>
      <path id="Path_667" data-name="Path 667" d="M70.154,67.458a17.781,17.781,0,0,1,2.721,4.783A16.36,16.36,0,0,1,73.8,76.6a9.887,9.887,0,0,1-.3,4.481,9.478,9.478,0,0,0,1.778-4.872A13.8,13.8,0,0,0,71.613,65.2a12.892,12.892,0,0,0-12.163-3.29,13.034,13.034,0,0,1,10.669,5.495Z" transform="translate(46.261 47.791)" fill="#28324e"/>
      <path id="Path_668" data-name="Path 668" d="M32.324,82.5c.5,3.805,9.638,3.147,12.074,3.094,4.837-.107,11.878,0,16-3.023a2.738,2.738,0,0,0,1.014-1.191,1.956,1.956,0,0,0,0-1.1,3.556,3.556,0,0,0-1.778-2.258,7.539,7.539,0,0,0-2.667-.96c-3.556-.533-6.295.6-9.6,1.369a84,84,0,0,1-10.3,1.778c-2.169.231-4.943.836-4.748,2.312Z" transform="translate(25.146 59.776)" fill="#b8312f"/>
    </g>
  </g>
</svg>
