<svg xmlns="http://www.w3.org/2000/svg" width="35.581" height="38.367" viewBox="0 0 35.581 38.367">
  <g id="maintenance" transform="translate(-0.274 0)">
    <path id="Path_603" data-name="Path 603" d="M35.291,14.735l-3.3-.318a14.067,14.067,0,0,0-1.676-3.981l2.1-2.54a.627.627,0,0,0-.039-.843l-3.57-3.57a.627.627,0,0,0-.843-.039l-2.542,2.1a14.469,14.469,0,0,0-3.979-1.676L21.128.567A.627.627,0,0,0,20.5,0H15.625A.627.627,0,0,0,15,.567l-.319,3.305A14.459,14.459,0,0,0,10.7,5.548L8.162,3.443a.627.627,0,0,0-.843.039L3.749,7.053a.627.627,0,0,0-.039.843l2.1,2.539a14.061,14.061,0,0,0-1.677,3.981l-3.3.318a.624.624,0,0,0-.563.624v5.061a.623.623,0,0,0,.563.624l3.3.318a14.46,14.46,0,0,0,1.675,3.979L3.709,27.883a.627.627,0,0,0,.067.87l2.708,2.395a.627.627,0,0,0,.93-.111l3.892-5.584a.627.627,0,0,0-.071-.8,9.561,9.561,0,1,1,13.522,0,.627.627,0,0,0-.065.81l4.029,5.584a.627.627,0,0,0,.924.1l2.709-2.394a.627.627,0,0,0,.067-.87l-2.1-2.542a14.459,14.459,0,0,0,1.676-3.979l3.3-.318a.623.623,0,0,0,.563-.624V15.359a.624.624,0,0,0-.563-.624ZM34.6,19.851l-3.18.307a.624.624,0,0,0-.55.489,13.222,13.222,0,0,1-1.854,4.4.627.627,0,0,0,.042.743l2.008,2.424L29.332,29.75l-3.319-4.6a10.815,10.815,0,1,0-16.028.006l-3.2,4.587L5.062,28.216,7.07,25.791a.627.627,0,0,0,.042-.744,13.235,13.235,0,0,1-1.856-4.4.622.622,0,0,0-.548-.489l-3.18-.307V15.929l3.18-.307a.624.624,0,0,0,.551-.492,12.836,12.836,0,0,1,1.852-4.4.627.627,0,0,0-.04-.746L5.039,7.536,7.8,4.773,10.254,6.8A.626.626,0,0,0,11,6.846,13.228,13.228,0,0,1,15.4,4.99a.627.627,0,0,0,.489-.552l.307-3.184h3.74l.307,3.184a.627.627,0,0,0,.488.552,13.228,13.228,0,0,1,4.4,1.856.626.626,0,0,0,.743-.042l2.452-2.031,2.763,2.763L29.058,9.989a.627.627,0,0,0-.04.746,12.838,12.838,0,0,1,1.853,4.4.622.622,0,0,0,.549.492l3.18.307Zm0,0" transform="translate(0)" fill="#fff"/>
    <path id="Path_604" data-name="Path 604" d="M168.276,148.716V139.2a5.23,5.23,0,0,0,2.618-4.43,4.6,4.6,0,0,0-3.732-4.753.627.627,0,0,0-.766.66l.207,2.661a1.8,1.8,0,0,1-1.672,0l.223-2.675a.627.627,0,0,0-.8-.654,5.066,5.066,0,0,0-.46,9.436v9.483a5.187,5.187,0,0,0-2.6,4.413,4.674,4.674,0,0,0,3.686,4.786.628.628,0,0,0,.779-.657l-.206-2.66a1.8,1.8,0,0,1,1.672,0l-.223,2.676a.627.627,0,0,0,.8.654,5.048,5.048,0,0,0,.47-9.419Zm.067,7.826.167-2a.627.627,0,0,0-.245-.551l-.024-.018a3.055,3.055,0,0,0-3.726.024.627.627,0,0,0-.237.541l.16,2.062a3.431,3.431,0,0,1-1.882-3.265,3.934,3.934,0,0,1,2.235-3.46.623.623,0,0,0,.357-.568V139a.624.624,0,0,0-.442-.6,3.593,3.593,0,0,1-2.564-3.6,3.635,3.635,0,0,1,1.674-3.2l-.166,2a.626.626,0,0,0,.246.551l.023.018a3.053,3.053,0,0,0,3.723-.021l.017-.013a.628.628,0,0,0,.224-.531l-.162-2.085a3.359,3.359,0,0,1,1.92,3.245,4.011,4.011,0,0,1-2.26,3.486.627.627,0,0,0-.358.566V149.16a.627.627,0,0,0,.446.6,3.593,3.593,0,0,1,2.566,3.589,3.665,3.665,0,0,1-1.692,3.192Zm0,0" transform="translate(-148.026 -119.793)" fill="#fff"/>
  </g>
</svg>
