<svg xmlns="http://www.w3.org/2000/svg" width="32.926" height="32.146" viewBox="0 0 32.926 32.146">
  <g id="chat_1_" data-name="chat (1)" transform="translate(0)">
    <g id="Group_112" data-name="Group 112" transform="translate(0 0)">
      <path id="Path_608" data-name="Path 608" d="M8.8,248.935H8.44a3.73,3.73,0,1,0-5,0H3.081A3.084,3.084,0,0,0,0,252.016v2.858a.482.482,0,0,0,.482.482H11.4a.482.482,0,0,0,.482-.482v-2.858A3.084,3.084,0,0,0,8.8,248.935Zm-5.624-2.766a2.766,2.766,0,1,1,2.766,2.766A2.769,2.769,0,0,1,3.173,246.169Zm7.74,8.223H9.15v-.817a.482.482,0,1,0-.965,0v.817H3.693v-.817a.482.482,0,1,0-.965,0v.817H.965v-2.376A2.119,2.119,0,0,1,3.081,249.9H8.8a2.119,2.119,0,0,1,2.116,2.116Z" transform="translate(0 -227.238)" fill="#fff"/>
      <path id="Path_609" data-name="Path 609" d="M336.086,311.565h-.358a3.73,3.73,0,1,0-5,0h-.358a3.084,3.084,0,0,0-3.081,3.08V317.5a.482.482,0,0,0,.482.482H332.1a.482.482,0,0,0,0-.965h-1.121V316.2a.482.482,0,0,0-.965,0v.817h-1.764v-2.376a2.118,2.118,0,0,1,2.116-2.116h5.716a2.118,2.118,0,0,1,2.116,2.116v2.376h-1.764V316.2a.482.482,0,0,0-.965,0v.817h-1.12a.482.482,0,0,0,0,.965h4.331a.482.482,0,0,0,.482-.482v-2.858A3.084,3.084,0,0,0,336.086,311.565Zm-5.624-2.766a2.766,2.766,0,1,1,2.766,2.766A2.769,2.769,0,0,1,330.463,308.8Z" transform="translate(-306.242 -285.84)" fill="#fff"/>
      <path id="Path_610" data-name="Path 610" d="M31.144,10.088H25.479a.482.482,0,1,0,0,.965h5.666a.818.818,0,0,1,.817.817V22.263a.818.818,0,0,1-.817.817H21.919a.482.482,0,0,0-.482.482V25l-1.775-1.775a.482.482,0,0,0-.341-.141H15.553a.818.818,0,0,1-.817-.817V11.869a.818.818,0,0,1,.817-.817h7.674a.482.482,0,1,0,0-.965H19.154V7.841A1.784,1.784,0,0,0,17.372,6.06H1.781A1.783,1.783,0,0,0,0,7.841V18.235a1.783,1.783,0,0,0,1.781,1.781H4.487a.482.482,0,1,0,0-.965H1.781a.818.818,0,0,1-.817-.817V7.841a.818.818,0,0,1,.817-.817H17.372a.818.818,0,0,1,.817.817v2.246H15.553a1.784,1.784,0,0,0-1.782,1.781v7.183H13.6a.483.483,0,0,0-.341.141l-1.775,1.775V19.534a.482.482,0,0,0-.482-.482H6.738a.482.482,0,1,0,0,.965h3.787v2.116a.482.482,0,0,0,.823.341l2.424-2.425v2.214a1.784,1.784,0,0,0,1.782,1.781h3.568L21.578,26.5a.482.482,0,0,0,.823-.341V24.044h8.743a1.783,1.783,0,0,0,1.781-1.781V11.869a1.783,1.783,0,0,0-1.781-1.781Z" transform="translate(0 -6.06)" fill="#fff"/>
    </g>
  </g>
</svg>
