<svg id="Layer_2" data-name="Layer 2" xmlns="http://www.w3.org/2000/svg" width="201.407" height="279.658" viewBox="0 0 201.407 279.658">
  <g id="Layer_1" data-name="Layer 1">
    <path id="Path_259" data-name="Path 259" d="M93.1,44.2A40.877,40.877,0,1,1,81.174,15.216,40.877,40.877,0,0,1,93.1,44.2Z" transform="translate(16.349 4.609)" fill="#53acd2"/>
    <path id="Path_260" data-name="Path 260" d="M96.256,55.248A31.408,31.408,0,1,1,64.848,23.84,31.408,31.408,0,0,1,96.256,55.248Z" transform="translate(48.167 34.339)" fill="#53acd2"/>
    <path id="Path_261" data-name="Path 261" d="M188.811,94.131c0,18.62-7.15,37.948-14.13,54.909-8.541,20.743-24.7,39.608-17.083,63.255,1.586,4.881,3.856,10.421.879,14.642a12.739,12.739,0,0,1-7.443,3.9c-33.629,8.346-72.114-8-95.176-32.555-11.4-12.2-23.355-27.113-30.115-42.268C17.348,137.18,8.66,115.143,8.66,94.131c0-34.166,40.315-61.791,90.051-61.791s90.051,27.674,90.051,61.791Z" transform="translate(12.474 46.583)" fill="#53acd2"/>
    <path id="Path_262" data-name="Path 262" d="M111.786,41.874A31.408,31.408,0,1,1,80.4,10.49,31.408,31.408,0,0,1,111.786,41.874Z" transform="translate(70.537 15.11)" fill="#53acd2"/>
    <path id="Path_263" data-name="Path 263" d="M61.85,10.49h0V73.282h0a31.408,31.408,0,0,0,0-62.792Z" transform="translate(89.089 15.11)" fill="#4a97b8"/>
    <path id="Path_264" data-name="Path 264" d="M28.806,3.229h-1.2V84.958h1.2a40.9,40.9,0,0,0,0-81.778Z" transform="translate(39.77 4.58)" fill="#4a97b8"/>
    <path id="Path_265" data-name="Path 265" d="M131.628,69.873c0,19.23-23.989,34.825-53.689,34.825S24.25,89.1,24.25,69.873c0-8.249,6.784-18.059,14.179-21.768,6.54-3.27,13.715-.781,20.377.561a60.253,60.253,0,0,0,28.284.024c9.347-2.294,22.525-7.321,31.725-2.611C126.942,50.3,131.823,61.136,131.8,69.9Z" transform="translate(34.93 63.568)" fill="#98bbd4"/>
    <path id="Path_266" data-name="Path 266" d="M18.05,53.48a2.66,2.66,0,1,1-2.66-2.66A2.66,2.66,0,0,1,18.05,53.48Z" transform="translate(18.336 73.201)" fill="#b7cedf"/>
    <path id="Path_267" data-name="Path 267" d="M23.775,55.582a3.978,3.978,0,1,1-1.156-2.828,4,4,0,0,1,1.156,2.828Z" transform="translate(22.715 74.296)" fill="#b7cedf"/>
    <path id="Path_268" data-name="Path 268" d="M20.052,50.911a2,2,0,1,1-2-2A2,2,0,0,1,20.052,50.911Z" transform="translate(23.118 70.45)" fill="#b7cedf"/>
    <path id="Path_269" data-name="Path 269" d="M80.274,40.3A33.092,33.092,0,1,1,47.182,7.21,33.092,33.092,0,0,1,80.274,40.3Z" transform="translate(20.295 10.385)" fill="#fff"/>
    <path id="Path_270" data-name="Path 270" d="M71.582,37.047a27.6,27.6,0,1,1-8.127-19.536A27.6,27.6,0,0,1,71.582,37.047Z" transform="translate(23.594 13.641)" fill="#cddc36"/>
    <path id="Path_271" data-name="Path 271" d="M55.553,31.112a17.522,17.522,0,1,1-5.141-12.4A17.546,17.546,0,0,1,55.553,31.112Z" transform="translate(29.471 19.575)"/>
    <path id="Path_272" data-name="Path 272" d="M52.959,22.265a13.3,13.3,0,1,1-3.887-9.42,13.325,13.325,0,0,1,3.887,9.42Z" transform="translate(37.897 12.877)" fill="#fff"/>
    <path id="Path_273" data-name="Path 273" d="M131.379,65.867c.342,19.23-23.4,35.239-53.006,35.752S24.416,86.952,24,67.722c-.146-8.249,6.467-18.181,13.788-21.964,6.467-3.368,13.691-1,20.377.2a60.107,60.107,0,0,0,28.04-.464c9.347-2.44,22.4-7.712,31.6-3.148,8.2,4.075,13.251,14.813,13.4,23.574Z" transform="translate(34.568 58.398)" fill="#98bbd4"/>
    <path id="Path_274" data-name="Path 274" d="M131.628,68.568c0,19.23-23.989,34.825-53.689,34.825S24.25,87.8,24.25,68.568c0-8.249,6.784-18.059,14.179-21.768,6.54-3.27,13.715-.781,20.377.537a59.936,59.936,0,0,0,28.065,0c9.347-2.44,22.525-7.321,31.725-2.611,8.127,4.222,13.007,15.033,12.983,23.818Z" transform="translate(34.93 61.579)" fill="#28324e"/>
    <path id="Path_275" data-name="Path 275" d="M71.573,77C54.71,77,39.482,72.831,28.72,66.12c9.762,8.444,25.331,13.91,42.853,13.91s33.092-5.466,42.878-13.91C103.689,72.831,88.461,77,71.573,77Z" transform="translate(41.368 95.24)" fill="#4c9dc0"/>
    <path id="Path_276" data-name="Path 276" d="M66.495,107.572A64.646,64.646,0,0,1,30.45,93.32c7.76,9.2,20.695,15.887,35.8,17.278s28.992-2.831,38.046-10.469a63.646,63.646,0,0,1-37.8,7.321Z" transform="translate(43.86 134.419)" fill="#4c9dc0"/>
    <path id="Path_277" data-name="Path 277" d="M74.341,115.628a62.328,62.328,0,0,1-38.021-4.173c9.4,6.833,23.379,9.762,38.388,7.175a56.349,56.349,0,0,0,35.069-20.28,67.99,67.99,0,0,1-35.435,17.278Z" transform="translate(52.315 141.664)" fill="#4c9dc0"/>
    <path id="Path_278" data-name="Path 278" d="M74.906,120.981a49.272,49.272,0,0,1-33.726-2.123c8.737,6.3,21.232,8.517,34.166,5.076A48.369,48.369,0,0,0,104.8,101.97a57.081,57.081,0,0,1-29.895,19.011Z" transform="translate(59.316 146.878)" fill="#4c9dc0"/>
    <path id="Path_279" data-name="Path 279" d="M87.684,105A59.4,59.4,0,0,1,56.74,128.159c2.44.2,5.076.293,7.59.244q1.171-.512,2.44-1.1a49.419,49.419,0,0,0,21.378-21.012L87.782,105Z" transform="translate(81.729 151.242)" fill="#4c9dc0"/>
    <path id="Path_280" data-name="Path 280" d="M68.088,76.323C54.715,77.274,39.535,75,35.679,69.587c-3.2-4.539,3.807-8.078,10.982-8.053,5.662,0,10.421,1.611,15.96,1.464a55.275,55.275,0,0,0,10.762-1.562,27.894,27.894,0,0,1,10.421-1.1A7.175,7.175,0,0,1,90.2,65.219c1.025,6.491-9.762,10.152-22.11,11.055Z" transform="translate(50.247 86.77)" fill="#98bbd4"/>
    <path id="Path_281" data-name="Path 281" d="M89.2,51.737s0-1.147-.171-3.319V46.612a15.254,15.254,0,0,0-.317-2.148c-.122-.781-.244-1.611-.366-2.44s-.439-1.806-.659-2.782a47.637,47.637,0,0,0-5.515-13.325,48.271,48.271,0,0,0-12.2-13.764A41.487,41.487,0,0,0,50.443,3.9,39.34,39.34,0,0,0,38.729,4.2a42.8,42.8,0,0,0-5.857,1.464c-.952.342-1.879.757-2.855,1.147a20.938,20.938,0,0,0-2.806,1.318A29.7,29.7,0,0,0,24.4,9.615L21.72,11.4c-.854.61-1.659,1.342-2.44,2l-1.22,1.025L16.912,15.57a46.368,46.368,0,0,0-7.931,10.4A50.3,50.3,0,0,0,3.831,38.314L3,41.609c-.22,1.1-.366,2.2-.561,3.319l-.268,1.659L2.05,48.32l-.244,3.417v5.125L2,58.57c.146,1.123.244,2.27.415,3.392L3.1,65.305A52.761,52.761,0,0,0,7.98,77.971a43.244,43.244,0,0,0,8.053,10.616L17.2,89.758l1.269,1.049c.854.683,1.659,1.415,2.44,2.026l2.709,1.757A31.5,31.5,0,0,0,26.454,96.1a18.034,18.034,0,0,0,2.88,1.318l2.928,1.1a40.9,40.9,0,0,0,5.955,1.342,23.135,23.135,0,0,0,2.977.342h3.075a19.463,19.463,0,0,0,2.88-.146,23.04,23.04,0,0,0,2.88-.293A42.39,42.39,0,0,0,69.552,91.3a48.808,48.808,0,0,0,12.2-13.813,46.783,46.783,0,0,0,5.491-13.325c.244-.976.512-1.9.683-2.782s.244-1.708.366-2.44.2-1.489.293-2.148a11.127,11.127,0,0,0,0-1.806,25.108,25.108,0,0,1,.171-3.319Zm.317,0v5.149a19.119,19.119,0,0,1-.293,2.172c-.1.781-.2,1.635-.293,2.44s-.366,1.83-.561,2.831c-.366,2.026-1.049,4.173-1.733,6.54a57.839,57.839,0,0,1-3.075,7.321A48.808,48.808,0,0,1,71.748,93.37a40,40,0,0,1-20.89,9.274,22.11,22.11,0,0,1-3.1.244,27.7,27.7,0,0,1-3.2,0,38.633,38.633,0,0,1-6.272-.781,43.757,43.757,0,0,1-6.565-1.586c-1-.415-2-.879-3-1.318a22.45,22.45,0,0,1-2.88-1.586c-.927-.586-1.952-1.049-2.831-1.733L20.3,93.907c-.9-.683-1.684-1.489-2.562-2.2l-1.269-1.123-1.147-1.245c-.757-.83-1.611-1.586-2.294-2.44l-2.123-2.684c-.708-.9-1.269-1.9-1.9-2.831l-.952-1.44-.732-1.489A53.225,53.225,0,0,1,2.026,65.6L1.2,62.206c-.244-1.147-.39-2.294-.561-3.465L.342,57.008.22,55.251,0,51.737V46.49l.2-1.781A20.938,20.938,0,0,1,.61,41.17L1.318,37.7A52.518,52.518,0,0,1,6.2,24.55a47.881,47.881,0,0,1,8.444-11.2L15.814,12.2c.415-.39.854-.757,1.293-1.123.879-.732,1.708-1.537,2.636-2.221l2.806-1.952A26.843,26.843,0,0,1,25.478,5.2a20.328,20.328,0,0,1,3-1.513c1.025-.439,2.05-.879,3.1-1.269A43.024,43.024,0,0,1,37.973.683,41.194,41.194,0,0,1,44.415,0h3.148a22.207,22.207,0,0,1,3.051.293A40.73,40.73,0,0,1,71.6,9.81a49.467,49.467,0,0,1,11.787,15.2,53.445,53.445,0,0,1,3.075,7.321,63.451,63.451,0,0,1,1.708,6.516c.2,1,.439,1.952.561,2.831s.22,1.757.317,2.44.2,1.513.268,2.172a14.826,14.826,0,0,1,0,1.806v3.343Z" fill="#4554a5"/>
    <path id="Path_282" data-name="Path 282" d="M117.518,87.908c0-21.329-15.765-40.169-39.754-51.248A86.122,86.122,0,0,1,94.139,75.706c6.516,36.8-31.994,82.046-35.7,113.088C55.8,210.758,72.37,220.3,82.181,223.912a10.2,10.2,0,0,0,5.125-3.392c2.977-4.1.708-9.762-.879-14.642-7.736-23.648,8.419-42.512,17.083-63.255,6.98-17.083,14.13-36.289,14.13-54.909Z" transform="translate(83.767 52.805)" fill="#4a97b8"/>
    <path id="Path_283" data-name="Path 283" d="M100.617,37.769a24.624,24.624,0,1,1-24.624-24.6,24.624,24.624,0,0,1,24.624,24.6Z" transform="translate(73.994 18.97)" fill="#fff"/>
    <path id="Path_284" data-name="Path 284" d="M94.1,35.349a20.5,20.5,0,1,1-6.013-14.5A20.524,20.524,0,0,1,94.1,35.349Z" transform="translate(76.413 21.39)" fill="#cddc36"/>
    <path id="Path_285" data-name="Path 285" d="M82.222,30.942A13.056,13.056,0,1,1,69.166,17.91,13.056,13.056,0,0,1,82.222,30.942Z" transform="translate(80.821 25.798)"/>
    <path id="Path_286" data-name="Path 286" d="M80.286,24.358a9.908,9.908,0,1,1-9.908-9.908A9.908,9.908,0,0,1,80.286,24.358Z" transform="translate(87.101 20.814)" fill="#fff"/>
    <path id="Path_287" data-name="Path 287" d="M36.73,27.053s.561-.488,1.611-1.22a41.487,41.487,0,0,1,4.539-2.806A47.418,47.418,0,0,1,49.859,20a37.364,37.364,0,0,1,4.173-1.123,43.732,43.732,0,0,1,4.417-.635,34.41,34.41,0,0,1,4.49,0,24.4,24.4,0,0,1,4.3.732,21.451,21.451,0,0,1,3.831,1.367A24.063,24.063,0,0,1,74.239,22.1a17.62,17.62,0,0,1,2.44,1.806c.659.635,1.269,1.147,1.708,1.611l1.342,1.513L78.168,25.76c-.488-.415-1.147-.83-1.855-1.367a28.068,28.068,0,0,0-2.44-1.513,31.724,31.724,0,0,0-3.148-1.44,32.9,32.9,0,0,0-3.709-1.049,27.772,27.772,0,0,0-4.075-.537,31.189,31.189,0,0,0-4.271,0A42.781,42.781,0,0,0,50.4,21.367a53.861,53.861,0,0,0-7,2.44c-2,.879-3.661,1.635-4.881,2.245L36.754,27Z" transform="translate(52.906 26.172)" fill="#4554a5"/>
    <path id="Path_288" data-name="Path 288" d="M118.761,51.6a16.364,16.364,0,0,1,.268-2.44V46.187a25.794,25.794,0,0,0,0-4.027,37.826,37.826,0,0,0-2.44-10.518,36.435,36.435,0,0,0-6.76-11.763,31.725,31.725,0,0,0-5.784-5.125,32.408,32.408,0,0,0-3.49-2c-.61-.268-1.22-.61-1.855-.854l-1.9-.635a25.868,25.868,0,0,0-8.663-1.147,27.479,27.479,0,0,0-4.417.488,35.189,35.189,0,0,0-4.344,1.269,30.066,30.066,0,0,0-4.222,1.952,32.847,32.847,0,0,0-3.929,2.684,37.193,37.193,0,0,0-3.612,3.2,43,43,0,0,0-3.173,3.758,40.632,40.632,0,0,0-2.782,4.124c-.415.708-.757,1.464-1.147,2.2a16.325,16.325,0,0,0-1.074,2.294L58.459,34.4l-.781,2.44-.415,1.2L56.97,39.3l-.586,2.44A40.852,40.852,0,0,0,57.507,61.9a32.9,32.9,0,0,0,4.344,8.981,36.215,36.215,0,0,0,3.05,3.831,31.188,31.188,0,0,0,3.612,3.148,30.7,30.7,0,0,0,3.9,2.44,27.308,27.308,0,0,0,4.173,1.708,19.521,19.521,0,0,0,2.123.61l2.27.439a18.058,18.058,0,0,0,2,.268,12.372,12.372,0,0,0,2.123,0,29.431,29.431,0,0,0,8.1-1.22,34.432,34.432,0,0,0,7.077-3.148,37.435,37.435,0,0,0,10.323-9.078,38.045,38.045,0,0,0,5.466-9.3,28.746,28.746,0,0,0,1.342-3.783c.171-.561.317-1.1.464-1.562l.268-1.342c.342-1.586.512-2.44.512-2.44Zm.317,0s-.171.854-.464,2.44l-.268,1.342a6.516,6.516,0,0,1-.439,1.586,35.558,35.558,0,0,1-1.2,3.88,44.417,44.417,0,0,1-4.881,9.957,36.777,36.777,0,0,1-10.079,10.421,25.72,25.72,0,0,1-3.587,2.123,37.049,37.049,0,0,1-4,1.635,25.794,25.794,0,0,1-4.368.976c-.757,0-1.513.244-2.294.293h-2.44a15.668,15.668,0,0,1-2.44-.171,17.96,17.96,0,0,1-2.44-.342L78.1,85.209a18.962,18.962,0,0,1-2.318-.83,29.041,29.041,0,0,1-4.466-2.172,36.413,36.413,0,0,1-4-3,37.8,37.8,0,0,1-3.539-3.587,45.516,45.516,0,0,1-2.953-4.149A49.492,49.492,0,0,1,58.386,67a48.268,48.268,0,0,1-1.879-4.881,44.8,44.8,0,0,1-2.074-10.2,47.857,47.857,0,0,1,.146-10.567l.439-2.587.22-1.293.317-1.293.683-2.611.879-2.44a21.967,21.967,0,0,1,1.025-2.44c.39-.805.732-1.635,1.147-2.44a40.755,40.755,0,0,1,2.782-4.515,36.143,36.143,0,0,1,3.295-4.149A40.9,40.9,0,0,1,69.2,14a43.438,43.438,0,0,1,4.271-3.075A34.166,34.166,0,0,1,78.1,8.653a28.332,28.332,0,0,1,4.881-1.537,31.433,31.433,0,0,1,4.881-.586h2.44l2.44.244h1.269l1.1.268a11.421,11.421,0,0,1,2.245.61l2.294.805c.732.293,1.391.683,2.1,1.025a26.6,26.6,0,0,1,3.856,2.44,30.432,30.432,0,0,1,6.028,5.979,37.094,37.094,0,0,1,6.345,13.081,44.83,44.83,0,0,1,1.537,10.957,36.2,36.2,0,0,1,0,4.075v1.635a3.571,3.571,0,0,1-.171,1.367l-.317,2.44Z" transform="translate(78.082 9.406)" fill="#4554a5"/>
  </g>
</svg>
