<svg xmlns="http://www.w3.org/2000/svg" width="38.367" height="38.367" viewBox="0 0 38.367 38.367">
  <g id="implement" transform="translate(0 0)">
    <path id="Path_612" data-name="Path 612" d="M3.2,119.333H31.972a.639.639,0,0,0,.639-.639V102.068H31.333v15.986H3.2a1.918,1.918,0,1,1,0-3.837H4.476a.639.639,0,0,0,.639-.639V94.394H15.347V93.116H5.116V88.639A.639.639,0,0,0,4.476,88H3.2A3.2,3.2,0,0,0,0,91.2v24.938A3.2,3.2,0,0,0,3.2,119.333ZM1.279,93.755V91.2A1.918,1.918,0,0,1,3.2,89.279h.639v23.66H3.2a3.184,3.184,0,0,0-1.918.639Zm0,0" transform="translate(0 -80.966)" fill="#fff"/>
    <path id="Path_613" data-name="Path 613" d="M88.313,192H80.639a.639.639,0,0,0-.639.639v5.116a.639.639,0,0,0,.639.639h7.673a.639.639,0,0,0,.639-.639v-1.918H91.51v-1.279H88.952v-1.918A.639.639,0,0,0,88.313,192Zm-.639,5.116H81.279v-3.837h6.394Zm0,0" transform="translate(-73.606 -176.653)" fill="#fff"/>
    <path id="Path_614" data-name="Path 614" d="M94.707,298.231h7.673a.639.639,0,0,0,.639-.639v-5.116a.639.639,0,0,0-.639-.639h-3.2V288H97.9v3.837h-3.2a.639.639,0,0,0-.639.639v1.918H88.952v-1.918a.639.639,0,0,0-.639-.639H80.639a.639.639,0,0,0-.639.639v5.116a.639.639,0,0,0,.639.639h7.673a.639.639,0,0,0,.639-.639v-1.918h5.116v1.918A.639.639,0,0,0,94.707,298.231Zm.639-5.116h6.394v3.837H95.347Zm-7.673,3.837H81.279v-3.837h6.394Zm0,0" transform="translate(-73.606 -264.98)" fill="#fff"/>
    <path id="Path_615" data-name="Path 615" d="M277.755,64a5.755,5.755,0,1,0,5.755,5.755A5.755,5.755,0,0,0,277.755,64Zm0,10.231a4.476,4.476,0,1,1,4.476-4.476A4.476,4.476,0,0,1,277.755,74.231Zm0,0" transform="translate(-250.259 -58.884)" fill="#fff"/>
    <path id="Path_616" data-name="Path 616" d="M229.1,13.428a.639.639,0,0,0,.639-.639V8.952a.639.639,0,0,0-.639-.639h-2.33a8.47,8.47,0,0,0-.506-1.221l1.65-1.644a.639.639,0,0,0,0-.905L225.2,1.824a.638.638,0,0,0-.9,0l-1.647,1.65a8.507,8.507,0,0,0-1.221-.506V.639A.639.639,0,0,0,220.789,0h-3.837a.639.639,0,0,0-.639.639v2.33a8.507,8.507,0,0,0-1.221.506l-1.645-1.65a.638.638,0,0,0-.9,0L209.824,4.54a.639.639,0,0,0,0,.905l1.65,1.644a8.454,8.454,0,0,0-.505,1.223h-2.33a.639.639,0,0,0-.639.639v3.837a.639.639,0,0,0,.639.639h2.33a8.473,8.473,0,0,0,.506,1.221l-1.65,1.644a.639.639,0,0,0,0,.906l2.715,2.711a.64.64,0,0,0,.9,0l1.645-1.644a8.55,8.55,0,0,0,1.224.506V21.1a.639.639,0,0,0,.639.639h3.837a.639.639,0,0,0,.639-.639v-2.33a8.514,8.514,0,0,0,1.222-.506l1.645,1.644a.64.64,0,0,0,.9,0l2.718-2.711a.639.639,0,0,0,0-.906l-1.65-1.644a8.464,8.464,0,0,0,.506-1.221Zm-3.425-.8a7.313,7.313,0,0,1-.753,1.817.639.639,0,0,0,.1.775l1.535,1.53-1.812,1.808-1.529-1.531a.64.64,0,0,0-.774-.1,7.282,7.282,0,0,1-1.817.753.64.64,0,0,0-.478.618v2.168h-2.558V18.294a.639.639,0,0,0-.476-.618,7.283,7.283,0,0,1-1.817-.753.64.64,0,0,0-.774.1l-1.53,1.53-1.812-1.807,1.535-1.53a.639.639,0,0,0,.1-.775,7.313,7.313,0,0,1-.753-1.817.639.639,0,0,0-.618-.476h-2.168V9.592h2.168a.639.639,0,0,0,.618-.476,7.313,7.313,0,0,1,.753-1.817.639.639,0,0,0-.1-.775l-1.535-1.53,1.812-1.812,1.53,1.535a.639.639,0,0,0,.775.1,7.283,7.283,0,0,1,1.817-.753.64.64,0,0,0,.476-.618V1.279h2.558V3.447a.639.639,0,0,0,.476.618,7.283,7.283,0,0,1,1.817.753.639.639,0,0,0,.776-.1l1.53-1.535,1.812,1.812-1.535,1.53a.639.639,0,0,0-.1.775,7.324,7.324,0,0,1,.753,1.817.639.639,0,0,0,.616.476h2.168v2.558h-2.168a.639.639,0,0,0-.618.476Zm0,0" transform="translate(-191.374)" fill="#fff"/>
    <path id="Path_617" data-name="Path 617" d="M314.558,104a2.558,2.558,0,1,0,2.558,2.558A2.558,2.558,0,0,0,314.558,104Zm0,3.837a1.279,1.279,0,1,1,1.279-1.279A1.279,1.279,0,0,1,314.558,107.837Zm0,0" transform="translate(-287.062 -95.687)" fill="#fff"/>
  </g>
</svg>
