<svg xmlns="http://www.w3.org/2000/svg" width="281.924" height="216.86" viewBox="0 0 281.924 216.86">
  <g id="Layer_2" data-name="Layer 2" transform="translate(-0.038)">
    <g id="Layer_1" data-name="Layer 1" transform="translate(0.038)">
      <path id="Path_365" data-name="Path 365" d="M68.72,134.081H97.983L111.54,74.69H68.72v59.391Z" transform="translate(76.082 82.779)" fill="#fac51e"/>
      <path id="Path_366" data-name="Path 366" d="M119.066,111.726C118.16,102.26,107.26,94.86,93.893,94.86s-24.267,7.506-25.173,16.866Z" transform="translate(76.082 105.134)" fill="#fac51e"/>
      <path id="Path_367" data-name="Path 367" d="M23.149,104.206a23.656,23.656,0,0,0-2.888-1.6,6.009,6.009,0,0,0-.337-1.16,5.966,5.966,0,0,0-4.048-3.226,26.733,26.733,0,0,1-.506-5.06c0-15.306,12.65-27.809,28.715-28.947L43.136,61.7a41.112,41.112,0,0,0-1.581-3.858c-.169-.337-1.581-2.509-1.075-2.108a6.494,6.494,0,0,1-2.7-4.406C16.655,55.1.78,72.392.78,93.159a40.058,40.058,0,0,0,1.286,9.74,6.852,6.852,0,0,0-1.687,7v.148a21.884,21.884,0,0,0-.316,3.69c0,4.449,1.244,8.054,2.762,8.054s2.825-3.69,2.825-8.054V113.4h1.2a1.628,1.628,0,0,0,.148.822c.97,4.343,2.973,7.611,4.449,7.274s1.919-4.217.949-8.433a.779.779,0,0,0-.148-.548l.738-.3.464-.211c.19.4.379.822.59,1.223,2.108,3.964,4.786,6.6,6.135,5.9s.8-4.47-1.244-8.433c-.337-.654-.717-1.286-1.075-1.855a13.177,13.177,0,0,0,.843-1.054c.422.337.885.654,1.37.97,3.732,2.446,7.421,3.373,8.265,2.108s-1.518-4.217-5.25-6.725Z" transform="translate(-0.038 56.889)" fill="#f8971d"/>
      <path id="Path_368" data-name="Path 368" d="M133.825,104.206a23.85,23.85,0,0,1,2.909-1.6,5.923,5.923,0,0,1,.316-1.16,6.009,6.009,0,0,1,4.048-3.226,26.73,26.73,0,0,0,.506-5.06c0-15.306-12.65-27.809-28.715-28.947.337-.843.633-1.687.949-2.509.506-1.307.97-2.614,1.581-3.858.169-.337,1.581-2.509,1.075-2.108a6.515,6.515,0,0,0,2.72-4.406c21.083,3.795,36.916,21.083,36.916,41.85a40.057,40.057,0,0,1-1.223,9.74,6.852,6.852,0,0,1,1.623,7,.9.9,0,0,0,0,.148,21.882,21.882,0,0,1,.316,3.69c0,4.449-1.244,8.054-2.762,8.054s-2.762-3.605-2.762-8.054v-.337h-1.2a1.627,1.627,0,0,1-.148.822c-.97,4.343-2.952,7.611-4.449,7.274s-1.9-4.217-.928-8.433l.126-.548-.738-.3-.464-.211c-.19.4-.358.822-.59,1.223-2.108,3.964-4.786,6.6-6.135,5.9s-.8-4.47,1.244-8.433a19.551,19.551,0,0,1,1.1-1.855,9.72,9.72,0,0,1-.843-1.054c-.443.337-.907.654-1.391.97-3.732,2.446-7.421,3.373-8.243,2.108s1.5-4.217,5.229-6.725Z" transform="translate(125.036 56.889)" fill="#f8971d"/>
      <path id="Path_369" data-name="Path 369" d="M228.54,88c0,38.54-47.5,63.123-106.111,63.123S16.36,126.545,16.36,88,63.86,18.22,122.471,18.22,228.54,49.381,228.54,88Z" transform="translate(18.051 20.193)" fill="#fac51e"/>
      <path id="Path_370" data-name="Path 370" d="M143.084,50.072A50.072,50.072,0,1,1,93.012,0a50.072,50.072,0,0,1,50.072,50.072Z" transform="translate(47.51)" fill="#fac51e"/>
      <path id="Path_371" data-name="Path 371" d="M42.535,37.948a2.678,2.678,0,1,1-2.678-2.678A2.678,2.678,0,0,1,42.535,37.948Z" transform="translate(41.126 39.09)" fill="#4caf4d"/>
      <path id="Path_372" data-name="Path 372" d="M48.784,40.166a4.027,4.027,0,1,1-4.006-4.006,4.027,4.027,0,0,1,4.006,4.006Z" transform="translate(45.06 40.076)" fill="#4caf4d"/>
      <path id="Path_373" data-name="Path 373" d="M45.1,35.111A2,2,0,1,1,43,33,1.982,1.982,0,0,1,45.1,35.111Z" transform="translate(45.472 36.572)" fill="#4caf4d"/>
      <path id="Path_374" data-name="Path 374" d="M99.655,36.635a2.657,2.657,0,1,0,0,.042Z" transform="translate(104.432 37.682)" fill="#4caf4d"/>
      <path id="Path_375" data-name="Path 375" d="M87.985,85.778A2.678,2.678,0,1,1,85.308,83.1a2.678,2.678,0,0,1,2.678,2.678Z" transform="translate(91.498 92.1)" fill="#4caf4d"/>
      <path id="Path_376" data-name="Path 376" d="M73.463,84.316a1.687,1.687,0,1,1-1.687-1.666,1.687,1.687,0,0,1,1.687,1.666Z" transform="translate(77.6 91.601)" fill="#4caf4d"/>
      <path id="Path_377" data-name="Path 377" d="M109.354,46.206a4.027,4.027,0,1,1-4.006-4.006A4.027,4.027,0,0,1,109.354,46.206Z" transform="translate(112.19 46.77)" fill="#4caf4d"/>
      <path id="Path_378" data-name="Path 378" d="M26.06,36.28a57.577,57.577,0,0,0-7.99,13.641,7.885,7.885,0,1,0,8.054-13.556Z" transform="translate(19.946 40.209)" fill="#4caf4d"/>
      <path id="Path_379" data-name="Path 379" d="M108.484,37.708a2,2,0,1,1-2-2.108A2.108,2.108,0,0,1,108.484,37.708Z" transform="translate(115.716 39.456)" fill="#4caf4d"/>
      <path id="Path_380" data-name="Path 380" d="M24.315,46.243a2.108,2.108,0,1,1-2.108-2A2.108,2.108,0,0,1,24.315,46.243Z" transform="translate(22.198 49.031)" fill="#4caf4d"/>
      <path id="Path_381" data-name="Path 381" d="M27.974,64.348a2,2,0,1,1-2-2.108A2.108,2.108,0,0,1,27.974,64.348Z" transform="translate(26.487 68.981)" fill="#4caf4d"/>
      <path id="Path_382" data-name="Path 382" d="M108.463,60.13a1.391,1.391,0,1,1-1.37-1.37,1.37,1.37,0,0,1,1.37,1.37Z" transform="translate(117.045 65.124)" fill="#4caf4d"/>
      <path id="Path_383" data-name="Path 383" d="M74.527,95.47a2.108,2.108,0,1,1-2.108-2.108,2,2,0,0,1,2.108,2.108Z" transform="translate(77.844 103.47)" fill="#4caf4d"/>
      <path id="Path_384" data-name="Path 384" d="M61.3,88.5a2.108,2.108,0,1,1-2.108-2.108A2.108,2.108,0,0,1,61.3,88.5Z" transform="translate(63.181 95.746)" fill="#4caf4d"/>
      <path id="Path_385" data-name="Path 385" d="M128.159,44.93A40.29,40.29,0,1,1,87.87,4.64a40.29,40.29,0,0,1,40.29,40.29Z" transform="translate(52.652 5.143)" fill="#fff"/>
      <path id="Path_386" data-name="Path 386" d="M117.931,41.405A33.585,33.585,0,1,1,84.345,7.82a33.585,33.585,0,0,1,33.585,33.585Z" transform="translate(56.177 8.667)" fill="#4caf4d"/>
      <path id="Path_387" data-name="Path 387" d="M99.242,34.966A21.336,21.336,0,1,1,77.906,13.63,21.336,21.336,0,0,1,99.242,34.966Z" transform="translate(62.616 15.106)"/>
      <path id="Path_388" data-name="Path 388" d="M97.236,23.283A16.213,16.213,0,1,1,81.023,7.07,16.213,16.213,0,0,1,97.236,23.283Z" transform="translate(71.748 7.836)" fill="#fff"/>
      <path id="Path_389" data-name="Path 389" d="M187.926,68.44c.485,18.152-35.04,33.269-79.335,33.733S27.948,88.342,27.442,70.19c-.211-7.78,9.677-17.141,20.64-20.746,9.719-3.2,20.493-.97,30.507.169a141.446,141.446,0,0,0,42-.443c13.957-2.319,33.522-7.295,47.268-2.973,12.27,3.837,19.839,13.978,20.071,22.243Z" transform="translate(30.329 49.309)" fill="#f8971d"/>
      <path id="Path_390" data-name="Path 390" d="M188.425,71.255c0,18.174-35.841,32.89-80.242,32.89S27.92,89.387,27.92,71.255c0-7.78,10.141-17.035,21.21-20.535,9.783-3.078,20.514-.738,30.486.527a140.919,140.919,0,0,0,42,0c14.02-2.108,33.733-6.915,47.352-2.467,12.165,3.985,19.46,14.21,19.46,22.474Z" transform="translate(30.863 52.038)" fill="#75706b"/>
      <path id="Path_391" data-name="Path 391" d="M95.921,81.185c-20.008.907-42.735-1.244-48.491-6.325-4.807-4.217,5.692-7.611,16.445-7.59,8.433,0,15.58,1.518,23.887,1.391a131.346,131.346,0,0,0,16.107-1.476,64.239,64.239,0,0,1,15.6-1.033c5.418.569,9.024,2.614,9.551,4.659,1.539,6.114-14.632,9.572-33.1,10.415Z" transform="translate(51.158 73.206)" fill="#4caf4d"/>
      <path id="Path_392" data-name="Path 392" d="M49.01,69.608c14-4.217,29.516.38,43.895-.126,18.532-.654,34.576-8.707,53.024-9.15,7.611-.169,15.5-.19,22.58,2.7,2.551,1.033,16.15,9.487,12.987,13.135a11.743,11.743,0,0,0,2.7-8.2c-.274-6.81-5.439-13.008-12.186-16.276-11.6-5.608-29.959-3.69-42.482-1.581a177.941,177.941,0,0,1-57.62.822c-12.355-1.876-23.887-.907-34.028,5.988-8.9,6.072-13.135,17.857-2.3,24.857a9.993,9.993,0,0,1,1.94-4.259,22.517,22.517,0,0,1,11.49-7.843Z" transform="translate(32.206 53.201)" fill="#fff"/>
      <path id="Path_393" data-name="Path 393" d="M87.17,134.081H57.906L44.35,74.69H87.17v59.391Z" transform="translate(49.073 82.779)" fill="#fac51e"/>
      <path id="Path_394" data-name="Path 394" d="M87.17,134.081H57.906L44.35,74.69H87.17v59.391Z" transform="translate(49.073 82.779)" fill="#fac51e"/>
      <path id="Path_395" data-name="Path 395" d="M122.427,108.545c-57.662,0-104.53-22.58-106.027-58.1V52.3c0,38.54,47.5,63.123,106.111,63.123S228.5,90.835,228.5,52.3V50.44C226.956,85.965,180,108.545,122.427,108.545Z" transform="translate(18.095 55.903)" fill="#f8971d"/>
      <path id="Path_396" data-name="Path 396" d="M99.737,82.727c-25.3,0-48.048-3.943-64.177-10.267,14.758,7.969,37.949,13.135,64.177,13.135s49.5-5.165,64.156-13.135C147.743,78.785,125.036,82.727,99.737,82.727Z" transform="translate(39.331 80.308)" fill="#f15829"/>
      <path id="Path_397" data-name="Path 397" d="M91.126,111.726C90.22,102.26,79.3,94.86,65.953,94.86s-24.267,7.506-25.173,16.866Z" transform="translate(45.116 105.134)" fill="#fac51e"/>
      <path id="Path_398" data-name="Path 398" d="M84.464,93.676a4.027,4.027,0,1,1-4.006-4.006,4.027,4.027,0,0,1,4.006,4.006Z" transform="translate(84.605 99.381)" fill="#4caf4d"/>
      <path id="Path_399" data-name="Path 399" d="M53.422,85.021a2.551,2.551,0,1,1-2.551-2.551A2.551,2.551,0,0,1,53.422,85.021Z" transform="translate(53.472 91.402)" fill="#4caf4d"/>
      <path id="Path_400" data-name="Path 400" d="M58.924,97.156a4.006,4.006,0,1,1-1.181-2.84,4.027,4.027,0,0,1,1.181,2.84Z" transform="translate(56.299 103.238)" fill="#4caf4d"/>
      <path id="Path_401" data-name="Path 401" d="M69.636,85.638A7.462,7.462,0,0,0,68.1,85.49a7.927,7.927,0,1,0,0,15.854,7.463,7.463,0,0,0,1.539-.148Z" transform="translate(66.606 94.749)" fill="#4caf4d"/>
    </g>
  </g>
</svg>
