<svg xmlns="http://www.w3.org/2000/svg" width="37.915" height="37.902" viewBox="0 0 37.915 37.902">
  <g id="analysis" transform="translate(0 -0.08)">
    <g id="Group_109" data-name="Group 109" transform="translate(2.541 2.609)">
      <g id="Group_108" data-name="Group 108">
        <path id="Path_606" data-name="Path 606" d="M45.447,32.106A13.265,13.265,0,1,0,58.712,45.371,13.265,13.265,0,0,0,45.447,32.106Zm0,1.263a11.989,11.989,0,0,1,9.8,5.1l-1.579,1.579a2.493,2.493,0,0,0-1.273-.36,2.527,2.527,0,0,0-2.527,2.527,2.493,2.493,0,0,0,.358,1.275l-4.136,4.136a2.45,2.45,0,0,0-2.551,0l-2.873-2.873a2.493,2.493,0,0,0,.358-1.275,2.522,2.522,0,0,0-4.964-.632H33.718A12.019,12.019,0,0,1,45.447,33.369Zm8.212,8.843A1.263,1.263,0,1,1,52.4,40.949,1.263,1.263,0,0,1,53.659,42.213Zm-7.58,7.58a1.263,1.263,0,1,1-1.263-1.263A1.263,1.263,0,0,1,46.079,49.793Zm-6.317-6.317A1.263,1.263,0,1,1,38.5,42.213,1.263,1.263,0,0,1,39.762,43.476ZM51.279,55.865A12,12,0,0,1,33.513,44.108h2.549A2.527,2.527,0,0,0,38.5,46a2.493,2.493,0,0,0,1.275-.358l2.873,2.873a2.493,2.493,0,0,0-.358,1.275,2.527,2.527,0,0,0,5.053,0,2.493,2.493,0,0,0-.358-1.275l4.136-4.136a2.493,2.493,0,0,0,1.275.358,2.527,2.527,0,0,0,2.527-2.527,2.493,2.493,0,0,0-.358-1.275l1.377-1.376A11.991,11.991,0,0,1,51.279,55.865Z" transform="translate(-32.182 -32.106)" fill="#fff"/>
      </g>
    </g>
    <g id="Group_111" data-name="Group 111" transform="translate(0 0.08)">
      <g id="Group_110" data-name="Group 110" transform="translate(0)">
        <path id="Path_607" data-name="Path 607" d="M31.6,6.4a2.527,2.527,0,0,0,2.437-1.9h3.88V3.241h-3.88a2.521,2.521,0,0,0-4.964.632,2.493,2.493,0,0,0,.358,1.275l-1.11,1.11a15.792,15.792,0,1,0-3.943,22.871l1.906,1.906.893.893,5.085,5.085a3.312,3.312,0,0,0,4.683-4.683L31.86,27.244l-.893-.893L29.06,24.445a15.74,15.74,0,0,0,0-17.141L30.324,6.04A2.494,2.494,0,0,0,31.6,6.4Zm0-3.79a1.263,1.263,0,1,1-1.263,1.263A1.263,1.263,0,0,1,31.6,2.609Zm4.453,30.614a2.049,2.049,0,1,1-2.864,2.93l-.033-.033L28.07,31.035l2.9-2.9Zm-5.978-5.978-2.9,2.9-1.748-1.748c.089-.068.172-.143.26-.214s.19-.154.284-.233c.138-.116.275-.234.409-.354.069-.063.135-.126.2-.19q.388-.364.752-.752c.063-.068.126-.133.19-.2.121-.134.238-.27.354-.409q.119-.14.233-.284c.069-.087.145-.171.213-.26Zm-2.45-2.934c-.2.278-.4.55-.621.812-.063.076-.131.15-.2.226q-.29.337-.6.654-.135.139-.274.274-.316.309-.654.6c-.075.063-.149.132-.226.2-.262.217-.534.422-.812.621a14.551,14.551,0,1,1,3.381-3.381Z" transform="translate(0 -0.08)" fill="#fff"/>
      </g>
    </g>
  </g>
</svg>
