<svg id="Layer_2" data-name="Layer 2" xmlns="http://www.w3.org/2000/svg" width="192.815" height="258.147" viewBox="0 0 192.815 258.147">
  <g id="Layer_1" data-name="Layer 1">
    <path id="Path_289" data-name="Path 289" d="M60.165,67.6,43.842,83.925,10.93,51.013,27.253,34.69,60.165,67.6Z" transform="translate(13.213 41.935)" fill="#553982"/>
    <path id="Path_290" data-name="Path 290" d="M62.554,54.517A31.277,31.277,0,1,1,31.277,23.24,31.277,31.277,0,0,1,62.554,54.517Z" transform="translate(0 28.093)" fill="#9366ab"/>
    <path id="Path_291" data-name="Path 291" d="M48.5,76.569A31.277,31.277,0,1,0,4.08,32.525Z" transform="translate(4.932 28.13)" fill="#724d85"/>
    <path id="Path_292" data-name="Path 292" d="M70.411,83.925,54.11,67.6,87.022,34.69l16.3,16.323L70.411,83.925Z" transform="translate(65.41 41.935)" fill="#553982"/>
    <path id="Path_293" data-name="Path 293" d="M121.474,54.517A31.277,31.277,0,1,1,90.2,23.24a31.277,31.277,0,0,1,31.277,31.277Z" transform="translate(71.225 28.093)" fill="#9366ab"/>
    <path id="Path_294" data-name="Path 294" d="M108.452,27.63,62.53,70.018A31.255,31.255,0,1,0,108.452,27.63Z" transform="translate(75.589 33.4)" fill="#724d85"/>
    <path id="Path_295" data-name="Path 295" d="M73.73,76.66H34.81V30.12H73.73V76.66Z" transform="translate(42.08 36.41)" fill="#553982"/>
    <path id="Path_296" data-name="Path 296" d="M105.1,39.759A39.759,39.759,0,1,1,65.339,0,39.759,39.759,0,0,1,105.1,39.759Z" transform="translate(30.922)" fill="#9366ab"/>
    <path id="Path_297" data-name="Path 297" d="M43.8,0V79.342A39.759,39.759,0,0,0,43.8,0Z" transform="translate(52.947)" fill="#724d85"/>
    <path id="Path_298" data-name="Path 298" d="M127.777,124.656c0,45.767-24.43,82.876-54.558,82.876S18.66,170.379,18.66,124.656,43.09,41.78,73.218,41.78,127.777,78.889,127.777,124.656Z" transform="translate(22.557 50.505)" fill="#9366ab"/>
    <path id="Path_299" data-name="Path 299" d="M73.218,136.742c-26.175,0-48.02-27.986-53.321-65.315A126.411,126.411,0,0,0,18.66,89.1c0,45.767,24.43,82.876,54.558,82.876s54.558-37.263,54.558-82.986a126.518,126.518,0,0,0-1.241-17.7c-5.319,37.359-27.165,65.345-53.317,65.345Z" transform="translate(22.557 86.174)" fill="#724d85"/>
    <path id="Path_300" data-name="Path 300" d="M95.466,36.386a33.508,33.508,0,1,1-9.783-23.751,33.508,33.508,0,0,1,9.783,23.751Z" transform="translate(34.392 3.373)" fill="#fff"/>
    <path id="Path_301" data-name="Path 301" d="M86.854,33.34A27.942,27.942,0,1,1,78.7,13.525,27.942,27.942,0,0,1,86.854,33.34Z" transform="translate(37.438 6.419)" fill="#468ecc"/>
    <path id="Path_302" data-name="Path 302" d="M71,27.671A17.671,17.671,0,1,1,53.331,10,17.671,17.671,0,0,1,71,27.671Z" transform="translate(43.107 12.088)"/>
    <path id="Path_303" data-name="Path 303" d="M69.112,18.216a13.5,13.5,0,1,1-13.5-13.5A13.5,13.5,0,0,1,69.112,18.216Z" transform="translate(50.916 5.706)" fill="#fff"/>
    <path id="Path_304" data-name="Path 304" d="M52.711,51.036A24.916,24.916,0,1,1,27.8,26.12,24.916,24.916,0,0,1,52.711,51.036Z" transform="translate(3.481 31.575)" fill="#fff"/>
    <path id="Path_305" data-name="Path 305" d="M46.32,48.763A20.785,20.785,0,1,1,25.535,28,20.785,20.785,0,0,1,46.32,48.763Z" transform="translate(5.742 33.848)" fill="#468ecc"/>
    <path id="Path_306" data-name="Path 306" d="M34.646,44.653A13.253,13.253,0,1,1,21.393,31.4,13.253,13.253,0,0,1,34.646,44.653Z" transform="translate(9.84 37.958)"/>
    <path id="Path_307" data-name="Path 307" d="M33.106,37.588A10.028,10.028,0,1,1,23.078,27.56,10.028,10.028,0,0,1,33.106,37.588Z" transform="translate(15.775 33.316)" fill="#fff"/>
    <path id="Path_308" data-name="Path 308" d="M114.084,93.669c0,35.341-20.454,63.791-45.7,63.791S22.66,128.9,22.66,93.669a73.841,73.841,0,0,1,4.418-25.49A40.135,40.135,0,0,1,43.755,47.394c6.825-4.418,13.518-5.588,21.6-6.251a82.653,82.653,0,0,1,9.343-.42,52.46,52.46,0,0,1,15.2,3c21.536,7.422,24.3,29.709,24.3,49.942Z" transform="translate(27.392 49.221)" fill="#9366ab"/>
    <path id="Path_309" data-name="Path 309" d="M112.878,95.785c0,35.54-20.1,64.366-44.906,64.366S23,131.325,23,95.763a76.624,76.624,0,0,1,4.418-25.6A40.289,40.289,0,0,1,43.807,49.2c6.627-4.528,13.253-5.633,21.227-6.317a80.117,80.117,0,0,1,9.211-.42,50.318,50.318,0,0,1,14.932,3.026c21.139,7.488,23.789,30,23.789,50.406Z" transform="translate(27.803 51.324)" fill="#28324e"/>
    <path id="Path_310" data-name="Path 310" d="M29.845,96.03A32.58,32.58,0,0,1,59.156,68.6,34.59,34.59,0,0,1,92.907,90.817a14.225,14.225,0,0,1,1.06,5.721,15.925,15.925,0,0,1-1.392,5.125,41.35,41.35,0,0,1-9.41,14.733C72.122,126.645,54.142,125.805,41,118.45a22.53,22.53,0,0,1-9.1-8.195c-2.43-4.418-2.341-9.763-2.209-14.821l.11.486Z" transform="translate(35.824 82.886)"/>
    <path id="Path_311" data-name="Path 311" d="M64.343,43.82h0a43.735,43.735,0,0,0-23.922,7.355,40.245,40.245,0,0,0-10.47,9.807c-1.657,2.209-5.809,8.5-2.871,11.044,1.855,1.657,5.853-.4,7.93-.729,3.357-.552,3.247-3.578,3.6-6.627-.508,4.418,4.175,5.169,7.2,4.926,3.843-.309,7.731.464,11.552.508,1.789,0,4.131.552,5.566-.464a11.619,11.619,0,0,0,2.982-5.831,22.618,22.618,0,0,0,.773,5.831.994.994,0,0,0,.2.464,1.06,1.06,0,0,0,.685.221l6.869.42c3.8.243,8.394,1.458,12.149.994s2.938-5.434,2.54-8.7l2.916,7.09a5.61,5.61,0,0,0,8.372,2.341c6.87-3.843-5.235-18.179-8.394-20.962-8-7.024-17.516-7.665-27.611-7.687Z" transform="translate(31.498 52.971)" fill="#fff"/>
    <path id="Path_312" data-name="Path 312" d="M58.845,106.394A40.864,40.864,0,0,1,30.55,95.35a35.452,35.452,0,0,0,56.591,0,40.908,40.908,0,0,1-28.3,11.044Z" transform="translate(36.93 115.263)" fill="#553982"/>
    <path id="Path_313" data-name="Path 313" d="M55.934,101.039c-8,.906-17.052-1.215-19.349-6.3-1.922-4.219,2.209-7.532,6.627-7.51,3.38,0,6.229,1.5,9.52,1.369a21.934,21.934,0,0,0,6.428-1.458,11.044,11.044,0,0,1,6.229-1.016,5.279,5.279,0,0,1,3.8,4.594C69.806,96.8,63.356,100.2,55.934,101.039Z" transform="translate(43.64 104.008)" fill="#b8322f"/>
    <path id="Path_314" data-name="Path 314" d="M50.078,69.187a1.458,1.458,0,0,0-.839-1.5,3.843,3.843,0,0,0-1.811-.243c-1.215,0-3.755,0-4.418,1.215-1.149,1.878,1.5,3.534,1.833,5.125a2.894,2.894,0,0,1-.641,2.054A9.1,9.1,0,0,0,42.656,79.1a3.733,3.733,0,0,0,3,4.131,3.8,3.8,0,0,0,2.739-.928c3.357-2.783.133-4.418-.331-7.488a5.61,5.61,0,0,1,1.281-4.572,2.629,2.629,0,0,0,.729-1.06Z" transform="translate(51.529 81.5)" fill="#28324e"/>
    <path id="Path_315" data-name="Path 315" d="M56.955,92.711c-2.474.11-5.743.663-4.418,3.048a9.94,9.94,0,0,0-3.8-4.175,9.189,9.189,0,0,0-5.1-.375c-.574.331-1.723,2.5-1.347,2.96-1.966-2.43-2.739-3.865-5.677-4.683-.287,0-4.285-.861-3.865-1.546-1.833,2.96.552,4.131,2.916,6.1a37.266,37.266,0,0,0,6.627,4.418,31.674,31.674,0,0,0,14.645,3.711A31.189,31.189,0,0,0,71,98.741c2.032-1.016,11.442-5.566,10.536-8.283-1.127-3.291-8.305-.133-10.139.53s-6.627,2.209-5.5,5.1c-1.5-3.578-3.49-3.225-6.8-3.335H56.889Z" transform="translate(38.799 106.306)" fill="#fff"/>
    <path id="Path_316" data-name="Path 316" d="M45.673,74.331a3.137,3.137,0,0,0-1.1-.6c-.375-.177-.773-.4-.861-.8s0-.265-.133-.353a.309.309,0,0,0-.331,0,.663.663,0,0,0-.2.287,2.43,2.43,0,0,0,.928,2.872c.884.486,2.739.133,1.878-1.237a.663.663,0,0,0-.177-.177Z" transform="translate(51.848 87.687)" fill="#6f6d82"/>
    <path id="Path_317" data-name="Path 317" d="M111.631,51.036A24.916,24.916,0,1,1,86.716,26.12,24.916,24.916,0,0,1,111.631,51.036Z" transform="translate(74.706 31.575)" fill="#fff"/>
    <path id="Path_318" data-name="Path 318" d="M105.24,48.763A20.785,20.785,0,1,1,84.455,28,20.785,20.785,0,0,1,105.24,48.763Z" transform="translate(76.967 33.848)" fill="#468ecc"/>
    <path id="Path_319" data-name="Path 319" d="M93.566,44.653A13.253,13.253,0,1,1,80.313,31.4,13.253,13.253,0,0,1,93.566,44.653Z" transform="translate(81.065 37.958)"/>
    <path id="Path_320" data-name="Path 320" d="M92.026,37.588A10.028,10.028,0,1,1,82,27.56,10.028,10.028,0,0,1,92.026,37.588Z" transform="translate(87 33.316)" fill="#fff"/>
  </g>
</svg>
