<svg id="Layer_2" data-name="Layer 2" xmlns="http://www.w3.org/2000/svg" width="147.495" height="203.333" viewBox="0 0 147.495 203.333">
  <g id="Layer_1" data-name="Layer 1">
    <path id="Path_446" data-name="Path 446" d="M13.07,60.39Z" transform="translate(9.942 45.939)" fill="#28324e"/>
    <path id="Path_447" data-name="Path 447" d="M22,68.35a30.372,30.372,0,0,0,.458-7.818c-.106-2.148-1.409-21.287-12.448-23.822,0,0-2.236,1.356-5.282,8.2S1.7,55.338,1.7,55.338s8.011-2.764,13.681-.863c-.616.581-1.338,1.3-2.166,2.218a18.575,18.575,0,0,0-4.12,6.145s7.166-.211,10.071,3.152l.123.141a14.949,14.949,0,0,0-2.976,2.5,12.818,12.818,0,0,0-2.993,4.155s4.965,0,6.9,2.465c1.585,1.99,1.567,2.905,1.514,3.152.211-.722,1.761-6.3.282-10.054Z" transform="translate(1.293 27.926)" fill="#28324e"/>
    <path id="Path_448" data-name="Path 448" d="M56.558,87.377a26.745,26.745,0,0,0-13.452,16.991c-1.268,5.617.828,10.916,2.87,16s2.1,14.649,7.782,16.938a5.282,5.282,0,0,0,4.384,0,7.43,7.43,0,0,0,2.571-2.447c5.7-7.782,8.17-18.752,10.142-28.03,1.321-6.233,2.852-12.906-1.761-18.294A8.434,8.434,0,0,0,62.58,85.37a11.586,11.586,0,0,0-3.733.968,22.68,22.68,0,0,0-2.2,1.039Z" transform="translate(32.498 64.941)" fill="#399b56"/>
    <path id="Path_449" data-name="Path 449" d="M103.628,106.813c.264-1.338-2.412-3.011-5.969-3.733a17.887,17.887,0,0,0-2.888-.352,9.543,9.543,0,0,0-2.483-3.081,6.918,6.918,0,0,0,.651-1.3c2.113-.211,3.715-1.25,3.7-2.483s-1.99-2.43-4.384-2.395a7.042,7.042,0,0,0-1.761.229,7.976,7.976,0,0,0-5.617,1.761,9.561,9.561,0,0,0-1.954,1.884C79.26,94.558,70.6,87.005,69.717,77.515a42.063,42.063,0,0,1,4.4-22.678,8.434,8.434,0,0,0,1.391-3.645c.563-3.979-1.6-7.571-4.842-8.029s-5.881,2.025-6.708,5.564h0a53.49,53.49,0,0,0-6.11,29.932c1.373,15.565,15.142,26.411,19.209,29.228a9.367,9.367,0,0,0,5.159,7.5,6.021,6.021,0,0,0,1.162,2.078c1.426,1.761,3.521,2.395,4.472,1.532a2.5,2.5,0,0,0,.352-2.835h.44l.722.933c2.271,2.711,4.965,4.208,6,3.345s0-3.786-2.236-6.5l-.194-.229a4.526,4.526,0,0,0,.493-.511,5.282,5.282,0,0,0,.669.423c3.046,1.761,6.092,2.324,6.779,1.162s-1.232-3.521-4.279-5.388c-.352-.211-.7-.387-1.056-.563a4.184,4.184,0,0,0,0-.458v-.546l.951.229c3.521.722,6.691.246,7.043-1.074Z" transform="translate(43.848 32.793)" fill="#399b56"/>
    <path id="Path_450" data-name="Path 450" d="M79.478,69.894l32.555-5.282a43.453,43.453,0,0,0-2.307-4.736c-.6-1.039,8.61-11.2,8.8-13.417a32.78,32.78,0,0,0,0-3.926A24.827,24.827,0,0,0,116.77,35a19.755,19.755,0,0,0-19-12.325,20.829,20.829,0,0,0-15.424,7.272,29.1,29.1,0,0,0-58.1,1.62,16.423,16.423,0,0,0,.106,1.849H22.185C11.973,33.641,3.521,48.219,0,55.861A29.932,29.932,0,0,1,18.276,71.32c5.581,10.864,3.627,22.2,4.613,33.823a136.121,136.121,0,0,0,6.286,31.693c5.071,15.318,13.8,32.221,28.664,40.091a29.721,29.721,0,0,0,14.473,3.521c10.247-.211,19.051-6.268,25.5-13.839a79.232,79.232,0,0,0,14.086-25.46c3.521-10.071,6.761-19.579,7.853-30.3,1.021-10.036,1.954-20.213.863-30.284-.352-3.275-.458-10.247-3.169-12.325s-7.272-.423-10.089-.246c-4.1.229-8.2.511-12.325.775L79.549,69.823Z" transform="translate(0 2.436)" fill="#41a85e"/>
    <path id="Path_451" data-name="Path 451" d="M92.067,67.846a190.475,190.475,0,0,0-8.2-39.633,15.616,15.616,0,0,0-1.62,1.761,29.1,29.1,0,0,0-58.1,1.62,16.424,16.424,0,0,0,.106,1.849H22.079C11.973,33.618,3.521,48.2,0,55.838A29.932,29.932,0,0,1,18.276,71.3c5.581,10.864,3.627,22.2,4.613,33.823a136.121,136.121,0,0,0,6.286,31.693c5.071,15.318,13.8,32.221,28.664,40.091a30.125,30.125,0,0,0,11.145,3.521c15.529-25.16,24.826-59.072,24.069-96.24-.106-5.141-.4-10.194-.88-15.195l-12.695.88,12.589-2.025Z" transform="translate(0 2.459)" fill="#62be6d"/>
    <path id="Path_452" data-name="Path 452" d="M65.937,23.657A25.46,25.46,0,1,1,34.245,6.6,25.46,25.46,0,0,1,65.937,23.657Z" transform="translate(12.238 4.197)" fill="#28324e"/>
    <path id="Path_453" data-name="Path 453" d="M62.265,24.392a17.888,17.888,0,1,1,0-.07Z" transform="translate(14.202 6.438)" fill="#fff"/>
    <path id="Path_454" data-name="Path 454" d="M57.588,25.172a18.523,18.523,0,1,1-8.971-11.009,18.558,18.558,0,0,1,8.971,11.009Z" transform="translate(16.168 9.091)" fill="#fbc012"/>
    <path id="Path_455" data-name="Path 455" d="M48.451,20.062a8.8,8.8,0,1,1-4.327-5.281,8.8,8.8,0,0,1,4.327,5.281Z" transform="translate(23.738 10.468)"/>
    <path id="Path_456" data-name="Path 456" d="M38.738,19.412a5.282,5.282,0,1,1-2.06-6.832A5.053,5.053,0,0,1,38.738,19.412Z" transform="translate(21.83 9.006)" fill="#fff"/>
    <path id="Path_457" data-name="Path 457" d="M77.913,27.123A15.617,15.617,0,1,1,58.457,16.647,15.617,15.617,0,0,1,77.913,27.123Z" transform="translate(36.005 12.158)" fill="#28324e"/>
    <path id="Path_458" data-name="Path 458" d="M75.021,27.855a20.206,20.206,0,1,0-.018,0Z" transform="translate(36.925 13.856)" fill="#fff"/>
    <path id="Path_459" data-name="Path 459" d="M71.895,27.533a11.269,11.269,0,1,1-14.086-7.553,11.269,11.269,0,0,1,14.086,7.553Z" transform="translate(37.903 14.83)" fill="#fbc012"/>
    <path id="Path_460" data-name="Path 460" d="M20.956,40.55a2.553,2.553,0,1,1-2.606-2.5,2.553,2.553,0,0,1,2.606,2.5Z" transform="translate(12.057 28.945)" fill="#fac51e"/>
    <path id="Path_461" data-name="Path 461" d="M27.616,42.7A3.838,3.838,0,1,1,23.707,39a3.838,3.838,0,0,1,3.909,3.7Z" transform="translate(15.17 29.667)" fill="#fac51e"/>
    <path id="Path_462" data-name="Path 462" d="M24.048,37.3a1.9,1.9,0,1,1-.588-1.341A1.919,1.919,0,0,1,24.048,37.3Z" transform="translate(15.374 26.951)" fill="#fac51e"/>
    <path id="Path_463" data-name="Path 463" d="M90.009,39.566c.123,0-44.493,7.994-50,10.441-2.518,1.127-9.842,6.726-10.881,1.162C27.117,40.482,43.21,36.908,50.5,36.5a131.772,131.772,0,0,1,15.6-.141c3.715.229,7.413.739,11.11,1.268,1.321.176,5.758.687,12.8,1.937Z" transform="translate(22.024 27.534)" fill="#f7da64"/>
    <path id="Path_464" data-name="Path 464" d="M89.5,39.089c0,.106-43.789,8.645-49.159,11-2.447,1.074-9.6,6.462-10.564,1.109C27.844,40.938,43.567,37.522,50.628,37.117a132.9,132.9,0,0,1,15.213-.141c3.627.229,7.219.722,10.828,1.215,1.285.176,13.012.44,12.888.9Z" transform="translate(22.53 28.011)" fill="#28324e"/>
    <path id="Path_465" data-name="Path 465" d="M29.186,51.087a10.67,10.67,0,0,1-2.307-5.476A6.075,6.075,0,0,1,27,42.9a5.775,5.775,0,0,0-.986,2.958,8.17,8.17,0,0,0,2.342,6.567A7.712,7.712,0,0,0,35.7,54.186,7.923,7.923,0,0,1,29.2,51Z" transform="translate(19.761 32.634)" fill="#485677"/>
    <path id="Path_466" data-name="Path 466" d="M55.046,40.613h0c-1.162-4.4-16.075.581-18.822,1.549a7.184,7.184,0,0,0-5.282,5.282,2.359,2.359,0,0,0,.775,2.395,2.483,2.483,0,0,0,2.377,0,11.954,11.954,0,0,0,2.042-1.391c5.282-3.768,12.642-3.011,18.1-6.25a1.567,1.567,0,0,0,.828-1.585Z" transform="translate(23.482 29.533)" fill="#9366ab"/>
    <path id="Path_467" data-name="Path 467" d="M39.74,0c1.215,2.395,2.342,4.807,3.521,7.219s2.218,4.842,3.363,7.289c2.2,4.86,4.349,9.772,6.444,14.684l-1-.44,5.141-1.866,5.159-1.761c1.761-.581,3.521-1.127,5.282-1.673s3.521-1.092,5.282-1.549c-1.637.792-3.328,1.5-4.983,2.254S64.6,25.6,62.911,26.287L57.8,28.295,52.7,30.231l-.7.282-.3-.7C49.6,24.9,47.522,19.966,45.533,15c-.986-2.483-1.972-4.983-2.923-7.465S40.62,2.535,39.74,0Z" transform="translate(30.23)" fill="#28324e"/>
    <path id="Path_468" data-name="Path 468" d="M30.571,127.394c.933-.986-.458-3.821-3.1-6.321a16.779,16.779,0,0,0-2.271-1.761,9.332,9.332,0,0,0-.475-3.926,6.8,6.8,0,0,0,1.25-.775c1.884.951,3.8.916,4.437-.141s-.4-3.116-2.465-4.349a7.043,7.043,0,0,0-1.585-.739,8.011,8.011,0,0,0-5.687-1.444,9.755,9.755,0,0,0-2.676.6c-1.655-4.314-5.053-15.318-.775-23.822a42.063,42.063,0,0,1,15.846-16.92,8.363,8.363,0,0,0,3.1-2.342c2.588-3.1,2.641-7.307.123-9.385s-6.057-1.391-8.645,1.18h0A53.173,53.173,0,0,0,6.59,79.274c-7.043,13.962-1.039,30.39.9,34.968a9.332,9.332,0,0,0,.458,9.085,5.863,5.863,0,0,0-.123,2.377c.3,2.219,1.655,3.856,2.993,3.662.88-.123,1.532-1,1.761-2.218l.423.158a3.849,3.849,0,0,0,.123,1.162c.493,3.521,1.99,6.215,3.328,6.022s2.025-3.2,1.532-6.708V127.5l.669-.194c.106.229.229.475.352.7,1.637,3.152,3.944,5.176,5.141,4.56s.845-3.7-.792-6.832c-.194-.37-.387-.7-.6-1.039l.317-.335.335-.44.687.687c2.659,2.518,5.546,3.75,6.479,2.764Z" transform="translate(2.477 41.721)" fill="#399b56"/>
    <path id="Path_469" data-name="Path 469" d="M35.678,70.66c-6.162,12.026-7.5,27.238-7.043,40.866.229,7.624,4.314,14.086,8.24,20.336,3.381,5.441,5,11.163,11.955,11.48,14.667-24.808,23.277-57.681,22.555-93.6V48.51a58.861,58.861,0,0,0-12.924,2.623A37.591,37.591,0,0,0,35.678,70.66Z" transform="translate(21.721 36.902)" fill="#89c86b"/>
    <path id="Path_470" data-name="Path 470" d="M37.594,87.671A26.71,26.71,0,0,1,51.679,104.1c1.5,5.546-.387,10.952-2.218,16.11s-1.5,14.737-7.043,17.237a5.441,5.441,0,0,1-4.384.141,7.8,7.8,0,0,1-2.676-2.359c-6-7.536-8.927-18.4-11.269-27.59-1.585-6.162-3.381-12.765.933-18.347a8.434,8.434,0,0,1,6.55-3.381,11.656,11.656,0,0,1,3.768.81c.757.282,1.5.6,2.236.951Z" transform="translate(16.988 65.352)" fill="#62be6d"/>
    <path id="Path_471" data-name="Path 471" d="M66.68,24.537a3.086,3.086,0,1,0-.035,0Z" transform="translate(41.462 15.29)"/>
    <path id="Path_472" data-name="Path 472" d="M59.865,24.075A3.7,3.7,0,1,1,58.4,19.268a3.521,3.521,0,0,1,1.461,4.807Z" transform="translate(40.196 14.273)" fill="#fff"/>
    <path id="Path_473" data-name="Path 473" d="M83.429,54.908c-4.631-5.036-11.92-7.043-20.864-6.339V49.8c.722,35.918-7.888,68.791-22.555,93.6h1.127a34.915,34.915,0,0,0,19.984-7.694c11.022-10.054,16.78-24.861,20.706-38.912,3.2-11.48,11.022-31.693,1.761-41.94Z" transform="translate(30.436 36.843)" fill="#62be6d"/>
  </g>
</svg>
