<svg xmlns="http://www.w3.org/2000/svg" width="165" height="162" viewBox="0 0 165 162">
  <g id="appdev" transform="translate(1842 -787)">
    <ellipse id="Ellipse_31" data-name="Ellipse 31" cx="82.5" cy="81" rx="82.5" ry="81" transform="translate(-1842 787)" fill="#696d7d" opacity="0.5"/>
    <path id="Path_702" data-name="Path 702" d="M93.966,56H13.929A5.936,5.936,0,0,0,8,61.929v50.394a5.936,5.936,0,0,0,5.929,5.929H44.48L42.5,124.18h-4.86a1.482,1.482,0,0,0-1.482,1.482v2.964H22.822a1.482,1.482,0,0,0,0,2.964H88.037a1.482,1.482,0,1,0,0-2.964h-16.3v-2.964a1.482,1.482,0,0,0-1.482-1.482h-4.86l-1.977-5.929H93.966a5.936,5.936,0,0,0,5.929-5.929V61.929A5.936,5.936,0,0,0,93.966,56Zm-25.2,71.144v1.482H39.126v-1.482Zm-23.14-2.964,1.977-5.929H60.289l1.977,5.929Zm51.3-11.857a2.968,2.968,0,0,1-2.964,2.964H13.929a2.968,2.968,0,0,1-2.964-2.964v-2.964H96.93Zm0-5.929c-14.827-.061-37.806-.315-85.966,0V61.929a2.968,2.968,0,0,1,2.964-2.964H93.966a2.968,2.968,0,0,1,2.964,2.964Z" transform="translate(-1812.892 774.37)" fill="#fff"/>
    <path id="Path_703" data-name="Path 703" d="M50.375,352H41.482a1.482,1.482,0,1,0,0,2.964h8.893a1.482,1.482,0,1,0,0-2.964Z" transform="translate(-1838.963 533.21)" fill="#fff"/>
    <path id="Path_704" data-name="Path 704" d="M114.964,352h-1.482a1.482,1.482,0,1,0,0,2.964h1.482a1.482,1.482,0,1,0,0-2.964Z" transform="translate(-1897.624 533.21)" fill="#fff"/>
    <path id="Path_705" data-name="Path 705" d="M369.482,272A1.482,1.482,0,0,0,368,273.482v4.447a1.482,1.482,0,0,0,2.964,0v-4.447A1.482,1.482,0,0,0,369.482,272Z" transform="translate(-2106.194 598.388)" fill="#fff"/>
    <path id="Path_706" data-name="Path 706" d="M41.482,90.964H53.34a1.482,1.482,0,1,0,0-2.964H41.482a1.482,1.482,0,0,0,0,2.964Z" transform="translate(-1838.963 748.298)" fill="#fff"/>
    <path id="Path_707" data-name="Path 707" d="M41.482,114.964h2.964a1.482,1.482,0,0,0,0-2.964H41.482a1.482,1.482,0,0,0,0,2.964Z" transform="translate(-1838.963 728.745)" fill="#fff"/>
    <path id="Path_708" data-name="Path 708" d="M425.482,298.964h5.929a1.482,1.482,0,0,0,0-2.964h-5.929a1.482,1.482,0,0,0,0,2.964Z" transform="translate(-2151.819 578.835)" fill="#fff"/>
    <path id="Path_709" data-name="Path 709" d="M449.482,274.964h1.482a1.482,1.482,0,1,0,0-2.964h-1.482a1.482,1.482,0,0,0,0,2.964Z" transform="translate(-2171.373 598.388)" fill="#fff"/>
    <text id="_" data-name="&lt;/&gt;" transform="translate(-1776.945 867.057)" fill="#fff" font-size="34" font-family="BerlinSansFB-Reg, Berlin Sans FB" letter-spacing="0.04em"><tspan x="0" y="0">&lt;/&gt;</tspan></text>
  </g>
</svg>
