<svg xmlns="http://www.w3.org/2000/svg" width="379.289" height="182.27" viewBox="0 0 379.289 182.27">
  <g id="b_cloud01" transform="translate(-0.412 -0.945)" opacity="0.22">
    <path id="Path_1" data-name="Path 1" d="M134.76,172.977c0-5.633,5.529-10.241,12.288-10.241H270.337c6.759,0,12.288,4.608,12.288,10.241s-5.529,10.238-12.288,10.238H147.048c-6.759,0-12.288-4.606-12.288-10.238M341.2,134.064c0-5.633,5.529-10.24,12.288-10.24h13.926c6.759,0,12.288,4.607,12.288,10.24S374.172,144.3,367.413,144.3H353.487c-6.759,0-12.288-4.607-12.288-10.239M99.124,172.977a10.24,10.24,0,1,1,10.24,10.238,10.27,10.27,0,0,1-10.24-10.238M34.818,93.1c0-5.633,5.529-10.24,12.288-10.24H61.032c6.759,0,12.288,4.607,12.288,10.24s-5.529,10.239-12.288,10.239H47.106c-6.759,0-12.288-4.607-12.288-10.239" fill="#fff" fill-rule="evenodd"/>
    <path id="Path_2" data-name="Path 2" d="M12.7,21.424H111c6.759,0,12.288,4.608,12.288,10.24S117.763,41.9,111,41.9h-5.325c-6.758,0-12.289,4.608-12.289,10.241s5.531,10.239,12.289,10.239h66.764c6.759,0,12.288,4.608,12.288,10.24s-5.529,10.24-12.288,10.24H92.162c-6.758,0-12.288,4.608-12.288,10.241s5.53,10.239,12.288,10.239H196.2c6.759,0,12.288,4.608,12.288,10.24s-5.529,10.24-12.288,10.24H110.184c-6.758,0-12.288,4.608-12.288,10.241s5.53,10.239,12.288,10.239h208.9c6.758,0,12.287-4.608,12.287-10.239s-5.529-10.241-12.287-10.241H240.847c-6.758,0-12.289-4.608-12.289-10.24s5.531-10.24,12.289-10.24h29.491c6.759,0,12.288-4.607,12.288-10.239S277.1,82.864,270.338,82.864h.41c-6.759,0-12.288-4.608-12.288-10.24s5.529-10.24,12.288-10.24h92.978c6.759,0,12.288-4.607,12.288-10.239S370.485,41.9,363.726,41.9H202.754c-6.758,0-12.288-4.608-12.288-10.24s5.53-10.24,12.288-10.24H221.6c6.758,0,12.288-4.607,12.288-10.24S228.354.945,221.6.945H12.7C5.941.945.412,5.552.412,11.184S5.941,21.424,12.7,21.424" fill="#fff" fill-rule="evenodd"/>
  </g>
</svg>
