<svg xmlns="http://www.w3.org/2000/svg" width="474.111" height="227.84" viewBox="0 0 474.111 227.84">
  <g id="b_cloud02" transform="translate(-0.001 -0.16)" opacity="0.22">
    <path id="Path_3" data-name="Path 3" d="M167.936,12.96c0,7.04,6.912,12.8,15.36,12.8H337.408c8.448,0,15.36-5.76,15.36-12.8S345.856.16,337.408.16H183.3c-8.448,0-15.36,5.76-15.36,12.8M425.984,61.6c0,7.04,6.912,12.8,15.36,12.8h17.409c8.447,0,15.359-5.761,15.359-12.8S467.2,48.8,458.753,48.8H441.344c-8.448,0-15.36,5.761-15.36,12.8M123.392,12.96a12.8,12.8,0,1,0,12.8-12.8,12.838,12.838,0,0,0-12.8,12.8M43.008,112.8c0,7.04,6.912,12.8,15.359,12.8H75.776c8.448,0,15.36-5.76,15.36-12.8S84.224,100,75.776,100H58.367c-8.447,0-15.359,5.76-15.359,12.8" fill="#fff" fill-rule="evenodd"/>
    <path id="Path_4" data-name="Path 4" d="M15.36,202.4H138.24c8.448,0,15.36-5.761,15.36-12.8s-6.912-12.8-15.36-12.8h-6.655c-8.449,0-15.361-5.759-15.361-12.8s6.912-12.8,15.361-12.8h83.456c8.447,0,15.359-5.76,15.359-12.8s-6.912-12.8-15.359-12.8H114.688c-8.448,0-15.359-5.76-15.359-12.8S106.24,100,114.688,100H244.736c8.448,0,15.36-5.76,15.36-12.8s-6.912-12.8-15.36-12.8H137.216c-8.448,0-15.36-5.761-15.36-12.8s6.912-12.8,15.36-12.8H398.337c8.447,0,15.359,5.761,15.359,12.8s-6.912,12.8-15.359,12.8H300.545c-8.449,0-15.361,5.76-15.361,12.8S292.1,100,300.545,100h36.863c8.448,0,15.36,5.759,15.36,12.8s-6.912,12.8-15.36,12.8h.513c-8.449,0-15.361,5.761-15.361,12.8s6.912,12.8,15.361,12.8H454.144c8.448,0,15.361,5.76,15.361,12.8s-6.913,12.8-15.361,12.8H252.928c-8.448,0-15.36,5.761-15.36,12.8s6.912,12.8,15.36,12.8H276.48c8.448,0,15.36,5.76,15.36,12.8S284.928,228,276.48,228H15.36C6.913,228,0,222.24,0,215.2s6.912-12.8,15.359-12.8" fill="#fff" fill-rule="evenodd"/>
  </g>
</svg>
