<svg xmlns="http://www.w3.org/2000/svg" width="388.8" height="186.114" viewBox="0 0 388.8 186.114">
  <g id="cloud1" opacity="0.84">
    <path id="Path_5" data-name="Path 5" d="M57.615,51.2a10.34,10.34,0,1,0,10.34,10.34A10.37,10.37,0,0,0,57.615,51.2" transform="translate(-9.505 -9.841)" fill="#696d7d" fill-rule="evenodd"/>
    <path id="Path_6" data-name="Path 6" d="M334.517,165.433H236.34c-6.824,0-12.407-4.653-12.407-10.34s5.583-10.34,12.407-10.34h2.019c6.823,0,12.406-4.652,12.406-10.339s-5.583-10.34-12.406-10.34H189.812c-6.823,0-12.408-4.654-12.408-10.34s5.584-10.34,12.408-10.34H279.2c6.824,0,12.407-4.653,12.407-10.34S286.025,82.717,279.2,82.717H178.645c-6.824,0-12.408-4.653-12.408-10.34s5.583-10.34,12.408-10.34h50.407c6.825,0,12.409-4.653,12.409-10.34s-5.584-10.34-12.409-10.34h.568c-6.824,0-12.408-4.652-12.408-10.339S222.8,20.68,229.62,20.68h65.605c6.826,0,12.408-4.654,12.408-10.34S302.051,0,295.226,0H146.854c-6.825,0-12.407,4.653-12.407,10.34s5.583,10.34,12.407,10.34h37.685c6.824,0,12.408,4.653,12.408,10.34s-5.583,10.339-12.408,10.339H85.85c-6.824,0-12.407,4.653-12.407,10.34s5.583,10.34,12.407,10.34H86c6.825,0,12.407,4.654,12.407,10.34S92.828,82.717,86,82.717H12.924C6.1,82.717.516,87.369.516,93.056S6.1,103.4,12.924,103.4H144.731c6.824,0,12.408,4.653,12.408,10.34s-5.584,10.34-12.408,10.34h-3.049c-6.823,0-12.406,4.653-12.406,10.34s5.583,10.339,12.406,10.339H191.26c6.824,0,12.407,4.653,12.407,10.34s-5.583,10.34-12.407,10.34H93.734c-6.824,0-12.407,4.654-12.407,10.34s5.583,10.34,12.407,10.34H334.517c6.824,0,12.407-4.653,12.407-10.34s-5.583-10.34-12.407-10.34m42.392,0h-9.823c-6.824,0-12.408,4.654-12.408,10.34s5.583,10.34,12.408,10.34h9.823c6.824,0,12.408-4.653,12.408-10.34s-5.583-10.34-12.408-10.34" transform="translate(-0.516 0)" fill="#696d7d" fill-rule="evenodd"/>
    <path id="Path_7" data-name="Path 7" d="M323.116,163.94c0,5.687,5.583,10.34,12.408,10.34h42.909c6.825,0,12.408-4.653,12.408-10.34s-5.583-10.34-12.408-10.34H335.524c-6.824,0-12.408,4.653-12.408,10.34" transform="translate(-62.527 -29.525)" fill="#696d7d" fill-rule="evenodd"/>
  </g>
</svg>
