<svg xmlns="http://www.w3.org/2000/svg" width="382.977" height="184.045" viewBox="0 0 382.977 184.045">
  <g id="cloud2" opacity="0.84">
    <path id="Path_8" data-name="Path 8" d="M309.36,154.878c0-5.686,5.583-10.34,12.407-10.34h14.063c6.823,0,12.407,4.654,12.407,10.34s-5.583,10.34-12.407,10.34H321.768c-6.824,0-12.407-4.654-12.407-10.34M64.933,194.168a10.34,10.34,0,1,1,10.34,10.34,10.37,10.37,0,0,1-10.34-10.34M0,113.52c0-5.687,5.583-10.34,12.407-10.34H26.47c6.824,0,12.408,4.653,12.408,10.34s-5.583,10.34-12.408,10.34H12.407C5.584,123.859,0,119.206,0,113.52" transform="translate(34.74 -20.463)" fill="#696d7d" fill-rule="evenodd"/>
    <path id="Path_9" data-name="Path 9" d="M17.014,21.459h99.26c6.824,0,12.408,4.654,12.408,10.34s-5.583,10.34-12.408,10.34H110.9c-6.825,0-12.408,4.652-12.408,10.339s5.583,10.34,12.408,10.34h67.414c6.823,0,12.407,4.653,12.407,10.34S185.136,83.5,178.312,83.5H97.249c-6.824,0-12.407,4.653-12.407,10.34s5.583,10.339,12.407,10.339H202.3c6.824,0,12.407,4.653,12.407,10.34s-5.583,10.34-12.407,10.34H115.447c-6.824,0-12.408,4.654-12.408,10.34s5.583,10.34,12.408,10.34H326.375c6.823,0,12.407-4.654,12.407-10.34s-5.583-10.34-12.407-10.34H247.381c-6.825,0-12.408-4.653-12.408-10.34s5.583-10.34,12.408-10.34h29.777c6.824,0,12.408-4.652,12.408-10.339S283.982,83.5,277.158,83.5h.414c-6.825,0-12.408-4.654-12.408-10.341s5.583-10.34,12.408-10.34h93.882c6.824,0,12.408-4.653,12.408-10.34s-5.584-10.339-12.408-10.339H208.917c-6.824,0-12.408-4.654-12.408-10.34s5.583-10.34,12.408-10.34h19.025c6.824,0,12.407-4.653,12.407-10.34S234.766.78,227.942.78H17.014C10.191.78,4.607,5.433,4.607,11.119s5.583,10.34,12.407,10.34M140.262,174.485c0-5.687,5.583-10.34,12.407-10.34H277.158c6.824,0,12.408,4.653,12.408,10.34s-5.583,10.34-12.408,10.34H152.669c-6.824,0-12.407-4.653-12.407-10.34" transform="translate(-4.607 -0.78)" fill="#696d7d" fill-rule="evenodd"/>
  </g>
</svg>
