<svg xmlns="http://www.w3.org/2000/svg" width="382.977" height="184.045" viewBox="0 0 382.977 184.045">
  <g id="cloud3" opacity="0.84">
    <path id="Path_10" data-name="Path 10" d="M100.915,11.119c0,5.687,5.583,10.34,12.407,10.34H237.811c6.824,0,12.407-4.653,12.407-10.34S244.635.78,237.811.78H113.322c-6.824,0-12.407,4.653-12.407,10.34M309.36,50.41c0,5.687,5.583,10.34,12.407,10.34h14.063c6.823,0,12.407-4.654,12.407-10.34s-5.583-10.34-12.407-10.34H321.768c-6.824,0-12.407,4.654-12.407,10.34M64.933,11.119A10.34,10.34,0,1,0,75.272.78a10.37,10.37,0,0,0-10.34,10.34M0,91.768c0,5.687,5.583,10.34,12.407,10.34H26.47c6.824,0,12.408-4.653,12.408-10.34s-5.583-10.34-12.408-10.34H12.407C5.584,81.429,0,86.082,0,91.768" transform="translate(34.74 -0.78)" fill="#696d7d" fill-rule="evenodd"/>
    <path id="Path_11" data-name="Path 11" d="M17.014,173.495h99.26c6.824,0,12.408-4.654,12.408-10.34s-5.583-10.34-12.408-10.34H110.9c-6.825,0-12.408-4.652-12.408-10.339s5.583-10.34,12.408-10.34h67.414c6.823,0,12.407-4.653,12.407-10.34s-5.583-10.34-12.407-10.34H97.249c-6.824,0-12.407-4.653-12.407-10.34s5.583-10.339,12.407-10.339H202.3c6.824,0,12.407-4.653,12.407-10.339S209.123,70.1,202.3,70.1H115.447c-6.824,0-12.408-4.654-12.408-10.34s5.583-10.34,12.408-10.34H326.375c6.823,0,12.407,4.654,12.407,10.34S333.2,70.1,326.375,70.1H247.381c-6.825,0-12.408,4.653-12.408,10.34s5.583,10.339,12.408,10.339h29.777c6.824,0,12.408,4.652,12.408,10.339s-5.583,10.34-12.408,10.34h.414c-6.825,0-12.408,4.654-12.408,10.34s5.583,10.34,12.408,10.34h93.882c6.824,0,12.408,4.653,12.408,10.34s-5.584,10.339-12.408,10.339H208.917c-6.824,0-12.408,4.654-12.408,10.34s5.583,10.34,12.408,10.34h19.025c6.824,0,12.407,4.653,12.407,10.34s-5.583,10.34-12.407,10.34H17.014c-6.823,0-12.407-4.653-12.407-10.34s5.583-10.34,12.407-10.34" transform="translate(-4.607 -10.129)" fill="#696d7d" fill-rule="evenodd"/>
  </g>
</svg>
