<svg xmlns="http://www.w3.org/2000/svg" width="165" height="162" viewBox="0 0 165 162">
  <g id="customcare" transform="translate(1149 -40)">
    <ellipse id="Ellipse_30" data-name="Ellipse 30" cx="82.5" cy="81" rx="82.5" ry="81" transform="translate(-1149 40)" fill="#696d7d" opacity="0.5"/>
    <path id="Path_694" data-name="Path 694" d="M93.966,56H13.929A5.936,5.936,0,0,0,8,61.929v50.394a5.936,5.936,0,0,0,5.929,5.929H44.48L42.5,124.18h-4.86a1.482,1.482,0,0,0-1.482,1.482v2.964H22.822a1.482,1.482,0,0,0,0,2.964H88.037a1.482,1.482,0,1,0,0-2.964h-16.3v-2.964a1.482,1.482,0,0,0-1.482-1.482h-4.86l-1.977-5.929H93.966a5.936,5.936,0,0,0,5.929-5.929V61.929A5.936,5.936,0,0,0,93.966,56Zm-25.2,71.144v1.482H39.126v-1.482Zm-23.14-2.964,1.977-5.929H60.289l1.977,5.929Zm51.3-11.857a2.968,2.968,0,0,1-2.964,2.964H13.929a2.968,2.968,0,0,1-2.964-2.964v-2.964H96.93Zm0-5.929c-14.827-.061-37.806-.315-85.966,0V61.929a2.968,2.968,0,0,1,2.964-2.964H93.966a2.968,2.968,0,0,1,2.964,2.964Z" transform="translate(-1120.84 27.308)" fill="#fff"/>
    <path id="Path_695" data-name="Path 695" d="M50.375,352H41.482a1.482,1.482,0,1,0,0,2.964h8.893a1.482,1.482,0,1,0,0-2.964Z" transform="translate(-1146.911 -213.852)" fill="#fff"/>
    <path id="Path_696" data-name="Path 696" d="M114.964,352h-1.482a1.482,1.482,0,1,0,0,2.964h1.482a1.482,1.482,0,1,0,0-2.964Z" transform="translate(-1205.571 -213.852)" fill="#fff"/>
    <path id="Path_697" data-name="Path 697" d="M369.482,272A1.482,1.482,0,0,0,368,273.482v4.447a1.482,1.482,0,0,0,2.964,0v-4.447A1.482,1.482,0,0,0,369.482,272Z" transform="translate(-1414.142 -148.674)" fill="#fff"/>
    <path id="Path_698" data-name="Path 698" d="M41.482,90.964H53.34a1.482,1.482,0,1,0,0-2.964H41.482a1.482,1.482,0,0,0,0,2.964Z" transform="translate(-1146.911 1.236)" fill="#fff"/>
    <path id="Path_699" data-name="Path 699" d="M41.482,114.964h2.964a1.482,1.482,0,0,0,0-2.964H41.482a1.482,1.482,0,0,0,0,2.964Z" transform="translate(-1146.911 -18.317)" fill="#fff"/>
    <path id="Path_700" data-name="Path 700" d="M425.482,298.964h5.929a1.482,1.482,0,0,0,0-2.964h-5.929a1.482,1.482,0,0,0,0,2.964Z" transform="translate(-1459.767 -168.227)" fill="#fff"/>
    <path id="Path_701" data-name="Path 701" d="M449.482,274.964h1.482a1.482,1.482,0,1,0,0-2.964h-1.482a1.482,1.482,0,0,0,0,2.964Z" transform="translate(-1479.32 -148.674)" fill="#fff"/>
    <path id="Icon_awesome-headphones" data-name="Icon awesome-headphones" d="M17.55,2.25A17.541,17.541,0,0,0,0,19.8v3.291a2.194,2.194,0,0,0,1.213,1.962l.986.493a7.678,7.678,0,0,0,7.673,7.417h1.645a1.645,1.645,0,0,0,1.645-1.645V19.252a1.645,1.645,0,0,0-1.645-1.645H9.872a7.655,7.655,0,0,0-5.485,2.305V19.8a13.163,13.163,0,1,1,26.326,0v.112a7.655,7.655,0,0,0-5.485-2.305H23.583a1.645,1.645,0,0,0-1.645,1.645V31.318a1.645,1.645,0,0,0,1.645,1.645h1.645A7.678,7.678,0,0,0,32.9,25.546l.986-.493A2.194,2.194,0,0,0,35.1,23.091V19.8A17.541,17.541,0,0,0,17.55,2.25Z" transform="translate(-1083.374 92.915)" fill="#fff"/>
  </g>
</svg>
