<svg xmlns="http://www.w3.org/2000/svg" width="43.05" height="43.05" viewBox="0 0 43.05 43.05">
  <path id="Dribbble" d="M17.977.757A20.875,20.875,0,0,0,7.629,5.313l6.554,6.554A18.86,18.86,0,0,0,17.977.757ZM21,18.683,34.371,5.313A20.929,20.929,0,0,0,22.05.563a22.851,22.851,0,0,1-4.971,14.2ZM4.75,8.192A20.875,20.875,0,0,0,.195,18.54,18.84,18.84,0,0,0,11.3,14.746ZM27.8,25.483A22.916,22.916,0,0,1,42,20.513,20.929,20.929,0,0,0,37.25,8.192L23.879,21.563,27.8,25.483ZM21,24.442,7.629,37.812a20.985,20.985,0,0,0,12.321,4.75,22.916,22.916,0,0,1,4.971-14.2ZM37.25,34.933a20.876,20.876,0,0,0,4.556-10.348A18.935,18.935,0,0,0,30.7,28.379ZM14.2,17.642A22.8,22.8,0,0,1,0,22.613,20.929,20.929,0,0,0,4.75,34.933L18.121,21.563Zm9.823,24.726a20.876,20.876,0,0,0,10.348-4.556l-6.554-6.554A18.955,18.955,0,0,0,24.023,42.368Z" transform="translate(0.525 -0.037)" fill="red" stroke="#ff4d5a" stroke-width="1"/>
</svg>
