<svg xmlns="http://www.w3.org/2000/svg" width="818.095" height="329.399" viewBox="0 0 818.095 329.399">
  <g id="Group_113" data-name="Group 113" transform="translate(-2281.796 4794.153)">
    <g id="Scroll" transform="translate(1541.618 -4419.434) rotate(-90)">
      <text id="Empowered_by_Innovation" data-name="Empowered by Innovation" transform="translate(65.962 751.178) rotate(90)" fill="#fff" font-size="40" font-family="BerlinSansFB-Reg, Berlin Sans FB"><tspan x="0" y="0">Empowered by Innovation</tspan></text>
    </g>
    <g id="Logo" transform="translate(2281.796 -4794.151)">
      <g id="Layer_1" data-name="Layer 1" transform="translate(0 -0.002)">
        <path id="Path_573" data-name="Path 573" d="M3515.36,818.8a7.079,7.079,0,0,1,3.729,4.807,7.46,7.46,0,0,1-.4,3.987,12.91,12.91,0,0,0-.681,2.7c-.218,1.97.663,2.75,2.78,2.617a11.01,11.01,0,0,0,10.736-12.429,18.116,18.116,0,0,1,.134-6.3,6.849,6.849,0,0,1,3.4-4.572,20.059,20.059,0,0,1,4.322-1.874c9.892-2.745,19.809-5.409,29.724-8.086a4.736,4.736,0,0,1,4.458,1.787,1.593,1.593,0,0,1,.084,1.089,3.139,3.139,0,0,1-2.37,2.394c-2.256.537-4.526,1.031-6.765,1.628-3.028.806-6.032,1.691-9.042,2.549a3.27,3.27,0,0,0-.557.278c-.048.715.412.872.96.829a17.323,17.323,0,0,0,2.033-.286c4.16-.808,8.314-1.645,12.479-2.432a5.991,5.991,0,0,1,2.034-.038,1.888,1.888,0,0,1,1.771,2.406,4.167,4.167,0,0,1-3.184,3.472c-3.5.808-7.026,1.529-10.548,2.268a3.338,3.338,0,0,1-1.082-.047c-2.99-.4-5.214.735-6.351,3.315-.326.736-.532,1.52-.837,2.408a8.838,8.838,0,0,0-4.821.838,5.537,5.537,0,0,0-2.5,4.041,6.589,6.589,0,0,0-4.481,1.57,6.959,6.959,0,0,0-1.951,4.205c-.459.033-.9.07-1.349.1-3.265.2-5.235,1.98-5.379,5.008a14.549,14.549,0,0,0,.3,3.01,16.674,16.674,0,0,1-2.347,11.841,25.521,25.521,0,0,1-3.032,4.053,141.829,141.829,0,0,0-19.368,26.348c-7.657,13.2-15.153,26.482-22.6,39.783-4.577,8.166-8.89,16.459-13.425,24.645a153.654,153.654,0,0,0-10.993,25.063c-1.12,3.3-2.378,6.555-3.633,9.813a19.584,19.584,0,0,1-2.942,5.27,6.312,6.312,0,0,1-4.537,2.577,7.964,7.964,0,0,1-4.2-.972,25.832,25.832,0,0,1-6.039-4.146,41.31,41.31,0,0,1-7.255-9.183,23.171,23.171,0,0,1-2.792-6.034,15.135,15.135,0,0,1,1.879-11.865c1.475-2.525,3-5.027,4.5-7.538,6.322-10.562,12.388-21.254,19.019-31.65,10.958-17.2,22.239-34.231,33.441-51.3q11.063-16.848,22.287-33.6a30.521,30.521,0,0,0,4.924-12.373c.045-.291.107-.581.175-.872S3515.212,819.341,3515.36,818.8Z" transform="translate(-2830.139 -660.053)" fill="red"/>
        <path id="Path_574" data-name="Path 574" d="M3944,169.665c.335-.946.668-1.727.885-2.535a8.717,8.717,0,0,0-.372-4.992c-.389-1.221-.81-2.422-1.312-3.6a11.352,11.352,0,0,1,.349-9.715,38.469,38.469,0,0,1,8.225-10.984,54.1,54.1,0,0,1,8.686-6.779,19.345,19.345,0,0,0,5.981-5.844q6.47-9.925,12.912-19.864c14.2-21.811,28.5-43.563,42.547-65.45,5.542-8.634,10.574-17.546,15.746-26.379a59.975,59.975,0,0,0,2.689-5.947c.646-1.443,1.233-2.909,1.97-4.31A9.911,9.911,0,0,1,4044,.982a3.078,3.078,0,0,1,3.627-.672,12.057,12.057,0,0,1,2.436,1.406q4.463,3.373,8.853,6.828a52.906,52.906,0,0,1,10.4,10.572,23.5,23.5,0,0,1,2.344,3.994,8.477,8.477,0,0,1-.194,7.733,22.2,22.2,0,0,1-2.368,3.69c-9.713,12.052-19.441,24.109-29.644,35.828a518.731,518.731,0,0,0-36.293,47.616c-.93,1.354-1.818,2.734-2.78,4.069a51.066,51.066,0,0,0-5.824,10.724c-.1.237-.2.471-.3.707a8.192,8.192,0,0,1-6.118,4.968c-4.566,1.047-9.122,2.153-13.683,3.228a53.372,53.372,0,0,0-17.709,7.524,7.168,7.168,0,0,0-3.5,5.72c-.085,1.3-.064,2.617-.059,3.921.009,1.4.128,2.792.072,4.175-.15,3.8-3.034,6.456-7.168,6.653C3945.425,169.7,3944.755,169.667,3944,169.665Z" transform="translate(-3254.399 0.002)" fill="red"/>
        <path id="Path_575" data-name="Path 575" d="M3653.823,233.379a5.868,5.868,0,0,1-1.333,4.641,24.071,24.071,0,0,1-3.083,3.04c-3.72,3.129-7.5,6.2-11.235,9.309-.916.763-1.789,1.57-2.635,2.4a24.583,24.583,0,0,0-6.175,10.035,2.459,2.459,0,0,1-.684,1.157,13.793,13.793,0,0,1-.22-2.162c.319-6.25-1.562-11.965-4.624-17.487q-24.352-43.894-48.563-87.858a42.679,42.679,0,0,0-6.805-9.162,13.059,13.059,0,0,1-1.874-2.329c-.98-1.64-.467-2.938,1.4-3.713a13.079,13.079,0,0,1,2.082-.621c7.585-1.755,15.212-3.329,22.9-4.643a10.985,10.985,0,0,1,10.654,3.519,19.007,19.007,0,0,1,3.024,4.8q13.351,28.112,26.717,56.22,6.4,13.444,12.846,26.871c.332.7.686,1.382,1.047,2.064A6.5,6.5,0,0,0,3653.823,233.379Z" transform="translate(-2943.863 -112.082)" fill="red"/>
        <path id="Path_576" data-name="Path 576" d="M4068.57,1022.945a6.457,6.457,0,0,0,3.918-4.212c.719.134,1.332.276,1.955.361a3.768,3.768,0,0,0,4.275-2.029,15.74,15.74,0,0,0,.883-2.645c.131-.443.174-.906.286-1.471.4.075.738.126,1.069.2,2.89.653,4.863-.314,5.758-2.919.349-1.033.508-2.124.752-3.186,4.145-.745,4.58-1.066,6.536-4.894a5.731,5.731,0,0,1,.476.747c.421.981.846,1.961,1.222,2.966a115.562,115.562,0,0,0,13.412,25.3c8.457,12.35,17.251,24.5,26.7,36.225a153.93,153.93,0,0,0,20.764,21.4c1.555,1.309,3.116,2.617,4.537,4.06a13.945,13.945,0,0,1,2.486,3.3,5.935,5.935,0,0,1-1.621,7.629,14.865,14.865,0,0,1-3.634,2.216,27.617,27.617,0,0,1-12.326,1.919,79.436,79.436,0,0,1-11.03-1.221,10.506,10.506,0,0,1-7.42-4.711c-7.186-11.151-15.327-21.715-23.571-32.214-7.034-8.958-14.134-17.876-21.026-26.923-4.762-6.25-9.227-12.69-13.823-19.047A8.433,8.433,0,0,1,4068.57,1022.945Zm56.2,46.736.34-.23-35.927-57.221a7.7,7.7,0,0,0-.862,5.135,24.763,24.763,0,0,0,2.517,6.672,148.684,148.684,0,0,0,33.144,45C4124.225,1069.268,4124.5,1069.476,4124.766,1069.682Z" transform="translate(-3358.656 -827.287)" fill="red"/>
        <path id="Path_577" data-name="Path 577" d="M4119.338,950.673a3.489,3.489,0,0,1-3,3.526,3.624,3.624,0,0,1-4.06-2.5c-.414-1.466-.667-2.966-.976-4.458-.721-3.476-1.458-6.948-2.136-10.431a3.4,3.4,0,0,1,3.272-4.025,3.6,3.6,0,0,1,3.811,2.82c.451,1.893.814,3.8,1.211,5.706q.853,4.094,1.7,8.19C4119.25,949.911,4119.289,950.338,4119.338,950.673Z" transform="translate(-3392.117 -770.014)" fill="red"/>
        <path id="Path_578" data-name="Path 578" d="M4066.88,966a3.508,3.508,0,0,1,3.073-3.586,3.615,3.615,0,0,1,3.961,2.467c.41,1.422.646,2.888.948,4.334.731,3.518,1.487,7.03,2.171,10.555a3.6,3.6,0,0,1-7.1,1.174q-.933-4.4-1.846-8.81-.492-2.357-.97-4.711C4067.007,966.877,4066.936,966.334,4066.88,966Z" transform="translate(-3357.26 -794.455)" fill="red"/>
        <path id="Path_579" data-name="Path 579" d="M4153.125,896a3.727,3.727,0,0,1,3.568,2.989c.3,1.276.542,2.563.806,3.839.708,3.436,1.426,6.87,2.108,10.309a4.229,4.229,0,0,1,.029,1.626,3.506,3.506,0,0,1-3.489,2.713,3.68,3.68,0,0,1-3.555-2.684c-.335-1.269-.56-2.56-.827-3.839-.712-3.436-1.431-6.868-2.117-10.307a5.77,5.77,0,0,1-.1-1.757A3.459,3.459,0,0,1,4153.125,896Z" transform="translate(-3425.484 -739.656)" fill="red"/>
        <path id="Path_580" data-name="Path 580" d="M4036.811,1010.11a3.285,3.285,0,0,1-2.947,3.245,3.451,3.451,0,0,1-4.024-2.488c-.309-1.232-.5-2.488-.743-3.734-.616-3.155-1.246-6.306-1.843-9.464a3.22,3.22,0,0,1,2.584-3.879,3.464,3.464,0,0,1,4.325,2.57c.907,4.348,1.721,8.712,2.567,13.073C4036.779,1009.681,4036.791,1009.936,4036.811,1010.11Z" transform="translate(-3324.495 -820.309)" fill="red"/>
        <path id="Path_581" data-name="Path 581" d="M4207.669,906c1.663-.01,2.717.775,2.92,1.953a2.3,2.3,0,0,1-1.9,2.687c-1.286.283-2.6.454-3.9.679-.6.1-1-.1-1.115-.654-.217-1.033-.407-2.071-.592-3.109a.746.746,0,0,1,.7-.921C4205.168,906.4,4206.565,906.183,4207.669,906Z" transform="translate(-3469.682 -747.913)" fill="red"/>
        <path id="Path_582" data-name="Path 582" d="M4212.17,954.1c.2-.174.426-.523.736-.609a9.851,9.851,0,0,1,2.284-.365,2.472,2.472,0,0,1,2.474,1.991,2.227,2.227,0,0,1-1.527,2.546,10.68,10.68,0,0,1-2.4.457,1.019,1.019,0,0,1-.82-.487C4212.62,956.535,4212.434,955.408,4212.17,954.1Z" transform="translate(-3477.199 -786.818)" fill="red"/>
        <path id="Path_583" data-name="Path 583" d="M4217.607,1117.372c-.263-.213-.541-.413-.789-.642a148.679,148.679,0,0,1-33.144-45,24.668,24.668,0,0,1-2.516-6.673,7.69,7.69,0,0,1,.861-5.135l35.927,57.221Z" transform="translate(-3451.497 -874.977)" fill="#020203"/>
        <path id="Path_584" data-name="Path 584" d="M1119.641,740.124q-25.088,0-40.179-16.533t-15.091-43.015q0-28.459,15.379-45.4t41.865-16.944q24.428,0,39.357,16.451T1175.9,677.69q0,28.869-15.3,45.648T1119.641,740.124Zm.988-109.391q-18.588,0-30.186,13.408t-11.6,35.2q0,21.8,11.309,35.072t29.488,13.284q19.41,0,30.6-12.668t11.187-35.449q0-23.358-10.857-36.107T1120.628,630.732Z" transform="translate(-878.651 -510.356)" fill="#fff"/>
        <path id="Path_585" data-name="Path 585" d="M1796.582,705.218q0,20.975-8.883,32.612t-23.769,11.638a28.1,28.1,0,0,1-11.35-1.973V733.841q4.441,3.209,11.516,3.209,18.67,0,18.67-31.668V629.55h13.818Z" transform="translate(-1446.777 -519.701)" fill="#fff"/>
        <path id="Path_586" data-name="Path 586" d="M2708.37,733.215q-13.076,6.906-32.57,6.908-25.168,0-40.307-16.2T2620.36,681.4q0-28.293,17.025-45.731t43.182-17.437q16.777,0,27.8,4.854v14.721a56.406,56.406,0,0,0-27.965-7.074q-20.316,0-32.94,13.572t-12.626,36.273q0,21.547,11.8,34.337t30.968,12.792q17.763,0,30.76-7.9Z" transform="translate(-2163.14 -510.356)" fill="#fff"/>
        <path id="Path_587" data-name="Path 587" d="M3274.938,642.05h-34.046V747.495h-13.818V642.05H3193.1v-12.5h81.835Z" transform="translate(-2635.944 -519.701)" fill="#fff"/>
        <path id="Path_588" data-name="Path 588" d="M2190.158,642.054v0h46.06v-12.5H2176.34v12.5Z" transform="translate(-1796.596 -519.701)" fill="#fff"/>
        <path id="Path_589" data-name="Path 589" d="M2190.158,979.749V938.46h42.606V926.04h-40.72v.03h-15.7v66.181h62.51v-12.5Z" transform="translate(-1796.596 -764.457)" fill="#fff"/>
        <path id="Path_590" data-name="Path 590" d="M568.238,680.364v-.33c25.254-4.161,35.636-39.031,15.915-55.353-13.4-12.094-44.224-6.631-60.823-7.815v12.563h13.818v-.058c16.47-.143,43.308-3.092,42.769,20.066-.017,24.1-23.973,23.4-41.771,22.744H523.33v62.641h13.818V684.641c7.449.206,18.047-1.342,24.058,3.947,9.154,7.081,23.5,36.386,30.227,46.225h16.449C597.653,721.5,583.7,687.827,568.238,680.364Z" transform="translate(-432.015 -509.036)" fill="#fff"/>
        <path id="Path_591" data-name="Path 591" d="M61.728,638.761q-10.406-9.211-29.314-9.211H0V747.5H13.818v-44.59H29.363q19.66,0,31.214-10.693t11.556-27.469Q72.133,647.974,61.728,638.761Zm-11.6,45.114q-7.524,6.538-21.837,6.538H13.811V642.05h16.2q27.635,0,27.635,23.36Q57.656,677.335,50.13,683.875Z" transform="translate(0 -519.701)" fill="#fff"/>
      </g>
    </g>
  </g>
</svg>
