<svg xmlns="http://www.w3.org/2000/svg" xmlns:xlink="http://www.w3.org/1999/xlink" width="103.844" height="112.996" viewBox="0 0 103.844 112.996">
  <defs>
    <linearGradient id="linear-gradient" x1="-2.687" y1="-14.928" x2="4.544" y2="20.291" gradientUnits="objectBoundingBox">
      <stop offset="0" stop-color="#2a1847"/>
      <stop offset="0.08" stop-color="#311a49"/>
      <stop offset="1" stop-color="#7a2e5c"/>
    </linearGradient>
    <linearGradient id="linear-gradient-2" x1="-1.776" y1="-13.153" x2="5.126" y2="28.202" xlink:href="#linear-gradient"/>
    <linearGradient id="linear-gradient-3" x1="-0.565" y1="-9.535" x2="5.515" y2="47.722" xlink:href="#linear-gradient"/>
    <linearGradient id="linear-gradient-4" x1="-1.127" y1="-8.524" x2="6.235" y2="32.829" xlink:href="#linear-gradient"/>
    <linearGradient id="linear-gradient-5" x1="-0.235" y1="-3.608" x2="7.147" y2="37.506" xlink:href="#linear-gradient"/>
    <linearGradient id="linear-gradient-6" x1="-1.658" y1="-11.769" x2="4.002" y2="20.151" xlink:href="#linear-gradient"/>
    <linearGradient id="linear-gradient-7" x1="-4.122" y1="-11.807" x2="8.846" y2="22.711" xlink:href="#linear-gradient"/>
    <linearGradient id="linear-gradient-8" x1="-1.517" y1="-10.027" x2="5.887" y2="28.536" xlink:href="#linear-gradient"/>
    <linearGradient id="linear-gradient-9" x1="0.488" y1="-0.257" x2="0.502" y2="0.743" gradientUnits="objectBoundingBox">
      <stop offset="0.02" stop-color="#fbe0d9"/>
      <stop offset="1" stop-color="#fbe0d9" stop-opacity="0"/>
    </linearGradient>
    <linearGradient id="linear-gradient-10" x1="0.427" y1="-0.077" x2="0.498" y2="0.96" xlink:href="#linear-gradient-9"/>
    <linearGradient id="linear-gradient-11" y1="0.498" x2="1" y2="0.498" gradientUnits="objectBoundingBox">
      <stop offset="0.02" stop-color="#fbe0d9"/>
      <stop offset="1" stop-color="#fbe0d9"/>
    </linearGradient>
    <linearGradient id="linear-gradient-12" x1="0.511" y1="1.73" x2="0.495" y2="-0.024" gradientUnits="objectBoundingBox">
      <stop offset="0" stop-color="#ffe0d9"/>
      <stop offset="1" stop-color="#fbe0d9" stop-opacity="0"/>
    </linearGradient>
  </defs>
  <g id="Layer_2" data-name="Layer 2" transform="translate(-0.036 -0.037)">
    <g id="Objects" transform="translate(-0.002 -0.005)">
      <path id="Path_173" data-name="Path 173" d="M91.158,268.562c.05.033,0,.2-.129.38s-.255.3-.305.259,0-.2.125-.38S91.108,268.529,91.158,268.562Z" transform="translate(-52.808 -156.356)" fill="#fffcf9"/>
      <path id="Path_174" data-name="Path 174" d="M151.762,268.3a2.192,2.192,0,0,1,.042-.614,2.479,2.479,0,0,1,.13-.606,2.19,2.19,0,0,1-.042.614A2.266,2.266,0,0,1,151.762,268.3Z" transform="translate(-88.354 -155.496)" fill="#fffcf9"/>
      <path id="Path_175" data-name="Path 175" d="M155.712,263.1a4.442,4.442,0,0,1,.038-.836,4.147,4.147,0,0,1,.125-.806,3.663,3.663,0,0,1-.038.815A3.872,3.872,0,0,1,155.712,263.1Z" transform="translate(-90.654 -152.224)" fill="#fffcf9"/>
      <path id="Path_176" data-name="Path 176" d="M160.18,265.879a3.078,3.078,0,0,1,.192-.7,3.358,3.358,0,0,1,.272-.677,3,3,0,0,1-.188.7A3.333,3.333,0,0,1,160.18,265.879Z" transform="translate(-93.258 -153.994)" fill="#fffcf9"/>
      <path id="Path_177" data-name="Path 177" d="M166,269.661a1.216,1.216,0,0,1,.175-.518,1.172,1.172,0,0,1,.322-.443,2.773,2.773,0,0,1-.247.485A2.668,2.668,0,0,1,166,269.661Z" transform="translate(-96.647 -156.439)" fill="#fffcf9"/>
      <path id="Path_178" data-name="Path 178" d="M136.436,269.26a1.523,1.523,0,0,1-.351.472,1.675,1.675,0,0,1-.455.38,2.975,2.975,0,0,1,.393-.439A2.931,2.931,0,0,1,136.436,269.26Z" transform="translate(-78.965 -156.765)" fill="#fffcf9"/>
      <path id="Path_179" data-name="Path 179" d="M132.539,262c.021,0-.171.3-.359.668s-.309.685-.33.677a1.918,1.918,0,0,1,.255-.719A2.023,2.023,0,0,1,132.539,262Z" transform="translate(-76.764 -152.538)" fill="#fffcf9"/>
      <path id="Path_180" data-name="Path 180" d="M127.94,262.17a1.253,1.253,0,0,1,.368.468,1.2,1.2,0,0,1,.184.564c-.025,0-.109-.242-.263-.522A5.5,5.5,0,0,1,127.94,262.17Z" transform="translate(-74.488 -152.637)" fill="#fffcf9"/>
      <path id="Path_181" data-name="Path 181" d="M124.392,267.911a1.434,1.434,0,0,1-.322-.363,1.6,1.6,0,0,1-.251-.418,1.64,1.64,0,0,1,.322.363A1.361,1.361,0,0,1,124.392,267.911Z" transform="translate(-72.089 -155.525)" fill="#fffcf9"/>
      <path id="Path_182" data-name="Path 182" d="M47.23,267.5a1.581,1.581,0,0,1-.2-.393c-.113-.251-.259-.6-.418-.994a8.591,8.591,0,0,1-.326-1.024,2.042,2.042,0,0,1-.1-.418,2.724,2.724,0,0,1,.155.418l.347,1.011.372,1A2.609,2.609,0,0,1,47.23,267.5Z" transform="translate(-26.892 -154.093)" fill="#fffcf9"/>
      <path id="Path_183" data-name="Path 183" d="M51.71,262.2a1.083,1.083,0,0,1-.443-.255,1.1,1.1,0,0,1-.347-.376,2.711,2.711,0,0,1,.418.309A2.316,2.316,0,0,1,51.71,262.2Z" transform="translate(-29.646 -152.288)" fill="#fffcf9"/>
      <path id="Path_184" data-name="Path 184" d="M54.485,265.26a2.285,2.285,0,0,1-.075.719,2.133,2.133,0,0,1-.23.681,5.759,5.759,0,0,1,.146-.7A5.049,5.049,0,0,1,54.485,265.26Z" transform="translate(-31.544 -154.436)" fill="#fffcf9"/>
      <path id="Path_185" data-name="Path 185" d="M58.75,265.1a3.067,3.067,0,0,1,.15-.714,3.172,3.172,0,0,1,.238-.685,3.1,3.1,0,0,1-.15.71A3.262,3.262,0,0,1,58.75,265.1Z" transform="translate(-34.204 -153.528)" fill="#fffcf9"/>
      <path id="Path_186" data-name="Path 186" d="M61.2,267.252c0-.021.063-.134.134-.288s.1-.288.125-.284.029.155-.046.322S61.217,267.265,61.2,267.252Z" transform="translate(-35.631 -155.263)" fill="#fffcf9"/>
      <path id="Path_187" data-name="Path 187" d="M96.707,250.216a.418.418,0,0,1,.163.38.489.489,0,0,1-.777.288.418.418,0,0,1-.125-.393,1.852,1.852,0,0,1,.113-.376c.042-.1.063-.167.1-.18s.1.021.192.071A1.851,1.851,0,0,1,96.707,250.216Z" transform="translate(-55.868 -145.513)" fill="url(#linear-gradient)"/>
      <path id="Path_188" data-name="Path 188" d="M89.009,241.76c.23.192.313.472.188.627s-.418.121-.652-.071-.313-.472-.188-.627S88.78,241.555,89.009,241.76Z" transform="translate(-51.408 -140.654)" fill="url(#linear-gradient-2)"/>
      <path id="Path_189" data-name="Path 189" d="M94.333,226.7c.3,0,.543.142.543.322s-.242.326-.543.326-.543-.146-.543-.326S94.032,226.7,94.333,226.7Z" transform="translate(-54.605 -131.986)" fill="url(#linear-gradient-3)"/>
      <path id="Path_190" data-name="Path 190" d="M103.058,229.068c.217.213.284.485.159.614s-.418.063-.618-.15-.284-.485-.155-.614S102.828,228.855,103.058,229.068Z" transform="translate(-59.607 -133.239)" fill="url(#linear-gradient-4)"/>
      <path id="Path_191" data-name="Path 191" d="M111.639,216.7c.213.213.284.489.155.618s-.418.059-.614-.155-.284-.489-.155-.614S111.426,216.466,111.639,216.7Z" transform="translate(-64.604 -126.034)" fill="url(#linear-gradient-5)"/>
      <path id="Path_192" data-name="Path 192" d="M127.868,240.157a.581.581,0,1,1-.246-.756A.564.564,0,0,1,127.868,240.157Z" transform="translate(-73.802 -139.339)" fill="url(#linear-gradient-6)"/>
      <path id="Path_193" data-name="Path 193" d="M134.712,236.2c.058.3,0,.556-.125.581s-.28-.192-.338-.489,0-.551.125-.581S134.654,235.9,134.712,236.2Z" transform="translate(-78.147 -137.228)" fill="url(#linear-gradient-7)"/>
      <path id="Path_194" data-name="Path 194" d="M135.232,228.307c.188.234.217.526.063.652s-.418.033-.627-.2-.213-.522-.058-.648S135.044,228.073,135.232,228.307Z" transform="translate(-78.308 -132.774)" fill="url(#linear-gradient-8)"/>
      <path id="Path_195" data-name="Path 195" d="M117.125,166.952a1.809,1.809,0,0,0-.94-.961,3.962,3.962,0,0,0-.773-.1h-.042a.879.879,0,0,0-.263-.263A4.6,4.6,0,0,0,111.489,164h0a4.111,4.111,0,0,0-.556.071,3.814,3.814,0,0,0-.744.192h0a3.012,3.012,0,0,0-2.131,2.97,32.623,32.623,0,0,0,.418,4.633s-1.32.785-.836.806,1.508-.794,1.508-.794a25.818,25.818,0,0,1,.221-3.9.783.783,0,0,0,.046.209,1.976,1.976,0,0,0,.8,1.136c.217.134.46.217.685.338.079.042.167.1.175.192a.263.263,0,0,1,0,.113l-.192.76a1.993,1.993,0,0,0,.961-1.07.464.464,0,0,0,0-.372.576.576,0,0,0-.192-.184,3.81,3.81,0,0,1-.731-.664,1.583,1.583,0,0,1-.376-.685,1.383,1.383,0,0,1,.368-1.153,4.027,4.027,0,0,1,1-.748h0a3.067,3.067,0,0,1,1.186.48c.175.109.347.238.526.334a10.407,10.407,0,0,0-.389,3.977c0,.13.058.288.184.3s.2-.167.226-.309c.176-1.253.531-2.452.836-3.919h.046l1.191,4.533a.363.363,0,0,0,.109.213.259.259,0,0,0,.355-.1.568.568,0,0,0,.079-.418c-.221-1.224-.318-1.725-.518-2.62a1.254,1.254,0,0,0,.765.247.881.881,0,0,0,.8-.556A1.366,1.366,0,0,0,117.125,166.952Z" transform="translate(-58.714 -134.486)" fill="#823c56"/>
      <g id="Group_32" data-name="Group 32" transform="translate(48.544 32.005)" opacity="0.33">
        <path id="Path_196" data-name="Path 196" d="M117.125,166.952a1.809,1.809,0,0,0-.94-.961,3.962,3.962,0,0,0-.773-.1h-.042a.879.879,0,0,0-.263-.263A4.6,4.6,0,0,0,111.489,164h0a4.111,4.111,0,0,0-.556.071,3.814,3.814,0,0,0-.744.192h0a3.012,3.012,0,0,0-2.131,2.97,32.623,32.623,0,0,0,.418,4.633s-1.32.785-.836.806,1.508-.794,1.508-.794a25.818,25.818,0,0,1,.221-3.9.783.783,0,0,0,.046.209,1.976,1.976,0,0,0,.8,1.136c.217.134.46.217.685.338.079.042.167.1.175.192a.263.263,0,0,1,0,.113l-.192.76a1.993,1.993,0,0,0,.961-1.07.464.464,0,0,0,0-.372.576.576,0,0,0-.192-.184,3.81,3.81,0,0,1-.731-.664,1.583,1.583,0,0,1-.376-.685,1.383,1.383,0,0,1,.368-1.153,4.027,4.027,0,0,1,1-.748h0a3.067,3.067,0,0,1,1.186.48c.175.109.347.238.526.334a10.407,10.407,0,0,0-.389,3.977c0,.13.058.288.184.3s.2-.167.226-.309c.176-1.253.531-2.452.836-3.919h.046l1.191,4.533a.363.363,0,0,0,.109.213.259.259,0,0,0,.355-.1.568.568,0,0,0,.079-.418c-.221-1.224-.318-1.725-.518-2.62a1.254,1.254,0,0,0,.765.247.881.881,0,0,0,.8-.556A1.366,1.366,0,0,0,117.125,166.952Z" transform="translate(-107.534 -163.997)" fill="url(#linear-gradient-9)"/>
      </g>
      <path id="Path_197" data-name="Path 197" d="M116.637,165.69c-.029.025-.3-.347-.869-.8a4.335,4.335,0,0,0-1.095-.627,5.794,5.794,0,0,0-1.5-.351,3.534,3.534,0,0,0-2.624.731,8.118,8.118,0,0,0-.836.836,2.306,2.306,0,0,1,.739-.944,3.493,3.493,0,0,1,2.741-.836,5.5,5.5,0,0,1,1.558.38,4.179,4.179,0,0,1,1.115.694,4.313,4.313,0,0,1,.6.643C116.591,165.581,116.649,165.681,116.637,165.69Z" transform="translate(-63.874 -152.521)" fill="#fffcf9"/>
      <path id="Path_198" data-name="Path 198" d="M128.333,170.274c-.029,0-.1-.146-.2-.393a2.336,2.336,0,0,0-.531-.836,1.918,1.918,0,0,0-.9-.4c-.259-.054-.418-.092-.418-.121s.167-.05.443-.029a1.672,1.672,0,0,1,1.024.384,1.913,1.913,0,0,1,.526.953C128.35,170.1,128.362,170.265,128.333,170.274Z" transform="translate(-73.527 -155.325)" fill="#fffcf9"/>
      <path id="Path_199" data-name="Path 199" d="M70.28,11.1S76.543.173,93.271,0,115.89,11.1,115.89,11.1Z" transform="translate(-40.917 0.005)" fill="#fcd8be"/>
      <path id="Path_200" data-name="Path 200" d="M0,37.174S-.879,21.394,52.773,21.39c50.134,0,51.233,15.784,51.233,15.784Z" transform="translate(0.002 -12.452)" fill="#3b1a4f"/>
      <path id="Path_201" data-name="Path 201" d="M-22.206,82.941-42.068,99.549H-3.514L-19.707,82.7Z" transform="translate(73.116 -54.782)" fill="url(#linear-gradient-10)"/>
      <path id="Path_202" data-name="Path 202" d="M31.8,52.628S-5.138,50.2,1.3,41.879s45.066-9.367,61.2-8.845S108.424,38,104.117,45.171C97.875,55.578,31.8,52.628,31.8,52.628Z" transform="translate(-0.317 -19.166)" fill="#7d3355"/>
      <path id="Path_203" data-name="Path 203" d="M80.155,71.386s-2.849-1.412,0-3.426,11.9-3.417,19.636-3.217,18.713,2.21,17.505,5.431S87.771,76.324,80.155,71.386Z" transform="translate(-45.929 -37.682)" fill="#5a2252"/>
      <path id="Path_204" data-name="Path 204" d="M86.51,77.154s5.849-2.849,16.373-2.757,15.3,2.34,15.3,2.34-1.425,6.267-15.207,6S86.51,77.154,86.51,77.154Z" transform="translate(-50.367 -43.312)" fill="url(#linear-gradient-11)"/>
      <path id="Path_205" data-name="Path 205" d="M31.8,52.628S-5.138,50.2,1.3,41.879s45.066-9.367,61.2-8.845S108.424,38,104.117,45.171C97.875,55.578,31.8,52.628,31.8,52.628Z" transform="translate(-0.317 -19.166)" opacity="0.32" fill="url(#linear-gradient-12)"/>
    </g>
  </g>
</svg>
