<svg xmlns="http://www.w3.org/2000/svg" width="1363.741" height="1363.742" viewBox="0 0 1363.741 1363.742">
  <g id="moonlight" transform="translate(0)" opacity="0.58">
    <path id="Path_14" data-name="Path 14" d="M681.871,1363.742A681.943,681.943,0,0,1,416.328,53.754,681.939,681.939,0,0,1,947.415,1309.982a677.821,677.821,0,0,1-265.544,53.76" transform="translate(0 0)" fill="rgba(255,255,250,0.05)" fill-rule="evenodd"/>
    <path id="Path_15" data-name="Path 15" d="M682.935,1295.871A613.006,613.006,0,0,1,444.248,118.309,613,613,0,0,1,921.625,1247.557a609.262,609.262,0,0,1-238.689,48.314" transform="translate(-1.064 -1.064)" fill="rgba(255,255,250,0.05)" fill-rule="evenodd"/>
    <path id="Path_16" data-name="Path 16" d="M684,1228a543.2,543.2,0,1,1,211.835-42.868A540.711,540.711,0,0,1,684,1228" transform="translate(-2.129 -2.129)" fill="rgba(255,255,250,0.05)" fill-rule="evenodd"/>
    <path id="Path_17" data-name="Path 17" d="M685.064,1160.129a474.284,474.284,0,1,1,184.981-37.422,472.151,472.151,0,0,1-184.981,37.422" transform="translate(-3.193 -3.193)" fill="rgba(255,255,250,0.05)" fill-rule="evenodd"/>
    <path id="Path_18" data-name="Path 18" d="M686.129,1092.257a405.339,405.339,0,1,1,158.125-31.976,403.586,403.586,0,0,1-158.125,31.976" transform="translate(-4.258 -4.258)" fill="rgba(255,255,250,0.05)" fill-rule="evenodd"/>
    <path id="Path_19" data-name="Path 19" d="M687.193,1024.386a336.4,336.4,0,1,1,131.272-26.53,335.038,335.038,0,0,1-131.272,26.53" transform="translate(-5.322 -5.322)" fill="rgba(255,255,250,0.05)" fill-rule="evenodd"/>
  </g>
</svg>
