<svg id="moon" xmlns="http://www.w3.org/2000/svg" width="421.001" height="421" viewBox="0 0 421.001 421">
  <path id="Path_12" data-name="Path 12" d="M421,210.5C421,326.756,326.757,421,210.5,421S0,326.756,0,210.5,94.245,0,210.5,0,421,94.245,421,210.5" fill="#fffffa" fill-rule="evenodd"/>
  <path id="Path_13" data-name="Path 13" d="M172.333,161.351a45.979,45.979,0,1,1-45.979-45.979,45.979,45.979,0,0,1,45.979,45.979m75.406-73.413a29.427,29.427,0,1,1-29.427-29.427,29.427,29.427,0,0,1,29.427,29.427m-2.866,81.14a18.833,18.833,0,1,1-18.833-18.833,18.833,18.833,0,0,1,18.833,18.833" transform="translate(-18.264 -13.296)" fill="rgba(230,230,230,0.53)" fill-rule="evenodd"/>
</svg>
