<svg xmlns="http://www.w3.org/2000/svg" width="165" height="162" viewBox="0 0 165 162">
  <g id="seo" transform="translate(1420 -879)">
    <ellipse id="Ellipse_29" data-name="Ellipse 29" cx="82.5" cy="81" rx="82.5" ry="81" transform="translate(-1420 879)" fill="#696d7d" opacity="0.5"/>
    <path id="Path_686" data-name="Path 686" d="M93.966,56H13.929A5.936,5.936,0,0,0,8,61.929v50.394a5.936,5.936,0,0,0,5.929,5.929H44.48L42.5,124.18h-4.86a1.482,1.482,0,0,0-1.482,1.482v2.964H22.822a1.482,1.482,0,0,0,0,2.964H88.037a1.482,1.482,0,1,0,0-2.964h-16.3v-2.964a1.482,1.482,0,0,0-1.482-1.482h-4.86l-1.977-5.929H93.966a5.936,5.936,0,0,0,5.929-5.929V61.929A5.936,5.936,0,0,0,93.966,56Zm-25.2,71.144v1.482H39.126v-1.482Zm-23.14-2.964,1.977-5.929H60.289l1.977,5.929Zm51.3-11.857a2.968,2.968,0,0,1-2.964,2.964H13.929a2.968,2.968,0,0,1-2.964-2.964v-2.964H96.93Zm0-5.929c-14.827-.061-37.806-.315-85.966,0V61.929a2.968,2.968,0,0,1,2.964-2.964H93.966a2.968,2.968,0,0,1,2.964,2.964Z" transform="translate(-1390.593 866.308)" fill="#fff"/>
    <path id="Path_687" data-name="Path 687" d="M50.375,352H41.482a1.482,1.482,0,1,0,0,2.964h8.893a1.482,1.482,0,1,0,0-2.964Z" transform="translate(-1416.664 625.148)" fill="#fff"/>
    <path id="Path_688" data-name="Path 688" d="M114.964,352h-1.482a1.482,1.482,0,1,0,0,2.964h1.482a1.482,1.482,0,1,0,0-2.964Z" transform="translate(-1475.324 625.148)" fill="#fff"/>
    <path id="Path_689" data-name="Path 689" d="M369.482,272A1.482,1.482,0,0,0,368,273.482v4.447a1.482,1.482,0,0,0,2.964,0v-4.447A1.482,1.482,0,0,0,369.482,272Z" transform="translate(-1683.895 690.326)" fill="#fff"/>
    <path id="Path_690" data-name="Path 690" d="M41.482,90.964H53.34a1.482,1.482,0,1,0,0-2.964H41.482a1.482,1.482,0,0,0,0,2.964Z" transform="translate(-1416.664 840.236)" fill="#fff"/>
    <path id="Path_691" data-name="Path 691" d="M41.482,114.964h2.964a1.482,1.482,0,0,0,0-2.964H41.482a1.482,1.482,0,0,0,0,2.964Z" transform="translate(-1416.664 820.683)" fill="#fff"/>
    <path id="Path_692" data-name="Path 692" d="M425.482,298.964h5.929a1.482,1.482,0,0,0,0-2.964h-5.929a1.482,1.482,0,0,0,0,2.964Z" transform="translate(-1729.52 670.773)" fill="#fff"/>
    <path id="Path_693" data-name="Path 693" d="M449.482,274.964h1.482a1.482,1.482,0,1,0,0-2.964h-1.482a1.482,1.482,0,0,0,0,2.964Z" transform="translate(-1749.073 690.326)" fill="#fff"/>
    <path id="Icon_awesome-chart-line" data-name="Icon awesome-chart-line" d="M42.468,6.553H30.82A2.368,2.368,0,0,0,29.145,10.6l3.2,3.2L25.1,21.032l-7.239-7.239a3.156,3.156,0,0,0-4.465,0L6.621,20.571a1.579,1.579,0,0,0,0,2.233l2.232,2.232a1.579,1.579,0,0,0,2.233,0l4.545-4.546,7.239,7.239a3.156,3.156,0,0,0,4.465,0l9.472-9.472,3.2,3.2a2.368,2.368,0,0,0,4.042-1.674V8.132A1.577,1.577,0,0,0,42.468,6.553Z" transform="translate(-1361.748 930.813)" fill="#fff"/>
  </g>
</svg>
