<svg xmlns="http://www.w3.org/2000/svg" width="1593.112" height="1593.112" viewBox="0 0 1593.112 1593.112">
  <g id="star" transform="translate(673.166) rotate(45)">
    <path id="Path_20" data-name="Path 20" d="M1043,63.5a2.5,2.5,0,1,1-2.5-2.5,2.5,2.5,0,0,1,2.5,2.5m-699-20a2.5,2.5,0,1,1-2.5-2.5,2.5,2.5,0,0,1,2.5,2.5m-145,529a2.5,2.5,0,1,1-2.5-2.5,2.5,2.5,0,0,1,2.5,2.5m42-181a2.5,2.5,0,1,1-2.5-2.5,2.5,2.5,0,0,1,2.5,2.5m664-299a2.5,2.5,0,1,1-2.5-2.5,2.5,2.5,0,0,1,2.5,2.5m-224-80a2.5,2.5,0,1,1-2.5-2.5,2.5,2.5,0,0,1,2.5,2.5m-255,201a2.5,2.5,0,1,1-2.5-2.5,2.5,2.5,0,0,1,2.5,2.5m49-150a2.5,2.5,0,1,1-2.5-2.5,2.5,2.5,0,0,1,2.5,2.5m400-61A2.5,2.5,0,1,1,872.5,0,2.5,2.5,0,0,1,875,2.5M597.063,159.056a2.5,2.5,0,1,1,2.993,1.881,2.5,2.5,0,0,1-2.993-1.881m421,90a2.5,2.5,0,1,1,3,1.881,2.509,2.509,0,0,1-3-1.881m-703,211a2.5,2.5,0,1,1,2.993,1.881,2.5,2.5,0,0,1-2.993-1.881m126,203a2.5,2.5,0,1,1,2.992,1.881,2.5,2.5,0,0,1-2.992-1.881m-83,130a2.5,2.5,0,1,1,2.993,1.881,2.5,2.5,0,0,1-2.993-1.881m320-12a2.5,2.5,0,1,1,2.993,1.881,2.5,2.5,0,0,1-2.993-1.881m171-70a2.5,2.5,0,1,1,2.993,1.881,2.5,2.5,0,0,1-2.993-1.881m141,169a2.5,2.5,0,1,1,2.993,1.881,2.5,2.5,0,0,1-2.993-1.881m183-392a2.5,2.5,0,1,1,3,1.881,2.51,2.51,0,0,1-3-1.881m123-184a2.5,2.5,0,1,1,3,1.881,2.51,2.51,0,0,1-3-1.881M807,816.5a2.5,2.5,0,1,1-2.5-2.5,2.5,2.5,0,0,1,2.5,2.5m-74,133a2.5,2.5,0,1,1-2.5-2.5,2.5,2.5,0,0,1,2.5,2.5m244-257a2.5,2.5,0,1,1-2.5-2.5,2.5,2.5,0,0,1,2.5,2.5m-744,16a2.5,2.5,0,1,1-2.5-2.5,2.5,2.5,0,0,1,2.5,2.5m972-304a2.5,2.5,0,1,1-2.5-2.5,2.5,2.5,0,0,1,2.5,2.5m-708,484a2.5,2.5,0,1,1-2.5-2.5,2.5,2.5,0,0,1,2.5,2.5M5,858.5A2.5,2.5,0,1,1,2.5,856,2.5,2.5,0,0,1,5,858.5m60-640a2.5,2.5,0,1,1-2.5-2.5,2.5,2.5,0,0,1,2.5,2.5m1118,617a2.5,2.5,0,1,1-2.5-2.5,2.5,2.5,0,0,1,2.5,2.5m-87-208a2.5,2.5,0,1,1-2.5-2.5,2.5,2.5,0,0,1,2.5,2.5m44-387a2.5,2.5,0,1,1-2.5-2.5,2.5,2.5,0,0,1,2.5,2.5M618,98.5a2.5,2.5,0,1,1-2.5-2.5,2.5,2.5,0,0,1,2.5,2.5" fill="#fff" fill-rule="evenodd"/>
  </g>
</svg>
