<svg xmlns="http://www.w3.org/2000/svg" width="4085.468" height="4062.918" viewBox="0 0 4085.468 4062.918">
  <g id="Group_107" data-name="Group 107" transform="translate(-2430.832 6849.94)">
    <g id="star" transform="translate(3278.305 -4892.898) rotate(45)">
      <path id="Path_20" data-name="Path 20" d="M1313.07,79.943a3.147,3.147,0,1,1-3.147-3.147,3.148,3.148,0,0,1,3.147,3.147m-880-25.179a3.147,3.147,0,1,1-3.147-3.147,3.148,3.148,0,0,1,3.147,3.147M250.528,720.741a3.147,3.147,0,1,1-3.147-3.147,3.149,3.149,0,0,1,3.147,3.147M303.4,492.873a3.147,3.147,0,1,1-3.147-3.147,3.147,3.147,0,0,1,3.147,3.147m835.933-376.422a3.147,3.147,0,1,1-3.147-3.147,3.147,3.147,0,0,1,3.147,3.147m-282-100.715a3.147,3.147,0,1,1-3.147-3.147,3.147,3.147,0,0,1,3.147,3.147M536.307,268.783a3.147,3.147,0,1,1-3.147-3.147,3.147,3.147,0,0,1,3.147,3.147m61.688-188.84a3.147,3.147,0,1,1-3.147-3.147,3.147,3.147,0,0,1,3.147,3.147m503.574-76.8A3.147,3.147,0,1,1,1098.422,0a3.147,3.147,0,0,1,3.147,3.147m-349.9,197.094a3.147,3.147,0,1,1,3.768,2.368,3.147,3.147,0,0,1-3.768-2.368m530.008,113.3a3.151,3.151,0,1,1,3.777,2.368,3.158,3.158,0,0,1-3.777-2.368M396.644,579.181a3.147,3.147,0,1,1,3.768,2.368,3.147,3.147,0,0,1-3.768-2.368M555.271,834.745a3.146,3.146,0,1,1,3.767,2.368,3.144,3.144,0,0,1-3.767-2.368M450.778,998.407a3.147,3.147,0,1,1,3.768,2.368,3.147,3.147,0,0,1-3.768-2.368M853.638,983.3a3.147,3.147,0,1,1,3.768,2.368,3.147,3.147,0,0,1-3.768-2.368m215.278-88.125a3.147,3.147,0,1,1,3.768,2.368,3.147,3.147,0,0,1-3.768-2.368m177.51,212.76a3.147,3.147,0,1,1,3.768,2.368,3.147,3.147,0,0,1-3.768-2.368m230.381-493.5a3.15,3.15,0,1,1,3.777,2.368,3.16,3.16,0,0,1-3.777-2.368m154.849-231.644a3.15,3.15,0,1,1,3.777,2.368,3.16,3.16,0,0,1-3.777-2.368m-615.7,645.134a3.147,3.147,0,1,1-3.147-3.147,3.147,3.147,0,0,1,3.147,3.147M922.8,1195.36a3.147,3.147,0,1,1-3.147-3.147,3.147,3.147,0,0,1,3.147,3.147m307.18-323.546a3.147,3.147,0,1,1-3.147-3.147,3.147,3.147,0,0,1,3.147,3.147M293.332,891.956a3.147,3.147,0,1,1-3.147-3.147,3.147,3.147,0,0,1,3.147,3.147M1517.018,509.24a3.147,3.147,0,1,1-3.147-3.147,3.148,3.148,0,0,1,3.147,3.147M625.691,1118.565a3.147,3.147,0,1,1-3.147-3.147,3.149,3.149,0,0,1,3.147,3.147M6.295,1080.8a3.147,3.147,0,1,1-3.147-3.147,3.148,3.148,0,0,1,3.147,3.147M81.831,275.078a3.147,3.147,0,1,1-3.147-3.147,3.148,3.148,0,0,1,3.147,3.147m1407.49,776.764a3.147,3.147,0,1,1-3.147-3.147,3.148,3.148,0,0,1,3.147,3.147M1379.794,789.982a3.147,3.147,0,1,1-3.147-3.147,3.149,3.149,0,0,1,3.147,3.147m55.393-487.208a3.147,3.147,0,1,1-3.147-3.147,3.149,3.149,0,0,1,3.147,3.147M778.022,124.005a3.147,3.147,0,1,1-3.147-3.147,3.148,3.148,0,0,1,3.147,3.147" fill="#fff" fill-rule="evenodd"/>
    </g>
    <g id="star-2" data-name="star" transform="translate(5228.195 -5038.544) rotate(45)">
      <path id="Path_20-2" data-name="Path 20" d="M1426.855,112.032a3.076,3.076,0,0,1-3.363,3.363,4.241,4.241,0,0,1-3.842-3.842,3.076,3.076,0,0,1,3.363-3.363,4.24,4.24,0,0,1,3.842,3.842M417.638,16.231a3.076,3.076,0,0,1-3.363,3.363,4.24,4.24,0,0,1-3.842-3.842,3.076,3.076,0,0,1,3.363-3.363,4.24,4.24,0,0,1,3.842,3.842M259.374,764.658a3.076,3.076,0,0,1-3.363,3.363,4.241,4.241,0,0,1-3.842-3.842,3.076,3.076,0,0,1,3.363-3.363,4.241,4.241,0,0,1,3.842,3.842M302.555,507.85a3.075,3.075,0,0,1-3.363,3.363,4.239,4.239,0,0,1-3.842-3.842,3.075,3.075,0,0,1,3.363-3.363,4.239,4.239,0,0,1,3.842,3.842M1230.768,140.6a3.075,3.075,0,0,1-3.363,3.363,4.239,4.239,0,0,1-3.842-3.842,3.075,3.075,0,0,1,3.363-3.363,4.238,4.238,0,0,1,3.842,3.842M900.3,3.85a3.075,3.075,0,0,1-3.363,3.363A4.239,4.239,0,0,1,893.1,3.371,3.075,3.075,0,0,1,896.462.008,4.238,4.238,0,0,1,900.3,3.85M552.094,269.069a3.075,3.075,0,0,1-3.363,3.363,4.239,4.239,0,0,1-3.842-3.842,3.075,3.075,0,0,1,3.363-3.363,4.239,4.239,0,0,1,3.842,3.842M608.333,57.605a3.075,3.075,0,0,1-3.363,3.363,4.239,4.239,0,0,1-3.842-3.842,3.075,3.075,0,0,1,3.363-3.363,4.239,4.239,0,0,1,3.842,3.842M1178.912,8.029a3.075,3.075,0,0,1-3.363,3.363,4.239,4.239,0,0,1-3.842-3.842,3.075,3.075,0,0,1,3.363-3.363,4.238,4.238,0,0,1,3.842,3.842M793.39,207a3.126,3.126,0,0,1,2.424-4.133,4.176,4.176,0,0,1,4.493,3A3.128,3.128,0,0,1,797.883,210a4.176,4.176,0,0,1-4.493-3M1408.7,377.04a3.137,3.137,0,0,1,2.422-4.133,4.187,4.187,0,0,1,4.5,3,3.138,3.138,0,0,1-2.422,4.134,4.186,4.186,0,0,1-4.5-3m-992.843,236.7a3.127,3.127,0,0,1,2.424-4.133,4.175,4.175,0,0,1,4.493,3,3.127,3.127,0,0,1-2.424,4.133,4.175,4.175,0,0,1-4.493-3M616.88,918.35a3.124,3.124,0,0,1,2.422-4.133,4.172,4.172,0,0,1,4.492,3,3.125,3.125,0,0,1-2.422,4.133,4.172,4.172,0,0,1-4.492-3M509.728,1097.734a3.126,3.126,0,0,1,2.424-4.133,4.177,4.177,0,0,1,4.493,3,3.128,3.128,0,0,1-2.424,4.134,4.177,4.177,0,0,1-4.493-3m459.989,13.37a3.127,3.127,0,0,1,2.424-4.133,4.177,4.177,0,0,1,4.493,3,3.128,3.128,0,0,1-2.424,4.134,4.177,4.177,0,0,1-4.494-3m239.714-84.489a3.127,3.127,0,0,1,2.424-4.133,4.177,4.177,0,0,1,4.493,3,3.128,3.128,0,0,1-2.424,4.134,4.177,4.177,0,0,1-4.493-3m219.383,257.05a3.127,3.127,0,0,1,2.424-4.133,4.175,4.175,0,0,1,4.493,3,3.127,3.127,0,0,1-2.424,4.133,4.177,4.177,0,0,1-4.493-3m226.147-547.36a3.138,3.138,0,0,1,2.422-4.133,4.186,4.186,0,0,1,4.5,3,3.138,3.138,0,0,1-2.422,4.133,4.186,4.186,0,0,1-4.5-3m159.619-253.369A3.138,3.138,0,0,1,1817,478.8a4.186,4.186,0,0,1,4.5,3,3.138,3.138,0,0,1-2.422,4.133,4.186,4.186,0,0,1-4.5-3m-655.662,691.6a3.075,3.075,0,0,1-3.363,3.363,4.239,4.239,0,0,1-3.842-3.842,3.075,3.075,0,0,1,3.363-3.363,4.238,4.238,0,0,1,3.842,3.842m-93.894,184.57a3.075,3.075,0,0,1-3.363,3.363,4.239,4.239,0,0,1-3.842-3.842,3.075,3.075,0,0,1,3.363-3.363,4.238,4.238,0,0,1,3.842,3.842m326.993-346.972a3.075,3.075,0,0,1-3.363,3.363,4.238,4.238,0,0,1-3.842-3.842,3.075,3.075,0,0,1,3.363-3.363,4.239,4.239,0,0,1,3.842,3.842M321.4,963.9a3.075,3.075,0,0,1-3.363,3.363,4.238,4.238,0,0,1-3.842-3.842,3.075,3.075,0,0,1,3.363-3.363A4.239,4.239,0,0,1,321.4,963.9M1692.983,618.957a3.076,3.076,0,0,1-3.363,3.363,4.24,4.24,0,0,1-3.842-3.842,3.076,3.076,0,0,1,3.363-3.363,4.24,4.24,0,0,1,3.842,3.842M719.09,1248.588a3.076,3.076,0,0,1-3.363,3.363,4.241,4.241,0,0,1-3.842-3.842,3.076,3.076,0,0,1,3.363-3.363,4.241,4.241,0,0,1,3.842,3.842M7.213,1158.212a3.076,3.076,0,0,1-3.363,3.363,4.24,4.24,0,0,1-3.842-3.842,3.076,3.076,0,0,1,3.363-3.363,4.24,4.24,0,0,1,3.842,3.842M32.351,241.682a3.076,3.076,0,0,1-3.363,3.363,4.24,4.24,0,0,1-3.842-3.842,3.076,3.076,0,0,1,3.363-3.363,4.24,4.24,0,0,1,3.842,3.842m1670.228,996.263a3.076,3.076,0,0,1-3.363,3.363,4.241,4.241,0,0,1-3.842-3.842,3.076,3.076,0,0,1,3.363-3.363,4.241,4.241,0,0,1,3.842,3.842m-145.3-308.077a3.076,3.076,0,0,1-3.363,3.363,4.241,4.241,0,0,1-3.842-3.842,3.076,3.076,0,0,1,3.363-3.363,4.241,4.241,0,0,1,3.842,3.842M1583.6,376.395a3.076,3.076,0,0,1-3.363,3.363,4.241,4.241,0,0,1-3.842-3.842,3.076,3.076,0,0,1,3.363-3.363,4.241,4.241,0,0,1,3.842,3.842m-765.84-254.65a3.076,3.076,0,0,1-3.363,3.363,4.24,4.24,0,0,1-3.842-3.842,3.076,3.076,0,0,1,3.363-3.363,4.24,4.24,0,0,1,3.842,3.842" fill="#fff" fill-rule="evenodd"/>
    </g>
    <g id="star-3" data-name="star" transform="translate(3995.251 -6849.94) rotate(45)">
      <path id="Path_20-3" data-name="Path 20" d="M1718.609,104.633a4.119,4.119,0,1,1-4.119-4.119,4.12,4.12,0,0,1,4.119,4.119M566.828,71.677a4.119,4.119,0,1,1-4.119-4.119,4.12,4.12,0,0,1,4.119,4.119M327.9,943.34a4.119,4.119,0,1,1-4.119-4.119,4.121,4.121,0,0,1,4.119,4.119M397.109,645.1a4.119,4.119,0,1,1-4.119-4.119,4.119,4.119,0,0,1,4.119,4.119m1094.11-492.679a4.119,4.119,0,1,1-4.12-4.119,4.119,4.119,0,0,1,4.12,4.119M1122.122,20.6A4.119,4.119,0,1,1,1118,16.478a4.119,4.119,0,0,1,4.119,4.119M701.944,351.8a4.119,4.119,0,1,1-4.119-4.119,4.119,4.119,0,0,1,4.119,4.119m80.74-247.163a4.119,4.119,0,1,1-4.119-4.119,4.119,4.119,0,0,1,4.119,4.119m659.1-100.513A4.119,4.119,0,1,1,1437.667,0a4.119,4.119,0,0,1,4.12,4.119M983.814,262.085a4.119,4.119,0,1,1,4.932,3.1,4.119,4.119,0,0,1-4.932-3.1m693.7,148.3a4.124,4.124,0,1,1,4.943,3.1,4.134,4.134,0,0,1-4.943-3.1M519.147,758.06a4.119,4.119,0,1,1,4.932,3.1,4.119,4.119,0,0,1-4.932-3.1m207.619,334.495a4.117,4.117,0,1,1,4.93,3.1,4.115,4.115,0,0,1-4.93-3.1M590,1306.763a4.119,4.119,0,1,1,4.932,3.1,4.119,4.119,0,0,1-4.932-3.1m527.282-19.773a4.119,4.119,0,1,1,4.932,3.1,4.119,4.119,0,0,1-4.932-3.1m281.766-115.343a4.119,4.119,0,1,1,4.932,3.1,4.12,4.12,0,0,1-4.932-3.1m232.334,278.471a4.119,4.119,0,1,1,4.932,3.1,4.12,4.12,0,0,1-4.932-3.1M1932.917,804.2a4.123,4.123,0,1,1,4.943,3.1,4.135,4.135,0,0,1-4.943-3.1M2135.591,501.01a4.124,4.124,0,1,1,4.943,3.1,4.136,4.136,0,0,1-4.943-3.1m-805.852,844.383a4.119,4.119,0,1,1-4.12-4.119,4.119,4.119,0,0,1,4.12,4.119m-121.934,219.152a4.119,4.119,0,1,1-4.119-4.119,4.119,4.119,0,0,1,4.119,4.119m402.052-423.473a4.119,4.119,0,1,1-4.119-4.119,4.119,4.119,0,0,1,4.119,4.119M383.927,1167.435a4.119,4.119,0,1,1-4.119-4.119,4.119,4.119,0,0,1,4.119,4.119M1985.546,666.517a4.119,4.119,0,1,1-4.12-4.119,4.12,4.12,0,0,1,4.12,4.119M818.935,1464.031a4.119,4.119,0,1,1-4.119-4.119,4.121,4.121,0,0,1,4.119,4.119M8.239,1414.6a4.119,4.119,0,1,1-4.119-4.119,4.12,4.12,0,0,1,4.119,4.119M107.1,360.035a4.119,4.119,0,1,1-4.119-4.119,4.12,4.12,0,0,1,4.119,4.119M1949.3,1376.7a4.119,4.119,0,1,1-4.119-4.119,4.121,4.121,0,0,1,4.119,4.119m-143.355-342.733a4.119,4.119,0,1,1-4.119-4.119,4.121,4.121,0,0,1,4.119,4.119m72.5-637.682a4.119,4.119,0,1,1-4.119-4.119,4.121,4.121,0,0,1,4.119,4.119M1018.313,162.3a4.119,4.119,0,1,1-4.119-4.119,4.12,4.12,0,0,1,4.119,4.119" transform="translate(0 0)" fill="#fff" fill-rule="evenodd"/>
    </g>
    <g id="star-4" data-name="star" transform="translate(5228.195 -5038.544) rotate(45)">
      <path id="Path_20-4" data-name="Path 20" d="M417.638,16.231a3.076,3.076,0,0,1-3.363,3.363,4.24,4.24,0,0,1-3.842-3.842,3.076,3.076,0,0,1,3.363-3.363,4.24,4.24,0,0,1,3.842,3.842M259.374,764.658a3.076,3.076,0,0,1-3.363,3.363,4.241,4.241,0,0,1-3.842-3.842,3.076,3.076,0,0,1,3.363-3.363,4.241,4.241,0,0,1,3.842,3.842M302.555,507.85a3.075,3.075,0,0,1-3.363,3.363,4.239,4.239,0,0,1-3.842-3.842,3.075,3.075,0,0,1,3.363-3.363,4.239,4.239,0,0,1,3.842,3.842m164.6-103.538a3.075,3.075,0,0,1-3.363,3.363,4.239,4.239,0,0,1-3.842-3.842,3.075,3.075,0,0,1,3.363-3.363,4.239,4.239,0,0,1,3.842,3.842M900.3,3.85a3.075,3.075,0,0,1-3.363,3.363A4.239,4.239,0,0,1,893.1,3.371,3.075,3.075,0,0,1,896.462.008,4.238,4.238,0,0,1,900.3,3.85M552.094,269.069a3.075,3.075,0,0,1-3.363,3.363,4.239,4.239,0,0,1-3.842-3.842,3.075,3.075,0,0,1,3.363-3.363,4.239,4.239,0,0,1,3.842,3.842M608.333,57.605a3.075,3.075,0,0,1-3.363,3.363,4.239,4.239,0,0,1-3.842-3.842,3.075,3.075,0,0,1,3.363-3.363,4.239,4.239,0,0,1,3.842,3.842M1178.912,8.029a3.075,3.075,0,0,1-3.363,3.363,4.239,4.239,0,0,1-3.842-3.842,3.075,3.075,0,0,1,3.363-3.363,4.238,4.238,0,0,1,3.842,3.842M793.39,207a3.126,3.126,0,0,1,2.424-4.133,4.176,4.176,0,0,1,4.493,3A3.128,3.128,0,0,1,797.883,210a4.176,4.176,0,0,1-4.493-3m-148.3,433.749a3.137,3.137,0,0,1,2.422-4.133,4.186,4.186,0,0,1,4.5,3,3.138,3.138,0,0,1-2.422,4.134,4.186,4.186,0,0,1-4.5-3M415.853,613.741a3.127,3.127,0,0,1,2.424-4.133,4.175,4.175,0,0,1,4.493,3,3.127,3.127,0,0,1-2.424,4.133,4.175,4.175,0,0,1-4.493-3M616.88,918.35a3.124,3.124,0,0,1,2.422-4.133,4.172,4.172,0,0,1,4.492,3,3.125,3.125,0,0,1-2.422,4.133,4.172,4.172,0,0,1-4.492-3M509.728,1097.734a3.126,3.126,0,0,1,2.424-4.133,4.177,4.177,0,0,1,4.493,3,3.128,3.128,0,0,1-2.424,4.134,4.177,4.177,0,0,1-4.493-3m459.989,13.37a3.127,3.127,0,0,1,2.424-4.133,4.177,4.177,0,0,1,4.493,3,3.128,3.128,0,0,1-2.424,4.134,4.177,4.177,0,0,1-4.494-3m239.714-84.489a3.127,3.127,0,0,1,2.424-4.133,4.177,4.177,0,0,1,4.493,3,3.128,3.128,0,0,1-2.424,4.134,4.177,4.177,0,0,1-4.493-3m219.383,257.05a3.127,3.127,0,0,1,2.424-4.133,4.175,4.175,0,0,1,4.493,3,3.127,3.127,0,0,1-2.424,4.133,4.177,4.177,0,0,1-4.493-3M891.351,1000.017a3.138,3.138,0,0,1,2.422-4.133,4.186,4.186,0,0,1,4.5,3,3.138,3.138,0,0,1-2.422,4.133,4.186,4.186,0,0,1-4.5-3m159.619-253.368a3.138,3.138,0,0,1,2.422-4.133,4.186,4.186,0,0,1,4.5,3,3.138,3.138,0,0,1-2.422,4.133,4.186,4.186,0,0,1-4.5-3m107.949,427.887a3.075,3.075,0,0,1-3.363,3.363,4.239,4.239,0,0,1-3.842-3.842,3.075,3.075,0,0,1,3.363-3.363,4.238,4.238,0,0,1,3.842,3.842m-93.894,184.57a3.075,3.075,0,0,1-3.363,3.363,4.239,4.239,0,0,1-3.842-3.842,3.075,3.075,0,0,1,3.363-3.363,4.238,4.238,0,0,1,3.842,3.842m-436.619-83.261a3.075,3.075,0,0,1-3.363,3.363,4.239,4.239,0,0,1-3.842-3.842,3.075,3.075,0,0,1,3.363-3.363,4.238,4.238,0,0,1,3.842,3.842M321.4,963.9a3.075,3.075,0,0,1-3.363,3.363,4.238,4.238,0,0,1-3.842-3.842,3.075,3.075,0,0,1,3.363-3.363A4.239,4.239,0,0,1,321.4,963.9m607.97-81.231a3.076,3.076,0,0,1-3.363,3.363,4.24,4.24,0,0,1-3.842-3.842,3.076,3.076,0,0,1,3.363-3.363,4.24,4.24,0,0,1,3.842,3.842M719.09,1248.588a3.076,3.076,0,0,1-3.363,3.363,4.241,4.241,0,0,1-3.842-3.842,3.076,3.076,0,0,1,3.363-3.363,4.241,4.241,0,0,1,3.842,3.842M7.213,1158.212a3.076,3.076,0,0,1-3.363,3.363,4.24,4.24,0,0,1-3.842-3.842,3.076,3.076,0,0,1,3.363-3.363,4.24,4.24,0,0,1,3.842,3.842M32.351,241.682a3.076,3.076,0,0,1-3.363,3.363,4.24,4.24,0,0,1-3.842-3.842,3.076,3.076,0,0,1,3.363-3.363,4.24,4.24,0,0,1,3.842,3.842m1670.228,996.263a3.076,3.076,0,0,1-3.363,3.363,4.241,4.241,0,0,1-3.842-3.842,3.076,3.076,0,0,1,3.363-3.363,4.241,4.241,0,0,1,3.842,3.842m-145.3-308.077a3.076,3.076,0,0,1-3.363,3.363,4.241,4.241,0,0,1-3.842-3.842,3.076,3.076,0,0,1,3.363-3.363,4.241,4.241,0,0,1,3.842,3.842M819.989,640.107a3.076,3.076,0,0,1-3.363,3.363,4.241,4.241,0,0,1-3.842-3.842,3.076,3.076,0,0,1,3.363-3.363,4.241,4.241,0,0,1,3.842,3.842m-2.23-518.363a3.076,3.076,0,0,1-3.363,3.363,4.24,4.24,0,0,1-3.842-3.842,3.076,3.076,0,0,1,3.363-3.363,4.24,4.24,0,0,1,3.842,3.842" fill="#fff" fill-rule="evenodd"/>
    </g>
    <g id="star-5" data-name="star" transform="translate(3995.251 -6849.94) rotate(45)">
      <path id="Path_20-5" data-name="Path 20" d="M1718.609,104.633a4.119,4.119,0,1,1-4.119-4.119,4.12,4.12,0,0,1,4.119,4.119M566.828,71.677a4.119,4.119,0,1,1-4.119-4.119,4.12,4.12,0,0,1,4.119,4.119M327.9,943.34a4.119,4.119,0,1,1-4.119-4.119,4.121,4.121,0,0,1,4.119,4.119M397.109,645.1a4.119,4.119,0,1,1-4.119-4.119,4.119,4.119,0,0,1,4.119,4.119m1094.11-492.679a4.119,4.119,0,1,1-4.12-4.119,4.119,4.119,0,0,1,4.12,4.119M1122.122,20.6A4.119,4.119,0,1,1,1118,16.478a4.119,4.119,0,0,1,4.119,4.119M701.944,351.8a4.119,4.119,0,1,1-4.119-4.119,4.119,4.119,0,0,1,4.119,4.119m80.74-247.163a4.119,4.119,0,1,1-4.119-4.119,4.119,4.119,0,0,1,4.119,4.119m659.1-100.513A4.119,4.119,0,1,1,1437.667,0a4.119,4.119,0,0,1,4.12,4.119M983.814,262.085a4.119,4.119,0,1,1,4.932,3.1,4.119,4.119,0,0,1-4.932-3.1m693.7,148.3a4.124,4.124,0,1,1,4.943,3.1,4.134,4.134,0,0,1-4.943-3.1M519.147,758.06a4.119,4.119,0,1,1,4.932,3.1,4.119,4.119,0,0,1-4.932-3.1m207.619,334.495a4.117,4.117,0,1,1,4.93,3.1,4.115,4.115,0,0,1-4.93-3.1M590,1306.763a4.119,4.119,0,1,1,4.932,3.1,4.119,4.119,0,0,1-4.932-3.1m527.282-19.773a4.119,4.119,0,1,1,4.932,3.1,4.119,4.119,0,0,1-4.932-3.1m281.766-115.343a4.119,4.119,0,1,1,4.932,3.1,4.12,4.12,0,0,1-4.932-3.1m232.334,278.471a4.119,4.119,0,1,1,4.932,3.1,4.12,4.12,0,0,1-4.932-3.1M1932.917,804.2a4.123,4.123,0,1,1,4.943,3.1,4.135,4.135,0,0,1-4.943-3.1M2135.591,501.01a4.124,4.124,0,1,1,4.943,3.1,4.136,4.136,0,0,1-4.943-3.1m-805.852,844.383a4.119,4.119,0,1,1-4.12-4.119,4.119,4.119,0,0,1,4.12,4.119m-121.934,219.152a4.119,4.119,0,1,1-4.119-4.119,4.119,4.119,0,0,1,4.119,4.119m402.052-423.473a4.119,4.119,0,1,1-4.119-4.119,4.119,4.119,0,0,1,4.119,4.119M383.927,1167.435a4.119,4.119,0,1,1-4.119-4.119,4.119,4.119,0,0,1,4.119,4.119M1985.546,666.517a4.119,4.119,0,1,1-4.12-4.119,4.12,4.12,0,0,1,4.12,4.119M818.935,1464.031a4.119,4.119,0,1,1-4.119-4.119,4.121,4.121,0,0,1,4.119,4.119M8.239,1414.6a4.119,4.119,0,1,1-4.119-4.119,4.12,4.12,0,0,1,4.119,4.119M107.1,360.035a4.119,4.119,0,1,1-4.119-4.119,4.12,4.12,0,0,1,4.119,4.119M1949.3,1376.7a4.119,4.119,0,1,1-4.119-4.119,4.121,4.121,0,0,1,4.119,4.119m-143.355-342.733a4.119,4.119,0,1,1-4.119-4.119,4.121,4.121,0,0,1,4.119,4.119m72.5-637.682a4.119,4.119,0,1,1-4.119-4.119,4.121,4.121,0,0,1,4.119,4.119M1018.313,162.3a4.119,4.119,0,1,1-4.119-4.119,4.12,4.12,0,0,1,4.119,4.119" transform="translate(0 0)" fill="#fff" fill-rule="evenodd"/>
    </g>
  </g>
</svg>
