<svg xmlns="http://www.w3.org/2000/svg" width="53.377" height="43" viewBox="0 0 53.377 43">
  <path id="Twitter" d="M46.4,13.848c.033.459.033.919.033,1.378,0,14.011-10.664,30.155-30.155,30.155A29.95,29.95,0,0,1,0,40.623a21.925,21.925,0,0,0,2.559.131,21.226,21.226,0,0,0,13.158-4.528,10.617,10.617,0,0,1-9.909-7.35,13.366,13.366,0,0,0,2,.164,11.209,11.209,0,0,0,2.789-.361,10.6,10.6,0,0,1-8.5-10.4v-.131a10.674,10.674,0,0,0,4.791,1.345A10.614,10.614,0,0,1,3.609,5.317,30.126,30.126,0,0,0,25.462,16.407a11.964,11.964,0,0,1-.263-2.428A10.609,10.609,0,0,1,43.542,6.728a20.866,20.866,0,0,0,6.727-2.559,10.57,10.57,0,0,1-4.659,5.841,21.247,21.247,0,0,0,6.1-1.641,22.782,22.782,0,0,1-5.315,5.48Z" transform="translate(0.271 -2.881)" fill="red" stroke="#ff4d5a" stroke-width="1"/>
</svg>
