<svg xmlns="http://www.w3.org/2000/svg" width="166" height="162" viewBox="0 0 166 162">
  <g id="ui_ux" data-name="ui/ux" transform="translate(2301 -577)">
    <ellipse id="Ellipse_28" data-name="Ellipse 28" cx="83" cy="81" rx="83" ry="81" transform="translate(-2301 577)" fill="#696d7d" opacity="0.5"/>
    <path id="Path_677" data-name="Path 677" d="M93.446,56H13.893A5.9,5.9,0,0,0,8,61.893v50.089a5.9,5.9,0,0,0,5.893,5.893H44.259l-1.965,5.893h-4.83a1.473,1.473,0,0,0-1.473,1.473v2.946H22.732a1.473,1.473,0,0,0,0,2.946H87.553a1.473,1.473,0,0,0,0-2.946H71.348v-2.946a1.473,1.473,0,0,0-1.473-1.473h-4.83l-1.965-5.893H93.446a5.9,5.9,0,0,0,5.893-5.893V61.893A5.9,5.9,0,0,0,93.446,56ZM68.4,126.714v1.473H38.937v-1.473Zm-23-2.946,1.965-5.893H59.973l1.965,5.893Zm50.991-11.786a2.95,2.95,0,0,1-2.946,2.946H13.893a2.95,2.95,0,0,1-2.946-2.946v-2.946H96.392ZM32.982,92.83l-.552,13.259H30.713L30.161,92.83Zm-2.619-2.946.983-5.893H31.8l.983,5.893Zm1.208-8.839c-1.6,0-2.946-2.024-2.946-4.42,0-1.512,1.543-3.709,2.943-5.257,1.261,1.4,2.95,3.637,2.95,5.257C34.518,79.021,33.168,81.044,31.571,81.044ZM47.6,78.1l.173.348v1.125H41.884V78.446l.173-.348ZM43.53,75.152l1.3-2.6,1.3,2.6Zm4.247,7.366V105.9a1.52,1.52,0,0,0,.013.184H41.871a1.52,1.52,0,0,0,.013-.184V82.518Zm13.259-5.893h4.42v2.946H63.982a1.473,1.473,0,1,0,0,2.946h1.473v2.946h-4.42a1.473,1.473,0,1,0,0,2.946h4.42v2.946H63.982a1.473,1.473,0,1,0,0,2.946h1.473V97.25h-4.42a1.473,1.473,0,1,0,0,2.946h4.42v5.893H55.142V70.732H65.455v2.946h-4.42a1.473,1.473,0,1,0,0,2.946ZM78.714,94.3v11.6a1.52,1.52,0,0,0,.013.184H72.808a1.522,1.522,0,0,0,.013-.184V94.3Zm-5.893-2.946V90.232l2.946-5.893,2.946,5.893v1.125Zm23.571,14.732H81.647a1.516,1.516,0,0,0,.013-.184V89.884a1.488,1.488,0,0,0-.155-.659l-4.42-8.839a1.475,1.475,0,0,0-2.637,0l-4.42,8.839a1.488,1.488,0,0,0-.155.659V105.9a1.517,1.517,0,0,0,.013.184H68.4V69.259a1.473,1.473,0,0,0-1.473-1.473H53.669A1.473,1.473,0,0,0,52.2,69.259v36.83H50.71a1.521,1.521,0,0,0,.013-.184V78.1a1.488,1.488,0,0,0-.155-.659L46.149,68.6a1.475,1.475,0,0,0-2.637,0l-4.42,8.839a1.488,1.488,0,0,0-.155.659V105.9a1.522,1.522,0,0,0,.013.184H35.378l.611-14.671c0-.033,0-.066,0-.1v-.044a1.477,1.477,0,0,0-.018-.155v0l-1.363-8.178a7.888,7.888,0,0,0,2.856-6.311c0-3.786-4.388-7.979-4.889-8.445a1.476,1.476,0,0,0-2.007,0c-.5.466-4.889,4.659-4.889,8.445a7.888,7.888,0,0,0,2.856,6.311l-1.363,8.178v0a1.476,1.476,0,0,0-.018.155v.044c0,.035,0,.068,0,.1l.611,14.671H10.946v-44.2a2.95,2.95,0,0,1,2.946-2.946H93.446a2.95,2.95,0,0,1,2.946,2.946Z" transform="translate(-2272.459 564.363)" fill="#fff"/>
    <path id="Path_678" data-name="Path 678" d="M50.312,352H41.473a1.473,1.473,0,0,0,0,2.946h8.839a1.473,1.473,0,0,0,0-2.946Z" transform="translate(-2298.566 322.872)" fill="#fff"/>
    <path id="Path_679" data-name="Path 679" d="M114.946,352h-1.473a1.473,1.473,0,0,0,0,2.946h1.473a1.473,1.473,0,0,0,0-2.946Z" transform="translate(-2357.307 322.872)" fill="#fff"/>
    <path id="Path_680" data-name="Path 680" d="M201.473,208A1.473,1.473,0,0,0,200,209.473v16.205a1.473,1.473,0,0,0,2.946,0V209.473A1.473,1.473,0,0,0,201.473,208Z" transform="translate(-2429.102 440.354)" fill="#fff"/>
    <path id="Path_681" data-name="Path 681" d="M369.473,272A1.473,1.473,0,0,0,368,273.473v4.42a1.473,1.473,0,0,0,2.946,0v-4.42A1.473,1.473,0,0,0,369.473,272Z" transform="translate(-2566.165 388.14)" fill="#fff"/>
    <path id="Path_682" data-name="Path 682" d="M41.473,90.946H53.259a1.473,1.473,0,0,0,0-2.946H41.473a1.473,1.473,0,0,0,0,2.946Z" transform="translate(-2298.566 538.256)" fill="#fff"/>
    <path id="Path_683" data-name="Path 683" d="M41.473,114.946H44.42a1.473,1.473,0,1,0,0-2.946H41.473a1.473,1.473,0,0,0,0,2.946Z" transform="translate(-2298.566 518.676)" fill="#fff"/>
    <path id="Path_684" data-name="Path 684" d="M425.473,298.946h5.893a1.473,1.473,0,0,0,0-2.946h-5.893a1.473,1.473,0,0,0,0,2.946Z" transform="translate(-2611.852 368.559)" fill="#fff"/>
    <path id="Path_685" data-name="Path 685" d="M449.473,274.946h1.473a1.473,1.473,0,1,0,0-2.946h-1.473a1.473,1.473,0,0,0,0,2.946Z" transform="translate(-2631.433 388.14)" fill="#fff"/>
  </g>
</svg>
