<svg xmlns="http://www.w3.org/2000/svg" width="165" height="162" viewBox="0 0 165 162">
  <g id="webdev" transform="translate(961 -787)">
    <ellipse id="Ellipse_27" data-name="Ellipse 27" cx="82.5" cy="81" rx="82.5" ry="81" transform="translate(-961 787)" fill="#696d7d" opacity="0.5"/>
    <path id="Path_669" data-name="Path 669" d="M93.966,56H13.929A5.936,5.936,0,0,0,8,61.929v50.394a5.936,5.936,0,0,0,5.929,5.929H44.48L42.5,124.18h-4.86a1.482,1.482,0,0,0-1.482,1.482v2.964H22.822a1.482,1.482,0,0,0,0,2.964H88.037a1.482,1.482,0,1,0,0-2.964h-16.3v-2.964a1.482,1.482,0,0,0-1.482-1.482h-4.86l-1.977-5.929H93.966a5.936,5.936,0,0,0,5.929-5.929V61.929A5.936,5.936,0,0,0,93.966,56Zm-25.2,71.144v1.482H39.126v-1.482Zm-23.14-2.964,1.977-5.929H60.289l1.977,5.929Zm51.3-11.857a2.968,2.968,0,0,1-2.964,2.964H13.929a2.968,2.968,0,0,1-2.964-2.964v-2.964H96.93Zm0-5.929c-14.827-.061-37.806-.315-85.966,0V61.929a2.968,2.968,0,0,1,2.964-2.964H93.966a2.968,2.968,0,0,1,2.964,2.964Z" transform="translate(-932.095 774.37)" fill="#fff"/>
    <path id="Path_670" data-name="Path 670" d="M50.375,352H41.482a1.482,1.482,0,1,0,0,2.964h8.893a1.482,1.482,0,1,0,0-2.964Z" transform="translate(-958.166 533.21)" fill="#fff"/>
    <path id="Path_671" data-name="Path 671" d="M114.964,352h-1.482a1.482,1.482,0,1,0,0,2.964h1.482a1.482,1.482,0,1,0,0-2.964Z" transform="translate(-1016.827 533.21)" fill="#fff"/>
    <path id="Path_672" data-name="Path 672" d="M369.482,272A1.482,1.482,0,0,0,368,273.482v4.447a1.482,1.482,0,0,0,2.964,0v-4.447A1.482,1.482,0,0,0,369.482,272Z" transform="translate(-1225.397 598.388)" fill="#fff"/>
    <path id="Path_673" data-name="Path 673" d="M41.482,90.964H53.34a1.482,1.482,0,1,0,0-2.964H41.482a1.482,1.482,0,0,0,0,2.964Z" transform="translate(-958.166 748.298)" fill="#fff"/>
    <path id="Path_674" data-name="Path 674" d="M41.482,114.964h2.964a1.482,1.482,0,0,0,0-2.964H41.482a1.482,1.482,0,0,0,0,2.964Z" transform="translate(-958.166 728.745)" fill="#fff"/>
    <path id="Path_675" data-name="Path 675" d="M425.482,298.964h5.929a1.482,1.482,0,0,0,0-2.964h-5.929a1.482,1.482,0,0,0,0,2.964Z" transform="translate(-1271.022 578.835)" fill="#fff"/>
    <path id="Path_676" data-name="Path 676" d="M449.482,274.964h1.482a1.482,1.482,0,1,0,0-2.964h-1.482a1.482,1.482,0,0,0,0,2.964Z" transform="translate(-1290.576 598.388)" fill="#fff"/>
    <path id="Icon_awesome-globe-asia" data-name="Icon awesome-globe-asia" d="M15.447.562A15.447,15.447,0,1,0,30.894,16.009,15.447,15.447,0,0,0,15.447.562Zm-.706,14.963a1,1,0,0,1-.855.484h-.019a1,1,0,0,0-.7.292l-.353.353a.5.5,0,0,0,0,.7l.353.353a1,1,0,0,1,.292.7V19a1,1,0,0,1-1,1h-.381a1,1,0,0,1-.891-.551L9.777,16.627a.5.5,0,0,0-.8-.13L7.766,17.71a1,1,0,0,1-.7.292h-3.9A12.434,12.434,0,0,1,19.286,4.164l-3.124,2.4a.5.5,0,0,0,.054.86l.675.337a1,1,0,0,1,.551.891v4.866a.5.5,0,0,1-.5.5h-.191a.5.5,0,0,1-.445-.275.276.276,0,0,0-.483-.019l-1.082,1.8Zm10.672,6.864a1,1,0,0,1-.292.7l-.6.6a1,1,0,0,1-.7.292h-.944a1,1,0,0,1-.7-.292l-.81-.81a1.667,1.667,0,0,0-1.583-.438l-1.325.331a.988.988,0,0,1-.242.03h-.644a1,1,0,0,1-.7-.292l-.742-.742a.5.5,0,0,1-.146-.353v-.635a.5.5,0,0,1,.313-.463l2.45-.98a1.67,1.67,0,0,0,.348-.19L20.564,18.1A.5.5,0,0,1,20.853,18h.753a.5.5,0,0,1,.46.307l.333.8a.249.249,0,0,0,.23.153h.237a.249.249,0,0,0,.239-.179l.262-.9A.249.249,0,0,1,23.606,18h.377a.249.249,0,0,1,.249.249v.805a.5.5,0,0,0,.146.353l.742.742a1,1,0,0,1,.292.7v1.532Z" transform="translate(-893.595 840.182)" fill="#fff"/>
  </g>
</svg>
